%TF.GenerationSoftware,KiCad,Pcbnew,10.0.3*%
%TF.CreationDate,2026-07-26T19:53:20+02:00*%
%TF.ProjectId,balance_byMiguel,62616c61-6e63-4655-9f62-794d69677565,1.0*%
%TF.SameCoordinates,Original*%
%TF.FileFunction,Copper,L1,Top*%
%TF.FilePolarity,Positive*%
%FSLAX46Y46*%
G04 Gerber Fmt 4.6, Leading zero omitted, Abs format (unit mm)*
G04 Created by KiCad (PCBNEW 10.0.3) date 2026-07-26 19:53:20*
%MOMM*%
%LPD*%
G01*
G04 APERTURE LIST*
G04 Aperture macros list*
%AMRoundRect*
0 Rectangle with rounded corners*
0 $1 Rounding radius*
0 $2 $3 $4 $5 $6 $7 $8 $9 X,Y pos of 4 corners*
0 Add a 4 corners polygon primitive as box body*
4,1,4,$2,$3,$4,$5,$6,$7,$8,$9,$2,$3,0*
0 Add four circle primitives for the rounded corners*
1,1,$1+$1,$2,$3*
1,1,$1+$1,$4,$5*
1,1,$1+$1,$6,$7*
1,1,$1+$1,$8,$9*
0 Add four rect primitives between the rounded corners*
20,1,$1+$1,$2,$3,$4,$5,0*
20,1,$1+$1,$4,$5,$6,$7,0*
20,1,$1+$1,$6,$7,$8,$9,0*
20,1,$1+$1,$8,$9,$2,$3,0*%
G04 Aperture macros list end*
%TA.AperFunction,Conductor*%
%ADD10C,0.200000*%
%TD*%
%TA.AperFunction,ComponentPad*%
%ADD11R,1.700000X1.700000*%
%TD*%
%TA.AperFunction,ComponentPad*%
%ADD12C,1.700000*%
%TD*%
%TA.AperFunction,ComponentPad*%
%ADD13C,1.524000*%
%TD*%
%TA.AperFunction,SMDPad,CuDef*%
%ADD14C,2.000000*%
%TD*%
%TA.AperFunction,ComponentPad*%
%ADD15C,3.000000*%
%TD*%
%TA.AperFunction,ComponentPad*%
%ADD16C,1.600000*%
%TD*%
%TA.AperFunction,ComponentPad*%
%ADD17RoundRect,0.250000X-1.050000X1.050000X-1.050000X-1.050000X1.050000X-1.050000X1.050000X1.050000X0*%
%TD*%
%TA.AperFunction,ComponentPad*%
%ADD18C,2.600000*%
%TD*%
%TA.AperFunction,ComponentPad*%
%ADD19C,5.600000*%
%TD*%
%TA.AperFunction,ComponentPad*%
%ADD20R,1.600000X1.524000*%
%TD*%
%TA.AperFunction,ComponentPad*%
%ADD21RoundRect,0.250000X0.750000X-0.750000X0.750000X0.750000X-0.750000X0.750000X-0.750000X-0.750000X0*%
%TD*%
%TA.AperFunction,ComponentPad*%
%ADD22C,2.000000*%
%TD*%
%TA.AperFunction,ComponentPad*%
%ADD23RoundRect,0.250001X-0.949999X0.949999X-0.949999X-0.949999X0.949999X-0.949999X0.949999X0.949999X0*%
%TD*%
%TA.AperFunction,ComponentPad*%
%ADD24C,2.400000*%
%TD*%
%TA.AperFunction,ViaPad*%
%ADD25C,0.600000*%
%TD*%
%TA.AperFunction,ViaPad*%
%ADD26C,1.000000*%
%TD*%
%TA.AperFunction,Conductor*%
%ADD27C,0.800000*%
%TD*%
G04 APERTURE END LIST*
%TO.N,Net-(U1-ENC1A)*%
D10*
X109590000Y-85080000D02*
X109590000Y-88930000D01*
%TD*%
D11*
%TO.P,J9,1,Pin_1_1*%
%TO.N,Net-(J9-Pin_1)*%
X149745000Y-65660000D03*
D12*
%TO.P,J9,2,Pin_2_2*%
%TO.N,unconnected-(J9-Pin_2-Pad2)*%
X149745000Y-68200000D03*
%TO.P,J9,3,Pin_3_3*%
%TO.N,GND*%
X149745000Y-70740000D03*
%TO.P,J9,4,Pin_4_4*%
%TO.N,+5V*%
X149745000Y-73280000D03*
%TD*%
D13*
%TO.P,U1,0,ENC1A_0*%
%TO.N,Net-(U1-ENC1A)*%
X108280000Y-98630000D03*
%TO.P,U1,1,ENC1B_1*%
%TO.N,Net-(U1-ENC1B)*%
X105740000Y-98630000D03*
%TO.P,U1,2,FC2_2*%
%TO.N,Net-(U1-FC2)*%
X103200000Y-98630000D03*
%TO.P,U1,3,FC1_3*%
%TO.N,Net-(U1-FC1)*%
X100660000Y-98630000D03*
%TO.P,U1,3V3,3V3_3V3*%
%TO.N,+3.3V*%
X95580000Y-98630000D03*
%TO.P,U1,4,SCK_4*%
%TO.N,Net-(U1-SCK)*%
X98120000Y-98630000D03*
%TO.P,U1,5,MISO_5*%
%TO.N,Net-(U1-MISO)*%
X90500000Y-113870000D03*
%TO.P,U1,5V,5V_5V*%
%TO.N,Net-(JP1-Pin_2)*%
X90500000Y-98630000D03*
%TO.P,U1,6,MOSI_6*%
%TO.N,Net-(U1-MOSI)*%
X93040000Y-113870000D03*
%TO.P,U1,7,SS_7*%
%TO.N,Net-(U1-SS)*%
X95580000Y-113870000D03*
%TO.P,U1,8,SDA_8*%
%TO.N,Net-(J8-Pin_2)*%
X98120000Y-113870000D03*
%TO.P,U1,9,SCL_9*%
%TO.N,Net-(J8-Pin_1)*%
X100660000Y-113870000D03*
%TO.P,U1,10,EN_10*%
%TO.N,Net-(U1-EN)*%
X103200000Y-113870000D03*
%TO.P,U1,20,ENC2B_20*%
%TO.N,Net-(U1-ENC2B)*%
X105740000Y-113870000D03*
%TO.P,U1,21,ENC2A_21*%
%TO.N,Net-(U1-ENC2A)*%
X108280000Y-113870000D03*
%TO.P,U1,G,GND_G*%
%TO.N,GND*%
X93040000Y-98630000D03*
%TD*%
D14*
%TO.P,EN,1*%
%TO.N,Net-(U1-EN)*%
X101960000Y-120870000D03*
%TD*%
%TO.P,MOSI,1*%
%TO.N,Net-(U1-MOSI)*%
X91550000Y-120810000D03*
%TD*%
D15*
%TO.P,U4,1,Vin+_1*%
%TO.N,+24V*%
X138965000Y-45830000D03*
%TO.P,U4,2,Vin-_2*%
%TO.N,GND*%
X120415000Y-45830000D03*
%TO.P,U4,3,Vout+_3*%
%TO.N,+5V*%
X138965000Y-86755000D03*
%TO.P,U4,4,Vout-_4*%
%TO.N,GND*%
X120315000Y-86805000D03*
%TD*%
D16*
%TO.P,R2,1*%
%TO.N,Net-(J6-Pin_1)*%
X90280000Y-130855000D03*
%TO.P,R2,2*%
%TO.N,Net-(U1-ENC1B)*%
X97900000Y-130855000D03*
%TD*%
%TO.P,R9,1*%
%TO.N,Net-(J10-Pin_1)*%
X110660000Y-75090000D03*
%TO.P,R9,2*%
%TO.N,Net-(U1-FC1)*%
X103040000Y-75090000D03*
%TD*%
D11*
%TO.P,J6,1,Pin_1_1*%
%TO.N,Net-(J6-Pin_1)*%
X100205000Y-139080000D03*
D12*
%TO.P,J6,2,Pin_2_2*%
%TO.N,Net-(J6-Pin_2)*%
X102745000Y-139080000D03*
%TO.P,J6,3,Pin_3_3*%
%TO.N,GND*%
X105285000Y-139080000D03*
%TO.P,J6,4,Pin_4_4*%
%TO.N,+5V*%
X107825000Y-139080000D03*
%TD*%
D16*
%TO.P,R8,1*%
%TO.N,Net-(J7-Pin_1)*%
X111650000Y-130880000D03*
%TO.P,R8,2*%
%TO.N,Net-(U1-ENC2B)*%
X119270000Y-130880000D03*
%TD*%
D17*
%TO.P,J1,1,Pin_1_1*%
%TO.N,+24V*%
X92610000Y-53640000D03*
D18*
%TO.P,J1,2,Pin_2_2*%
%TO.N,GND*%
X92610000Y-58720000D03*
%TD*%
D16*
%TO.P,C1,1*%
%TO.N,GND*%
X88700000Y-93310000D03*
%TO.P,C1,2*%
%TO.N,Net-(JP1-Pin_2)*%
X93700000Y-93310000D03*
%TD*%
%TO.P,R4,1*%
%TO.N,Net-(U1-ENC1A)*%
X100820000Y-126230000D03*
%TO.P,R4,2*%
%TO.N,GND*%
X108440000Y-126230000D03*
%TD*%
D14*
%TO.P,3V3,1*%
%TO.N,+3.3V*%
X96490000Y-83760000D03*
%TD*%
D16*
%TO.P,R1,1*%
%TO.N,Net-(U1-ENC1B)*%
X100820000Y-130880000D03*
%TO.P,R1,2*%
%TO.N,GND*%
X108440000Y-130880000D03*
%TD*%
D11*
%TO.P,J5,1,Pin_1_1*%
%TO.N,Net-(J5-Pin_1)*%
X138835000Y-126230000D03*
D12*
%TO.P,J5,2,Pin_2_2*%
%TO.N,Net-(J5-Pin_2)*%
X141375000Y-126230000D03*
%TO.P,J5,3,Pin_3_3*%
%TO.N,Net-(J5-Pin_3)*%
X143915000Y-126230000D03*
%TO.P,J5,4,Pin_4_4*%
%TO.N,Net-(J5-Pin_4)*%
X146455000Y-126230000D03*
%TD*%
D14*
%TO.P,SCK,1*%
%TO.N,Net-(U1-SCK)*%
X98490000Y-120850000D03*
%TD*%
D11*
%TO.P,J10,1,Pin_1_1*%
%TO.N,Net-(J10-Pin_1)*%
X149745000Y-80055000D03*
D12*
%TO.P,J10,2,Pin_2_2*%
%TO.N,unconnected-(J10-Pin_2-Pad2)*%
X149745000Y-82595000D03*
%TO.P,J10,3,Pin_3_3*%
%TO.N,GND*%
X149745000Y-85135000D03*
%TO.P,J10,4,Pin_4_4*%
%TO.N,+5V*%
X149745000Y-87675000D03*
%TD*%
D19*
%TO.P,H1,1,1_1*%
%TO.N,GND*%
X89245000Y-140005000D03*
%TD*%
D16*
%TO.P,R5,1*%
%TO.N,Net-(U1-ENC2B)*%
X121925000Y-130880000D03*
%TO.P,R5,2*%
%TO.N,GND*%
X129545000Y-130880000D03*
%TD*%
D14*
%TO.P,5V,1*%
%TO.N,+5V*%
X100840000Y-83770000D03*
%TD*%
D16*
%TO.P,R6,1*%
%TO.N,Net-(U1-ENC2A)*%
X121920000Y-126205000D03*
%TO.P,R6,2*%
%TO.N,GND*%
X129540000Y-126205000D03*
%TD*%
D14*
%TO.P,E1B,1*%
%TO.N,Net-(U1-ENC1B)*%
X105190000Y-83780000D03*
%TD*%
D11*
%TO.P,J7,1,Pin_1_1*%
%TO.N,Net-(J7-Pin_1)*%
X117150000Y-139080000D03*
D12*
%TO.P,J7,2,Pin_2_2*%
%TO.N,Net-(J7-Pin_2)*%
X119690000Y-139080000D03*
%TO.P,J7,3,Pin_3_3*%
%TO.N,GND*%
X122230000Y-139080000D03*
%TO.P,J7,4,Pin_4_4*%
%TO.N,+5V*%
X124770000Y-139080000D03*
%TD*%
D16*
%TO.P,R7,1*%
%TO.N,Net-(J7-Pin_2)*%
X111645000Y-126205000D03*
%TO.P,R7,2*%
%TO.N,Net-(U1-ENC2A)*%
X119265000Y-126205000D03*
%TD*%
D19*
%TO.P,H2,1,1_1*%
%TO.N,GND*%
X150670000Y-140130000D03*
%TD*%
D20*
%TO.P,U3,1,Vcc_1*%
%TO.N,+5V*%
X115280000Y-93335000D03*
D16*
%TO.P,U3,2,GND_2*%
%TO.N,GND*%
X115280000Y-95875000D03*
%TO.P,U3,3,CSN_3*%
%TO.N,Net-(U1-SS)*%
X115280000Y-98415000D03*
%TO.P,U3,4,SCK_4*%
%TO.N,Net-(U1-SCK)*%
X115280000Y-100955000D03*
%TO.P,U3,5,SDI_5*%
%TO.N,Net-(U1-MOSI)*%
X115280000Y-103495000D03*
%TO.P,U3,6,SDO_6*%
%TO.N,Net-(U1-MISO)*%
X115280000Y-106035000D03*
%TO.P,U3,7,GND_7*%
%TO.N,GND*%
X115280000Y-108575000D03*
%TO.P,U3,8,CLK16_8*%
%TO.N,unconnected-(U3-CLK16-Pad8)*%
X115280000Y-111115000D03*
%TO.P,U3,9,Enable_9*%
%TO.N,Net-(U1-EN)*%
X115280000Y-113655000D03*
%TO.P,U3,10,RefL_10*%
%TO.N,unconnected-(U3-RefL-Pad10)*%
X115280000Y-116195000D03*
%TO.P,U3,11,RefR_11*%
%TO.N,unconnected-(U3-RefR-Pad11)*%
X115280000Y-118735000D03*
%TO.P,U3,12,EncN_12*%
%TO.N,unconnected-(U3-EncN-Pad12)*%
X150840000Y-118735000D03*
%TO.P,U3,13,EncB_13*%
%TO.N,unconnected-(U3-EncB-Pad13)*%
X150840000Y-116195000D03*
%TO.P,U3,14,EncA_14*%
%TO.N,unconnected-(U3-EncA-Pad14)*%
X150840000Y-113655000D03*
%TO.P,U3,15,Diag0_15*%
%TO.N,unconnected-(U3-Diag0-Pad15)*%
X150840000Y-111115000D03*
%TO.P,U3,16,GND_16*%
%TO.N,GND*%
X150840000Y-108575000D03*
%TO.P,U3,17,A1_17*%
%TO.N,Net-(J5-Pin_4)*%
X150840000Y-106035000D03*
%TO.P,U3,18,A2_18*%
%TO.N,Net-(J5-Pin_3)*%
X150840000Y-103495000D03*
%TO.P,U3,19,B1_19*%
%TO.N,Net-(J5-Pin_2)*%
X150840000Y-100955000D03*
%TO.P,U3,20,B2_20*%
%TO.N,Net-(J5-Pin_1)*%
X150840000Y-98415000D03*
%TO.P,U3,21,GND_21*%
%TO.N,GND*%
X150840000Y-95875000D03*
%TO.P,U3,22,Us_22*%
%TO.N,+24V*%
X150840000Y-93335000D03*
%TD*%
D19*
%TO.P,H4,1,1_1*%
%TO.N,GND*%
X88995000Y-44880000D03*
%TD*%
D16*
%TO.P,R10,1*%
%TO.N,Net-(J9-Pin_1)*%
X110660000Y-69840000D03*
%TO.P,R10,2*%
%TO.N,Net-(U1-FC2)*%
X103040000Y-69840000D03*
%TD*%
D14*
%TO.P,SS,1*%
%TO.N,Net-(U1-SS)*%
X95020000Y-120830000D03*
%TD*%
%TO.P,TP_VS,1*%
%TO.N,+24V*%
X150050000Y-52140000D03*
%TD*%
%TO.P,MISO,1*%
%TO.N,Net-(U1-MISO)*%
X87980000Y-120800000D03*
%TD*%
D16*
%TO.P,R3,1*%
%TO.N,Net-(J6-Pin_2)*%
X90305000Y-126205000D03*
%TO.P,R3,2*%
%TO.N,Net-(U1-ENC1A)*%
X97925000Y-126205000D03*
%TD*%
D21*
%TO.P,C2,1*%
%TO.N,+24V*%
X110130000Y-49970000D03*
D22*
%TO.P,C2,2*%
%TO.N,GND*%
X110130000Y-44970000D03*
%TD*%
D11*
%TO.P,J8,1,Pin_1_1*%
%TO.N,Net-(J8-Pin_1)*%
X134100000Y-139080000D03*
D12*
%TO.P,J8,2,Pin_2_2*%
%TO.N,Net-(J8-Pin_2)*%
X136640000Y-139080000D03*
%TO.P,J8,3,Pin_3_3*%
%TO.N,GND*%
X139180000Y-139080000D03*
%TO.P,J8,4,Pin_4_4*%
%TO.N,+3.3V*%
X141720000Y-139080000D03*
%TD*%
D14*
%TO.P,E1A,1*%
%TO.N,Net-(U1-ENC1A)*%
X109540000Y-83790000D03*
%TD*%
D19*
%TO.P,H3,1,1_1*%
%TO.N,GND*%
X150770000Y-44655000D03*
%TD*%
D14*
%TO.P,GND,1*%
%TO.N,GND*%
X92260000Y-83740000D03*
%TD*%
D11*
%TO.P,JP1,1,Pin_1_1*%
%TO.N,+5V*%
X102510000Y-90350000D03*
D12*
%TO.P,JP1,2,Pin_2_2*%
%TO.N,Net-(JP1-Pin_2)*%
X99970000Y-90350000D03*
%TD*%
D16*
%TO.P,R11,1*%
%TO.N,Net-(U1-FC2)*%
X98870000Y-69850000D03*
%TO.P,R11,2*%
%TO.N,GND*%
X91250000Y-69850000D03*
%TD*%
D23*
%TO.P,D1,1,A1_1*%
%TO.N,+24V*%
X101630000Y-52220000D03*
D24*
%TO.P,D1,2,A2_2*%
%TO.N,GND*%
X101630000Y-62380000D03*
%TD*%
D16*
%TO.P,R12,1*%
%TO.N,Net-(U1-FC1)*%
X98870000Y-75060000D03*
%TO.P,R12,2*%
%TO.N,GND*%
X91250000Y-75060000D03*
%TD*%
D25*
%TO.N,Net-(J9-Pin_1)*%
X138130000Y-69860000D03*
D26*
%TO.N,GND*%
X88700000Y-87300000D03*
D25*
%TO.N,Net-(U1-ENC1A)*%
X109590000Y-88930000D03*
X108880000Y-121160000D03*
%TO.N,Net-(U1-ENC1B)*%
X105740000Y-88520000D03*
%TO.N,Net-(U1-FC2)*%
X91650000Y-104010000D03*
%TO.N,+3.3V*%
X113230000Y-90520000D03*
X110050000Y-95140000D03*
%TO.N,Net-(U1-SCK)*%
X99170000Y-117340000D03*
X104090000Y-104470000D03*
%TO.N,Net-(J8-Pin_2)*%
X112745200Y-123935200D03*
%TO.N,Net-(J8-Pin_1)*%
X129930000Y-123270000D03*
X111525000Y-121175000D03*
%TO.N,Net-(U1-EN)*%
X101970000Y-118660000D03*
%TO.N,Net-(J10-Pin_1)*%
X138130000Y-75080000D03*
%TD*%
%TO.N,Net-(J9-Pin_1)*%
D10*
X138130000Y-69860000D02*
X138110000Y-69840000D01*
X138110000Y-69840000D02*
X110660000Y-69840000D01*
%TO.N,GND*%
X92260000Y-83740000D02*
X88700000Y-87300000D01*
X148215000Y-44655000D02*
X150770000Y-44655000D01*
%TO.N,+5V*%
X102510000Y-90350000D02*
X106670000Y-90350000D01*
X109700000Y-93380000D02*
X115235000Y-93380000D01*
X115335000Y-93335000D02*
X115280000Y-93335000D01*
X106670000Y-90350000D02*
X109700000Y-93380000D01*
X149745000Y-87675000D02*
X152340000Y-85080000D01*
X124770000Y-139080000D02*
X124770000Y-102770000D01*
X107825000Y-139095000D02*
X107825000Y-139080000D01*
X110845000Y-136060000D02*
X107825000Y-139080000D01*
X102510000Y-90350000D02*
X102510000Y-85440000D01*
X124770000Y-139080000D02*
X121750000Y-136060000D01*
X124770000Y-102770000D02*
X115335000Y-93335000D01*
X152340000Y-75875000D02*
X149745000Y-73280000D01*
X121750000Y-136060000D02*
X110845000Y-136060000D01*
X115235000Y-93380000D02*
X115280000Y-93335000D01*
X102510000Y-85440000D02*
X100840000Y-83770000D01*
X152340000Y-85080000D02*
X152340000Y-75875000D01*
%TO.N,Net-(U1-ENC1A)*%
X109590000Y-83840000D02*
X109540000Y-83790000D01*
X106930000Y-121830000D02*
X108210000Y-121830000D01*
X100795000Y-126205000D02*
X102555000Y-126205000D01*
X102555000Y-126205000D02*
X106930000Y-121830000D01*
X108210000Y-121830000D02*
X108880000Y-121160000D01*
X109590000Y-85080000D02*
X109590000Y-83840000D01*
%TO.N,Net-(U1-ENC1B)*%
X105625000Y-99133000D02*
X105625000Y-98565000D01*
X105190000Y-87970000D02*
X105740000Y-88520000D01*
X105190000Y-83780000D02*
X105190000Y-87970000D01*
%TO.N,Net-(U1-FC2)*%
X87300000Y-76200000D02*
X87300000Y-99660000D01*
X98870000Y-69850000D02*
X93650000Y-69850000D01*
X87300000Y-99660000D02*
X91650000Y-104010000D01*
X93650000Y-69850000D02*
X87300000Y-76200000D01*
%TO.N,+3.3V*%
X95580000Y-96970000D02*
X95580000Y-98630000D01*
X114620000Y-90630000D02*
X120980000Y-90630000D01*
X95580000Y-84670000D02*
X96490000Y-83760000D01*
X95580000Y-98630000D02*
X95580000Y-84670000D01*
X114600000Y-90650000D02*
X114620000Y-90630000D01*
X135791900Y-105441900D02*
X135791900Y-133151900D01*
X135791900Y-133151900D02*
X141720000Y-139080000D01*
X120980000Y-90630000D02*
X135791900Y-105441900D01*
X110050000Y-95140000D02*
X97410000Y-95140000D01*
X97410000Y-95140000D02*
X95580000Y-96970000D01*
X113230000Y-90520000D02*
X113360000Y-90650000D01*
X113360000Y-90650000D02*
X114600000Y-90650000D01*
%TO.N,Net-(U1-SCK)*%
X100425000Y-100955000D02*
X107605000Y-100955000D01*
X107605000Y-100955000D02*
X115280000Y-100955000D01*
X98490000Y-120850000D02*
X98490000Y-118020000D01*
X98490000Y-118020000D02*
X99170000Y-117340000D01*
X104090000Y-104470000D02*
X107605000Y-100955000D01*
X98070000Y-98600000D02*
X100425000Y-100955000D01*
%TO.N,Net-(U1-MISO)*%
X115280000Y-106035000D02*
X98335000Y-106035000D01*
X89550000Y-113850000D02*
X90480000Y-113850000D01*
X98335000Y-106035000D02*
X90500000Y-113870000D01*
X90480000Y-113850000D02*
X90500000Y-113870000D01*
X87980000Y-115450000D02*
X89550000Y-113880000D01*
X87980000Y-120800000D02*
X87980000Y-115450000D01*
X89550000Y-113880000D02*
X89550000Y-113850000D01*
%TO.N,Net-(U1-MOSI)*%
X91550000Y-120810000D02*
X91550000Y-115390000D01*
X116940000Y-105155000D02*
X116940000Y-106440000D01*
X92990000Y-113690000D02*
X92990000Y-113840000D01*
X116940000Y-106440000D02*
X116075000Y-107305000D01*
X99605000Y-107305000D02*
X93040000Y-113870000D01*
X115280000Y-103495000D02*
X116940000Y-105155000D01*
X91740000Y-115170000D02*
X93040000Y-113870000D01*
X91550000Y-115390000D02*
X91740000Y-115200000D01*
X91740000Y-115200000D02*
X91740000Y-115170000D01*
X116075000Y-107305000D02*
X99605000Y-107305000D01*
%TO.N,Net-(U1-SS)*%
X95020000Y-120830000D02*
X95020000Y-114430000D01*
X118660000Y-106815200D02*
X115598700Y-109876500D01*
X118660000Y-101795000D02*
X118660000Y-106815200D01*
X99573500Y-109876500D02*
X95580000Y-113870000D01*
X115280000Y-98415000D02*
X118660000Y-101795000D01*
X95020000Y-114430000D02*
X95580000Y-113870000D01*
X115598700Y-109876500D02*
X99573500Y-109876500D01*
%TO.N,Net-(J8-Pin_2)*%
X106280000Y-117470000D02*
X112745200Y-123935200D01*
X101720000Y-117470000D02*
X106280000Y-117470000D01*
X98120000Y-113870000D02*
X101720000Y-117470000D01*
X112745200Y-123935200D02*
X112745200Y-123938400D01*
X98005000Y-113805000D02*
X98245000Y-113805000D01*
%TO.N,Net-(J8-Pin_1)*%
X111530000Y-121180000D02*
X111525000Y-121175000D01*
X134100000Y-127440000D02*
X129930000Y-123270000D01*
X102836200Y-116046200D02*
X100660000Y-113870000D01*
X106396200Y-116046200D02*
X102836200Y-116046200D01*
X111525000Y-121175000D02*
X106396200Y-116046200D01*
X134100000Y-139080000D02*
X134100000Y-127440000D01*
%TO.N,Net-(U1-EN)*%
X101970000Y-118660000D02*
X101960000Y-118670000D01*
X105400000Y-111670000D02*
X103200000Y-113870000D01*
X113295000Y-111670000D02*
X105400000Y-111670000D01*
X101960000Y-118670000D02*
X101960000Y-120870000D01*
X115280000Y-113655000D02*
X113295000Y-111670000D01*
%TO.N,Net-(U1-ENC2B)*%
X105625000Y-114005000D02*
X118165000Y-126545000D01*
X118809365Y-127305000D02*
X118809365Y-127309365D01*
X118165000Y-126545000D02*
X118165000Y-126660635D01*
X118809365Y-127309365D02*
X119270000Y-127770000D01*
X105625000Y-113805000D02*
X105625000Y-114005000D01*
X118165000Y-126660635D02*
X118809365Y-127305000D01*
X119270000Y-127770000D02*
X119270000Y-130880000D01*
%TO.N,Net-(U1-ENC2A)*%
X119265000Y-125465000D02*
X119265000Y-126205000D01*
X108280000Y-113870000D02*
X108280000Y-114480000D01*
X108280000Y-114480000D02*
X119265000Y-125465000D01*
%TO.N,+24V*%
D27*
X101850000Y-52220000D02*
X104100000Y-49970000D01*
X144600000Y-51465000D02*
X138965000Y-45830000D01*
X100210000Y-53640000D02*
X101630000Y-52220000D01*
X144600000Y-87095000D02*
X144600000Y-56070000D01*
X101630000Y-52220000D02*
X102060000Y-52220000D01*
X102060000Y-52220000D02*
X102140000Y-52140000D01*
D10*
X146120000Y-56070000D02*
X144600000Y-56070000D01*
D27*
X150840000Y-93335000D02*
X144600000Y-87095000D01*
X144600000Y-56070000D02*
X144600000Y-51465000D01*
X101630000Y-52220000D02*
X101850000Y-52220000D01*
D10*
X140470000Y-45830000D02*
X138965000Y-45830000D01*
D27*
X134825000Y-49970000D02*
X138965000Y-45830000D01*
D10*
X150050000Y-52140000D02*
X146120000Y-56070000D01*
D27*
X92610000Y-53640000D02*
X100210000Y-53640000D01*
X110130000Y-49970000D02*
X134825000Y-49970000D01*
X104100000Y-49970000D02*
X110130000Y-49970000D01*
%TO.N,Net-(J10-Pin_1)*%
D10*
X110660000Y-75090000D02*
X138120000Y-75090000D01*
X138120000Y-75090000D02*
X138130000Y-75080000D01*
%TO.N,Net-(J5-Pin_1)*%
D27*
X138835000Y-110420000D02*
X138835000Y-126230000D01*
X150840000Y-98415000D02*
X138835000Y-110420000D01*
%TO.N,Net-(J5-Pin_2)*%
X141375000Y-110420000D02*
X141375000Y-126230000D01*
X150840000Y-100955000D02*
X141375000Y-110420000D01*
%TO.N,Net-(J5-Pin_3)*%
X150840000Y-103495000D02*
X143915000Y-110420000D01*
X143915000Y-110420000D02*
X143915000Y-126230000D01*
%TO.N,Net-(J5-Pin_4)*%
X150840000Y-106035000D02*
X146455000Y-110420000D01*
X146455000Y-110420000D02*
X146455000Y-126230000D01*
%TO.N,Net-(JP1-Pin_2)*%
D10*
X93700000Y-93310000D02*
X93700000Y-93210000D01*
X90500000Y-96510000D02*
X93700000Y-93310000D01*
X90500000Y-98630000D02*
X90500000Y-96510000D01*
%TD*%
M02*
