M48
; DRILL file KiCad 10.0.3 date 2026-07-26T19:53:17
; FORMAT={-:-/ absolute / metric / decimal}
; #@! TF.CreationDate,2026-07-26T19:53:17+02:00
; #@! TF.GenerationSoftware,Kicad,Pcbnew,10.0.3
; #@! TF.FileFunction,MixedPlating,1,2
FMAT,2
METRIC
; #@! TA.AperFunction,Plated,PTH,ViaDrill
T1C0.300
; #@! TA.AperFunction,Plated,PTH,ViaDrill
T2C0.500
; #@! TA.AperFunction,Plated,PTH,ComponentDrill
T3C0.800
; #@! TA.AperFunction,Plated,PTH,ComponentDrill
T4C1.000
; #@! TA.AperFunction,Plated,PTH,ComponentDrill
T5C1.200
; #@! TA.AperFunction,Plated,PTH,ComponentDrill
T6C1.300
; #@! TA.AperFunction,Plated,PTH,ComponentDrill
T7C2.000
; #@! TA.AperFunction,Plated,PTH,ComponentDrill
T8C3.200
; #@! TA.AperFunction,NonPlated,NPTH,ComponentDrill
T9C4.000
%
G90
G05
T1
X91.65Y-104.01
X99.17Y-117.34
X101.97Y-118.66
X104.09Y-104.47
X105.74Y-88.52
X108.88Y-121.16
X109.59Y-88.93
X110.05Y-95.14
X111.525Y-121.175
X112.745Y-123.935
X113.23Y-90.52
X129.93Y-123.27
X138.13Y-69.86
X138.13Y-75.08
T2
X88.7Y-87.3
T3
X88.7Y-93.31
X90.28Y-130.855
X90.305Y-126.205
X90.5Y-98.63
X90.5Y-113.87
X91.25Y-69.85
X91.25Y-75.06
X93.04Y-98.63
X93.04Y-113.87
X93.7Y-93.31
X95.58Y-98.63
X95.58Y-113.87
X97.9Y-130.855
X97.925Y-126.205
X98.12Y-98.63
X98.12Y-113.87
X98.87Y-69.85
X98.87Y-75.06
X100.66Y-98.63
X100.66Y-113.87
X100.82Y-126.23
X100.82Y-130.88
X103.04Y-69.84
X103.04Y-75.09
X103.2Y-98.63
X103.2Y-113.87
X105.74Y-98.63
X105.74Y-113.87
X108.28Y-98.63
X108.28Y-113.87
X108.44Y-126.23
X108.44Y-130.88
X110.66Y-69.84
X110.66Y-75.09
X111.645Y-126.205
X111.65Y-130.88
X115.28Y-93.335
X115.28Y-95.875
X115.28Y-98.415
X115.28Y-100.955
X115.28Y-103.495
X115.28Y-106.035
X115.28Y-108.575
X115.28Y-111.115
X115.28Y-113.655
X115.28Y-116.195
X115.28Y-118.735
X119.265Y-126.205
X119.27Y-130.88
X121.92Y-126.205
X121.925Y-130.88
X129.54Y-126.205
X129.545Y-130.88
X150.84Y-93.335
X150.84Y-95.875
X150.84Y-98.415
X150.84Y-100.955
X150.84Y-103.495
X150.84Y-106.035
X150.84Y-108.575
X150.84Y-111.115
X150.84Y-113.655
X150.84Y-116.195
X150.84Y-118.735
T4
X99.97Y-90.35
X100.205Y-139.08
X102.51Y-90.35
X102.745Y-139.08
X105.285Y-139.08
X107.825Y-139.08
X110.13Y-44.97
X110.13Y-49.97
X117.15Y-139.08
X119.69Y-139.08
X122.23Y-139.08
X124.77Y-139.08
X134.1Y-139.08
X136.64Y-139.08
X138.835Y-126.23
X139.18Y-139.08
X141.375Y-126.23
X141.72Y-139.08
X143.915Y-126.23
X146.455Y-126.23
X149.745Y-65.66
X149.745Y-68.2
X149.745Y-70.74
X149.745Y-73.28
X149.745Y-80.055
X149.745Y-82.595
X149.745Y-85.135
X149.745Y-87.675
T5
X101.63Y-52.22
X101.63Y-62.38
T6
X92.61Y-53.64
X92.61Y-58.72
T7
X120.315Y-86.805
X120.415Y-45.83
X138.965Y-45.83
X138.965Y-86.755
T8
X88.995Y-44.88
X89.245Y-140.005
X150.67Y-140.13
X150.77Y-44.655
T9
X121.115Y-81.43
X138.265Y-50.93
M30
