%TF.GenerationSoftware,KiCad,Pcbnew,10.0.3*%
%TF.CreationDate,2026-07-26T19:53:20+02:00*%
%TF.ProjectId,balance_byMiguel,62616c61-6e63-4655-9f62-794d69677565,1.0*%
%TF.SameCoordinates,Original*%
%TF.FileFunction,Legend,Top*%
%TF.FilePolarity,Positive*%
%FSLAX46Y46*%
G04 Gerber Fmt 4.6, Leading zero omitted, Abs format (unit mm)*
G04 Created by KiCad (PCBNEW 10.0.3) date 2026-07-26 19:53:20*
%MOMM*%
%LPD*%
G01*
G04 APERTURE LIST*
%ADD10C,0.000000*%
%ADD11C,0.200000*%
%ADD12C,0.100000*%
%ADD13C,0.150000*%
%ADD14C,0.120000*%
G04 APERTURE END LIST*
D10*
G36*
X151700161Y-131044672D02*
G01*
X151706803Y-131045518D01*
X151711689Y-131046949D01*
X151715272Y-131048922D01*
X151720345Y-131054319D01*
X151721401Y-131055853D01*
X151722394Y-131057468D01*
X151723319Y-131059150D01*
X151724173Y-131060887D01*
X151724953Y-131062666D01*
X151725653Y-131064471D01*
X151726272Y-131066291D01*
X151726803Y-131068111D01*
X151727245Y-131069918D01*
X151727593Y-131071698D01*
X151727842Y-131073438D01*
X151727990Y-131075125D01*
X151728033Y-131076745D01*
X151727966Y-131078285D01*
X151727786Y-131079730D01*
X151727488Y-131081068D01*
X151723688Y-131094781D01*
X151719234Y-131110517D01*
X151718451Y-131113334D01*
X151717850Y-131115813D01*
X151717628Y-131116930D01*
X151717464Y-131117968D01*
X151717360Y-131118929D01*
X151717322Y-131119815D01*
X151717353Y-131120627D01*
X151717457Y-131121368D01*
X151717638Y-131122039D01*
X151717900Y-131122643D01*
X151718247Y-131123181D01*
X151718683Y-131123654D01*
X151719212Y-131124066D01*
X151719838Y-131124417D01*
X151720564Y-131124710D01*
X151721395Y-131124947D01*
X151722335Y-131125128D01*
X151723387Y-131125258D01*
X151724555Y-131125336D01*
X151725844Y-131125365D01*
X151727257Y-131125347D01*
X151728798Y-131125284D01*
X151732282Y-131125030D01*
X151736326Y-131124617D01*
X151740961Y-131124060D01*
X151746220Y-131123375D01*
X151750491Y-131122840D01*
X151754440Y-131122426D01*
X151758080Y-131122136D01*
X151761422Y-131121971D01*
X151764478Y-131121936D01*
X151767260Y-131122030D01*
X151769779Y-131122258D01*
X151772047Y-131122621D01*
X151774077Y-131123122D01*
X151775879Y-131123763D01*
X151777465Y-131124546D01*
X151778848Y-131125474D01*
X151780038Y-131126549D01*
X151781048Y-131127773D01*
X151781890Y-131129148D01*
X151782575Y-131130678D01*
X151782826Y-131132626D01*
X151782669Y-131136006D01*
X151782122Y-131140737D01*
X151781203Y-131146739D01*
X151778319Y-131162230D01*
X151774160Y-131181835D01*
X151768871Y-131204907D01*
X151762594Y-131230802D01*
X151755472Y-131258873D01*
X151747649Y-131288475D01*
X151708736Y-131434327D01*
X151670656Y-131579702D01*
X151655401Y-131636892D01*
X151641604Y-131685390D01*
X151635728Y-131704780D01*
X151630785Y-131720077D01*
X151626965Y-131730641D01*
X151625536Y-131733949D01*
X151624459Y-131735833D01*
X151623729Y-131736506D01*
X151622541Y-131737257D01*
X151618817Y-131738992D01*
X151613347Y-131741021D01*
X151606186Y-131743333D01*
X151597393Y-131745911D01*
X151587025Y-131748743D01*
X151561793Y-131755111D01*
X151530951Y-131762324D01*
X151494957Y-131770268D01*
X151454271Y-131778832D01*
X151409354Y-131787903D01*
X151229895Y-131824778D01*
X151063586Y-131861087D01*
X150939886Y-131890192D01*
X150903221Y-131899970D01*
X150888256Y-131905457D01*
X150886833Y-131908136D01*
X150884696Y-131913689D01*
X150878751Y-131931735D01*
X150871363Y-131956234D01*
X150863471Y-131983820D01*
X150856019Y-132011131D01*
X150849948Y-132034804D01*
X150846198Y-132051474D01*
X150845488Y-132056132D01*
X150845475Y-132057357D01*
X150845711Y-132057778D01*
X150847773Y-132057447D01*
X150852786Y-132056498D01*
X150870338Y-132053015D01*
X150926277Y-132041585D01*
X150972344Y-132032477D01*
X151022766Y-132023175D01*
X151128297Y-132005331D01*
X151226103Y-131990731D01*
X151266870Y-131985485D01*
X151299419Y-131982054D01*
X151319336Y-131980440D01*
X151334875Y-131979468D01*
X151341205Y-131979252D01*
X151346685Y-131979232D01*
X151351395Y-131979418D01*
X151355418Y-131979822D01*
X151358834Y-131980456D01*
X151361725Y-131981331D01*
X151364173Y-131982459D01*
X151366258Y-131983851D01*
X151368062Y-131985519D01*
X151369666Y-131987475D01*
X151371153Y-131989729D01*
X151372602Y-131992294D01*
X151373442Y-131993912D01*
X151374232Y-131995517D01*
X151374970Y-131997099D01*
X151375652Y-131998648D01*
X151376276Y-132000155D01*
X151376840Y-132001608D01*
X151377339Y-132003000D01*
X151377772Y-132004319D01*
X151378135Y-132005556D01*
X151378425Y-132006702D01*
X151378639Y-132007746D01*
X151378775Y-132008679D01*
X151378830Y-132009492D01*
X151378800Y-132010173D01*
X151378683Y-132010714D01*
X151378591Y-132010929D01*
X151378476Y-132011105D01*
X151378184Y-132011527D01*
X151377846Y-132012160D01*
X151377466Y-132012990D01*
X151377048Y-132014005D01*
X151376597Y-132015192D01*
X151376116Y-132016538D01*
X151375083Y-132019658D01*
X151373984Y-132023261D01*
X151372851Y-132027246D01*
X151371718Y-132031509D01*
X151370618Y-132035950D01*
X151369756Y-132039661D01*
X151369066Y-132042927D01*
X151368584Y-132045775D01*
X151368432Y-132047051D01*
X151368345Y-132048234D01*
X151368328Y-132049327D01*
X151368385Y-132050333D01*
X151368521Y-132051256D01*
X151368739Y-132052100D01*
X151369044Y-132052868D01*
X151369442Y-132053563D01*
X151369935Y-132054190D01*
X151370529Y-132054752D01*
X151371228Y-132055252D01*
X151372035Y-132055694D01*
X151372957Y-132056081D01*
X151373997Y-132056417D01*
X151375159Y-132056706D01*
X151376448Y-132056952D01*
X151377869Y-132057157D01*
X151379425Y-132057325D01*
X151382962Y-132057566D01*
X151387094Y-132057703D01*
X151391858Y-132057764D01*
X151397288Y-132057778D01*
X151402094Y-132057810D01*
X151406407Y-132057914D01*
X151410254Y-132058104D01*
X151413659Y-132058393D01*
X151416647Y-132058793D01*
X151419244Y-132059318D01*
X151421474Y-132059981D01*
X151422459Y-132060368D01*
X151423363Y-132060794D01*
X151424187Y-132061261D01*
X151424935Y-132061771D01*
X151425611Y-132062325D01*
X151426216Y-132062925D01*
X151426756Y-132063572D01*
X151427232Y-132064268D01*
X151427647Y-132065015D01*
X151428006Y-132065815D01*
X151428311Y-132066668D01*
X151428565Y-132067577D01*
X151428932Y-132069567D01*
X151429135Y-132071800D01*
X151429197Y-132074288D01*
X151428649Y-132079602D01*
X151427043Y-132088209D01*
X151420882Y-132114502D01*
X151411164Y-132151573D01*
X151398340Y-132197825D01*
X151382859Y-132251664D01*
X151365171Y-132311494D01*
X151345727Y-132375720D01*
X151324978Y-132442746D01*
X151277035Y-132596099D01*
X151276109Y-132598812D01*
X151275036Y-132601523D01*
X151273828Y-132604214D01*
X151272499Y-132606868D01*
X151271062Y-132609468D01*
X151269530Y-132611995D01*
X151267915Y-132614434D01*
X151266230Y-132616766D01*
X151264489Y-132618975D01*
X151262703Y-132621043D01*
X151260887Y-132622952D01*
X151259053Y-132624685D01*
X151257214Y-132626226D01*
X151255382Y-132627556D01*
X151253571Y-132628658D01*
X151251794Y-132629516D01*
X151249441Y-132630379D01*
X151245941Y-132631470D01*
X151235781Y-132634269D01*
X151221872Y-132637781D01*
X151204774Y-132641879D01*
X151185045Y-132646430D01*
X151163245Y-132651304D01*
X151115666Y-132661504D01*
X150957557Y-132695354D01*
X150820262Y-132726264D01*
X150722480Y-132749897D01*
X150694251Y-132757628D01*
X150682913Y-132761913D01*
X150681351Y-132764797D01*
X150679229Y-132770361D01*
X150673698Y-132787974D01*
X150667099Y-132811639D01*
X150660212Y-132838242D01*
X150653816Y-132864671D01*
X150648690Y-132887811D01*
X150645615Y-132904549D01*
X150645089Y-132909545D01*
X150645122Y-132911030D01*
X150645369Y-132911773D01*
X150645607Y-132911887D01*
X150646037Y-132911960D01*
X150647451Y-132911987D01*
X150649570Y-132911861D01*
X150652355Y-132911589D01*
X150659761Y-132910631D01*
X150669350Y-132909164D01*
X150680803Y-132907240D01*
X150693801Y-132904909D01*
X150708025Y-132902223D01*
X150723157Y-132899232D01*
X150812734Y-132881775D01*
X150906107Y-132864808D01*
X151090792Y-132834403D01*
X151175378Y-132821990D01*
X151250309Y-132812123D01*
X151312224Y-132805314D01*
X151357760Y-132802077D01*
X151417291Y-132799934D01*
X151415941Y-132838193D01*
X151414592Y-132876531D01*
X151445706Y-132871292D01*
X151452257Y-132870316D01*
X151455281Y-132869981D01*
X151458138Y-132869752D01*
X151460832Y-132869631D01*
X151463364Y-132869621D01*
X151465735Y-132869723D01*
X151467948Y-132869941D01*
X151470004Y-132870278D01*
X151471906Y-132870734D01*
X151473654Y-132871314D01*
X151475252Y-132872019D01*
X151476700Y-132872852D01*
X151478000Y-132873816D01*
X151479155Y-132874912D01*
X151480166Y-132876144D01*
X151481035Y-132877514D01*
X151481763Y-132879024D01*
X151482353Y-132880677D01*
X151482807Y-132882475D01*
X151483125Y-132884421D01*
X151483311Y-132886518D01*
X151483365Y-132888767D01*
X151483290Y-132891172D01*
X151483088Y-132893734D01*
X151482760Y-132896457D01*
X151482307Y-132899342D01*
X151481733Y-132902393D01*
X151480226Y-132909000D01*
X151478252Y-132916298D01*
X151419231Y-133117809D01*
X151360181Y-133313054D01*
X151313454Y-133461924D01*
X151298571Y-133506435D01*
X151291402Y-133524310D01*
X151288245Y-133525773D01*
X151280941Y-133528045D01*
X151254768Y-133534826D01*
X151214632Y-133544270D01*
X151162279Y-133555991D01*
X151027909Y-133584731D01*
X150865635Y-133617973D01*
X150475804Y-133697873D01*
X150122764Y-133772595D01*
X149890344Y-133822830D01*
X149790739Y-133843715D01*
X149790474Y-133843699D01*
X149790200Y-133843653D01*
X149789918Y-133843576D01*
X149789629Y-133843470D01*
X149789333Y-133843336D01*
X149789031Y-133843174D01*
X149788723Y-133842984D01*
X149788410Y-133842769D01*
X149788094Y-133842528D01*
X149787773Y-133842262D01*
X149787449Y-133841973D01*
X149787123Y-133841660D01*
X149786466Y-133840968D01*
X149785807Y-133840193D01*
X149785151Y-133839341D01*
X149784502Y-133838417D01*
X149783866Y-133837429D01*
X149783249Y-133836382D01*
X149782653Y-133835282D01*
X149782086Y-133834136D01*
X149781551Y-133832950D01*
X149781055Y-133831729D01*
X149780610Y-133830371D01*
X149780229Y-133828779D01*
X149779910Y-133826974D01*
X149779654Y-133824975D01*
X149779462Y-133822802D01*
X149779331Y-133820475D01*
X149779264Y-133818014D01*
X149779259Y-133815438D01*
X149779316Y-133812767D01*
X149779435Y-133810021D01*
X149779617Y-133807219D01*
X149779860Y-133804382D01*
X149780165Y-133801530D01*
X149780532Y-133798681D01*
X149780961Y-133795856D01*
X149781451Y-133793074D01*
X149786452Y-133766404D01*
X149755020Y-133772198D01*
X149748330Y-133773300D01*
X149742235Y-133774036D01*
X149736713Y-133774389D01*
X149734159Y-133774417D01*
X149731741Y-133774343D01*
X149729454Y-133774164D01*
X149727296Y-133773880D01*
X149725264Y-133773487D01*
X149723356Y-133772984D01*
X149721568Y-133772368D01*
X149719898Y-133771638D01*
X149718343Y-133770792D01*
X149716900Y-133769827D01*
X149715566Y-133768741D01*
X149714339Y-133767533D01*
X149713216Y-133766199D01*
X149712193Y-133764739D01*
X149711268Y-133763150D01*
X149710439Y-133761429D01*
X149709702Y-133759576D01*
X149709054Y-133757587D01*
X149708493Y-133755461D01*
X149708016Y-133753196D01*
X149707621Y-133750789D01*
X149707303Y-133748238D01*
X149706892Y-133742698D01*
X149706760Y-133736559D01*
X149717023Y-133669645D01*
X149746171Y-133517820D01*
X149851252Y-133006478D01*
X150002276Y-132296614D01*
X150179517Y-131482309D01*
X150185938Y-131454015D01*
X150192313Y-131427558D01*
X150198502Y-131403418D01*
X150204371Y-131382078D01*
X150209783Y-131364020D01*
X150214600Y-131349726D01*
X150218686Y-131339676D01*
X150220412Y-131336394D01*
X150221904Y-131334354D01*
X150235713Y-131326842D01*
X150264144Y-131316807D01*
X150359045Y-131290415D01*
X150494950Y-131257676D01*
X150660202Y-131221086D01*
X150843147Y-131183142D01*
X151032127Y-131146340D01*
X151215488Y-131113176D01*
X151381572Y-131086149D01*
X151566430Y-131058695D01*
X151624751Y-131050698D01*
X151665169Y-131046064D01*
X151691311Y-131044452D01*
X151700161Y-131044672D01*
G37*
G36*
X152374546Y-130492040D02*
G01*
X152375432Y-130492348D01*
X152377255Y-130493124D01*
X152379134Y-130494103D01*
X152381056Y-130495271D01*
X152383005Y-130496614D01*
X152384966Y-130498117D01*
X152386927Y-130499768D01*
X152388870Y-130501552D01*
X152390784Y-130503454D01*
X152392652Y-130505462D01*
X152394460Y-130507561D01*
X152396194Y-130509737D01*
X152397839Y-130511977D01*
X152399381Y-130514265D01*
X152400804Y-130516589D01*
X152402096Y-130518935D01*
X152404011Y-130522835D01*
X152404847Y-130524742D01*
X152405599Y-130526652D01*
X152406261Y-130528587D01*
X152406830Y-130530570D01*
X152407303Y-130532625D01*
X152407676Y-130534774D01*
X152407945Y-130537041D01*
X152408106Y-130539448D01*
X152408156Y-130542019D01*
X152408091Y-130544777D01*
X152407908Y-130547744D01*
X152407603Y-130550944D01*
X152407171Y-130554401D01*
X152406611Y-130558136D01*
X152405916Y-130562174D01*
X152405085Y-130566536D01*
X152404114Y-130571247D01*
X152402998Y-130576329D01*
X152400318Y-130587699D01*
X152397017Y-130600831D01*
X152393066Y-130615910D01*
X152388435Y-130633119D01*
X152377014Y-130674669D01*
X152347526Y-130781398D01*
X152328516Y-130851278D01*
X152187149Y-131371184D01*
X151873697Y-132526090D01*
X151735029Y-133034090D01*
X151531194Y-133780215D01*
X151487054Y-133939999D01*
X151449120Y-134072821D01*
X151421426Y-134164850D01*
X151412679Y-134191244D01*
X151408004Y-134202252D01*
X151406566Y-134203846D01*
X151405128Y-134205347D01*
X151404376Y-134206066D01*
X151403584Y-134206766D01*
X151402738Y-134207447D01*
X151401827Y-134208112D01*
X151400835Y-134208762D01*
X151399750Y-134209398D01*
X151398559Y-134210022D01*
X151397247Y-134210634D01*
X151395803Y-134211237D01*
X151394213Y-134211831D01*
X151392462Y-134212418D01*
X151390539Y-134213000D01*
X151388429Y-134213577D01*
X151386120Y-134214151D01*
X151383598Y-134214723D01*
X151380849Y-134215296D01*
X151377861Y-134215869D01*
X151374620Y-134216444D01*
X151371113Y-134217024D01*
X151367326Y-134217608D01*
X151358861Y-134218798D01*
X151349119Y-134220025D01*
X151337992Y-134221299D01*
X151325375Y-134222631D01*
X151311160Y-134224033D01*
X151295242Y-134225516D01*
X151277514Y-134227089D01*
X151257869Y-134228764D01*
X151236201Y-134230551D01*
X151212404Y-134232462D01*
X151186371Y-134234508D01*
X151157995Y-134236698D01*
X151093790Y-134241558D01*
X151018938Y-134247130D01*
X150833884Y-134260751D01*
X149976635Y-134324252D01*
X148158947Y-134458792D01*
X147079447Y-134538564D01*
X146329354Y-134594047D01*
X145853104Y-134629448D01*
X145424479Y-134661278D01*
X144428322Y-134736605D01*
X144291956Y-134747261D01*
X144170354Y-134756369D01*
X144077822Y-134763414D01*
X144011366Y-134769148D01*
X143997814Y-134770337D01*
X143991923Y-134770718D01*
X143986562Y-134770947D01*
X143981685Y-134771017D01*
X143977247Y-134770920D01*
X143973202Y-134770651D01*
X143969505Y-134770200D01*
X143966110Y-134769562D01*
X143962972Y-134768728D01*
X143960046Y-134767693D01*
X143957285Y-134766447D01*
X143954645Y-134764985D01*
X143952080Y-134763299D01*
X143949544Y-134761382D01*
X143946992Y-134759227D01*
X143945189Y-134757412D01*
X143943216Y-134755001D01*
X143941092Y-134752035D01*
X143938837Y-134748552D01*
X143936470Y-134744594D01*
X143934011Y-134740199D01*
X143931479Y-134735410D01*
X143928895Y-134730265D01*
X143926277Y-134724804D01*
X143923645Y-134719069D01*
X143921019Y-134713098D01*
X143918417Y-134706932D01*
X143915861Y-134700611D01*
X143913368Y-134694176D01*
X143910960Y-134687666D01*
X143908654Y-134681121D01*
X143899795Y-134655742D01*
X143891777Y-134633586D01*
X143885471Y-134617039D01*
X143883231Y-134611617D01*
X143881746Y-134608493D01*
X143881245Y-134608003D01*
X143880382Y-134607681D01*
X143879154Y-134607525D01*
X143877562Y-134607538D01*
X143873276Y-134608069D01*
X143867515Y-134609277D01*
X143860267Y-134611166D01*
X143851523Y-134613739D01*
X143841274Y-134617001D01*
X143829508Y-134620955D01*
X143816215Y-134625605D01*
X143801386Y-134630954D01*
X143767078Y-134643766D01*
X143726502Y-134659420D01*
X143679578Y-134677946D01*
X143601578Y-134708475D01*
X143534927Y-134733459D01*
X143486686Y-134750333D01*
X143471676Y-134754926D01*
X143463916Y-134756528D01*
X143461755Y-134756489D01*
X143459708Y-134756371D01*
X143457773Y-134756174D01*
X143455950Y-134755895D01*
X143454240Y-134755535D01*
X143452642Y-134755093D01*
X143451155Y-134754566D01*
X143449780Y-134753954D01*
X143448515Y-134753257D01*
X143447362Y-134752472D01*
X143446318Y-134751600D01*
X143445384Y-134750638D01*
X143444560Y-134749587D01*
X143443846Y-134748444D01*
X143443240Y-134747210D01*
X143442743Y-134745882D01*
X143442354Y-134744460D01*
X143442074Y-134742942D01*
X143441901Y-134741329D01*
X143441835Y-134739618D01*
X143441877Y-134737809D01*
X143442025Y-134735901D01*
X143442280Y-134733892D01*
X143442641Y-134731782D01*
X143443108Y-134729569D01*
X143443680Y-134727253D01*
X143444358Y-134724832D01*
X143445140Y-134722306D01*
X143446027Y-134719673D01*
X143447018Y-134716933D01*
X143448113Y-134714084D01*
X143449311Y-134711125D01*
X143451948Y-134704680D01*
X143454202Y-134698876D01*
X143456071Y-134693699D01*
X143457554Y-134689136D01*
X143458649Y-134685170D01*
X143459354Y-134681788D01*
X143459669Y-134678975D01*
X143459679Y-134677777D01*
X143459590Y-134676716D01*
X143459403Y-134675790D01*
X143459117Y-134674997D01*
X143458733Y-134674335D01*
X143458249Y-134673802D01*
X143457665Y-134673397D01*
X143456982Y-134673118D01*
X143456199Y-134672962D01*
X143455316Y-134672929D01*
X143454333Y-134673015D01*
X143453250Y-134673221D01*
X143450781Y-134673979D01*
X143447907Y-134675189D01*
X143444628Y-134676835D01*
X143440345Y-134678920D01*
X143435917Y-134680682D01*
X143431382Y-134682123D01*
X143426779Y-134683246D01*
X143422145Y-134684053D01*
X143417521Y-134684547D01*
X143412944Y-134684730D01*
X143408453Y-134684604D01*
X143404087Y-134684172D01*
X143399884Y-134683437D01*
X143395882Y-134682401D01*
X143392122Y-134681066D01*
X143388640Y-134679434D01*
X143387016Y-134678508D01*
X143385476Y-134677509D01*
X143384025Y-134676437D01*
X143382668Y-134675293D01*
X143381410Y-134674076D01*
X143380255Y-134672787D01*
X143379488Y-134671835D01*
X143378781Y-134670878D01*
X143378133Y-134669913D01*
X143377546Y-134668934D01*
X143377021Y-134667936D01*
X143376558Y-134666914D01*
X143376157Y-134665863D01*
X143375820Y-134664778D01*
X143375547Y-134663653D01*
X143375339Y-134662484D01*
X143375197Y-134661265D01*
X143375120Y-134659992D01*
X143375111Y-134658660D01*
X143375170Y-134657262D01*
X143375297Y-134655795D01*
X143375492Y-134654253D01*
X143375758Y-134652631D01*
X143376094Y-134650924D01*
X143376502Y-134649126D01*
X143376981Y-134647234D01*
X143377532Y-134645241D01*
X143378157Y-134643142D01*
X143379630Y-134638609D01*
X143381404Y-134633593D01*
X143383485Y-134628053D01*
X143385878Y-134621949D01*
X143388589Y-134615240D01*
X143411378Y-134560688D01*
X143997248Y-134560688D01*
X143997273Y-134562753D01*
X143997882Y-134567798D01*
X143999162Y-134573876D01*
X144001022Y-134580761D01*
X144003372Y-134588228D01*
X144006123Y-134596052D01*
X144009183Y-134604009D01*
X144012462Y-134611872D01*
X144015871Y-134619417D01*
X144019319Y-134626419D01*
X144022716Y-134632653D01*
X144025972Y-134637893D01*
X144028996Y-134641915D01*
X144030392Y-134643399D01*
X144031698Y-134644493D01*
X144032900Y-134645170D01*
X144033987Y-134645403D01*
X144179323Y-134634905D01*
X144515635Y-134609525D01*
X145992010Y-134498480D01*
X146742104Y-134442917D01*
X147436635Y-134391244D01*
X148242291Y-134331792D01*
X149047947Y-134272340D01*
X149579760Y-134232653D01*
X150222697Y-134185187D01*
X150904646Y-134135937D01*
X151225888Y-134110396D01*
X151293555Y-134102409D01*
X151321819Y-134095421D01*
X151326463Y-134091788D01*
X151327604Y-134087790D01*
X151327835Y-134077872D01*
X151528257Y-133335715D01*
X151684784Y-132765753D01*
X152056100Y-131398965D01*
X152236520Y-130734120D01*
X152247364Y-130693025D01*
X152255768Y-130658903D01*
X152258795Y-130645565D01*
X152260898Y-130635302D01*
X152261975Y-130628557D01*
X152262095Y-130626642D01*
X152261920Y-130625774D01*
X152259915Y-130625693D01*
X152254696Y-130626090D01*
X152235281Y-130628229D01*
X152165192Y-130637263D01*
X152062286Y-130651446D01*
X151937197Y-130669350D01*
X150583833Y-130863928D01*
X149595635Y-131002249D01*
X149163041Y-131061622D01*
X147837479Y-131244422D01*
X146554273Y-131421716D01*
X146043604Y-131495485D01*
X146040045Y-131541331D01*
X146032283Y-131664127D01*
X146008758Y-132065715D01*
X145972642Y-132684840D01*
X145968753Y-132736434D01*
X146007647Y-132642851D01*
X146064584Y-132518068D01*
X146129558Y-132397686D01*
X146201873Y-132282252D01*
X146280829Y-132172313D01*
X146365729Y-132068416D01*
X146455874Y-131971107D01*
X146550565Y-131880933D01*
X146649106Y-131798440D01*
X146750797Y-131724176D01*
X146854940Y-131658686D01*
X146960837Y-131602519D01*
X147014225Y-131578101D01*
X147067790Y-131556220D01*
X147121445Y-131536942D01*
X147175101Y-131520336D01*
X147228672Y-131506470D01*
X147282071Y-131495414D01*
X147335211Y-131487234D01*
X147388003Y-131482000D01*
X147440361Y-131479780D01*
X147492197Y-131480642D01*
X147530487Y-131482988D01*
X147548100Y-131484534D01*
X147564851Y-131486368D01*
X147580861Y-131488519D01*
X147596249Y-131491016D01*
X147611134Y-131493887D01*
X147625637Y-131497162D01*
X147639876Y-131500870D01*
X147653971Y-131505038D01*
X147668043Y-131509698D01*
X147682210Y-131514877D01*
X147696592Y-131520604D01*
X147711310Y-131526908D01*
X147726482Y-131533818D01*
X147742228Y-131541364D01*
X147760029Y-131550604D01*
X147777940Y-131560883D01*
X147795770Y-131572025D01*
X147813326Y-131583853D01*
X147830416Y-131596193D01*
X147846848Y-131608868D01*
X147862429Y-131621703D01*
X147876967Y-131634521D01*
X147890270Y-131647146D01*
X147902146Y-131659403D01*
X147912401Y-131671115D01*
X147920844Y-131682107D01*
X147927283Y-131692203D01*
X147931525Y-131701227D01*
X147932762Y-131705282D01*
X147933378Y-131709002D01*
X147933348Y-131712367D01*
X147932649Y-131715354D01*
X147932471Y-131715956D01*
X147932369Y-131716630D01*
X147932340Y-131717374D01*
X147932383Y-131718183D01*
X147932497Y-131719057D01*
X147932679Y-131719992D01*
X147933244Y-131722034D01*
X147934066Y-131724289D01*
X147935133Y-131726737D01*
X147936431Y-131729355D01*
X147937947Y-131732122D01*
X147939671Y-131735018D01*
X147941588Y-131738021D01*
X147943687Y-131741110D01*
X147945954Y-131744264D01*
X147948378Y-131747462D01*
X147950946Y-131750682D01*
X147953644Y-131753903D01*
X147956461Y-131757105D01*
X147961028Y-131762197D01*
X147965039Y-131766768D01*
X147968515Y-131770878D01*
X147971476Y-131774590D01*
X147973943Y-131777964D01*
X147975937Y-131781062D01*
X147976762Y-131782526D01*
X147977478Y-131783944D01*
X147978085Y-131785324D01*
X147978587Y-131786673D01*
X147978986Y-131787998D01*
X147979286Y-131789308D01*
X147979487Y-131790610D01*
X147979593Y-131791911D01*
X147979607Y-131793220D01*
X147979531Y-131794544D01*
X147979368Y-131795890D01*
X147979121Y-131797267D01*
X147978791Y-131798681D01*
X147978381Y-131800141D01*
X147977334Y-131803229D01*
X147976000Y-131806590D01*
X147974400Y-131810287D01*
X147841646Y-132073316D01*
X147684126Y-132381945D01*
X147683710Y-132382530D01*
X147683031Y-132383195D01*
X147680915Y-132384757D01*
X147677834Y-132386608D01*
X147673843Y-132388725D01*
X147668999Y-132391084D01*
X147663357Y-132393663D01*
X147656974Y-132396439D01*
X147649905Y-132399388D01*
X147633934Y-132405716D01*
X147615892Y-132412463D01*
X147596225Y-132419444D01*
X147575382Y-132426475D01*
X147553646Y-132433821D01*
X147531420Y-132441649D01*
X147509329Y-132449721D01*
X147488000Y-132457798D01*
X147468059Y-132465641D01*
X147450132Y-132473010D01*
X147434845Y-132479666D01*
X147422823Y-132485371D01*
X147412585Y-132490358D01*
X147402353Y-132495013D01*
X147392402Y-132499232D01*
X147383007Y-132502913D01*
X147374441Y-132505954D01*
X147366980Y-132508253D01*
X147363749Y-132509093D01*
X147360897Y-132509708D01*
X147358458Y-132510086D01*
X147356466Y-132510215D01*
X147353755Y-132510172D01*
X147352517Y-132510113D01*
X147351356Y-132510024D01*
X147350270Y-132509901D01*
X147349257Y-132509740D01*
X147348316Y-132509539D01*
X147347446Y-132509293D01*
X147346644Y-132508998D01*
X147345910Y-132508651D01*
X147345241Y-132508249D01*
X147344636Y-132507788D01*
X147344093Y-132507263D01*
X147343611Y-132506672D01*
X147343188Y-132506010D01*
X147342823Y-132505274D01*
X147342514Y-132504461D01*
X147342260Y-132503566D01*
X147342058Y-132502587D01*
X147341908Y-132501518D01*
X147341807Y-132500358D01*
X147341755Y-132499101D01*
X147341749Y-132497745D01*
X147341788Y-132496285D01*
X147341870Y-132494718D01*
X147341994Y-132493041D01*
X147342362Y-132489340D01*
X147342877Y-132485153D01*
X147343528Y-132480450D01*
X147344492Y-132474177D01*
X147345629Y-132467745D01*
X147346896Y-132461335D01*
X147348251Y-132455129D01*
X147349650Y-132449311D01*
X147351051Y-132444061D01*
X147352411Y-132439564D01*
X147353688Y-132436000D01*
X147354665Y-132433516D01*
X147355465Y-132431361D01*
X147356063Y-132429534D01*
X147356278Y-132428743D01*
X147356433Y-132428032D01*
X147356523Y-132427403D01*
X147356548Y-132426854D01*
X147356502Y-132426386D01*
X147356382Y-132425998D01*
X147356186Y-132425690D01*
X147356059Y-132425566D01*
X147355911Y-132425462D01*
X147355552Y-132425314D01*
X147355107Y-132425244D01*
X147354572Y-132425254D01*
X147353945Y-132425343D01*
X147353221Y-132425510D01*
X147352399Y-132425755D01*
X147351474Y-132426079D01*
X147350443Y-132426481D01*
X147348051Y-132427516D01*
X147345197Y-132428861D01*
X147341856Y-132430513D01*
X147333606Y-132434730D01*
X147325320Y-132438917D01*
X147321851Y-132440556D01*
X147318765Y-132441888D01*
X147316012Y-132442914D01*
X147314743Y-132443311D01*
X147313539Y-132443631D01*
X147312393Y-132443874D01*
X147311298Y-132444039D01*
X147310249Y-132444126D01*
X147309238Y-132444136D01*
X147308260Y-132444067D01*
X147307308Y-132443920D01*
X147306376Y-132443694D01*
X147305457Y-132443390D01*
X147304546Y-132443006D01*
X147303636Y-132442544D01*
X147302721Y-132442003D01*
X147301794Y-132441382D01*
X147299880Y-132439902D01*
X147297844Y-132438102D01*
X147295635Y-132435982D01*
X147293204Y-132433539D01*
X147290871Y-132431105D01*
X147289817Y-132429947D01*
X147288839Y-132428819D01*
X147287936Y-132427710D01*
X147287107Y-132426614D01*
X147286351Y-132425521D01*
X147285670Y-132424425D01*
X147285061Y-132423315D01*
X147284525Y-132422185D01*
X147284062Y-132421025D01*
X147283670Y-132419828D01*
X147283350Y-132418585D01*
X147283101Y-132417288D01*
X147282923Y-132415929D01*
X147282816Y-132414499D01*
X147282778Y-132412990D01*
X147282810Y-132411395D01*
X147282911Y-132409704D01*
X147283081Y-132407909D01*
X147283320Y-132406002D01*
X147283626Y-132403975D01*
X147284000Y-132401820D01*
X147284442Y-132399528D01*
X147285525Y-132394501D01*
X147286872Y-132388828D01*
X147288480Y-132382442D01*
X147290347Y-132375278D01*
X147292578Y-132366297D01*
X147294490Y-132357482D01*
X147296055Y-132349059D01*
X147297242Y-132341256D01*
X147298025Y-132334297D01*
X147298372Y-132328408D01*
X147298374Y-132325936D01*
X147298257Y-132323816D01*
X147298016Y-132322077D01*
X147297649Y-132320747D01*
X147296799Y-132319122D01*
X147295567Y-132317666D01*
X147293969Y-132316379D01*
X147292019Y-132315258D01*
X147289733Y-132314300D01*
X147287124Y-132313504D01*
X147284210Y-132312867D01*
X147281003Y-132312387D01*
X147277519Y-132312061D01*
X147273773Y-132311889D01*
X147265555Y-132311992D01*
X147256468Y-132312679D01*
X147246631Y-132313931D01*
X147236163Y-132315731D01*
X147225184Y-132318061D01*
X147213813Y-132320904D01*
X147202169Y-132324241D01*
X147190371Y-132328055D01*
X147178539Y-132332327D01*
X147166793Y-132337041D01*
X147155250Y-132342178D01*
X147134127Y-132352609D01*
X147113088Y-132364079D01*
X147092161Y-132376552D01*
X147071376Y-132389988D01*
X147030344Y-132419598D01*
X146990224Y-132452600D01*
X146951243Y-132488687D01*
X146913631Y-132527552D01*
X146877619Y-132568886D01*
X146843436Y-132612381D01*
X146811311Y-132657730D01*
X146781474Y-132704625D01*
X146754155Y-132752759D01*
X146729583Y-132801823D01*
X146707989Y-132851510D01*
X146689601Y-132901512D01*
X146674649Y-132951520D01*
X146668533Y-132976432D01*
X146663363Y-133001229D01*
X146660095Y-133019847D01*
X146657406Y-133038041D01*
X146655293Y-133055802D01*
X146653758Y-133073120D01*
X146652798Y-133089988D01*
X146652415Y-133106396D01*
X146652606Y-133122334D01*
X146653372Y-133137794D01*
X146654712Y-133152766D01*
X146656625Y-133167242D01*
X146659111Y-133181213D01*
X146662169Y-133194668D01*
X146665799Y-133207601D01*
X146670000Y-133220000D01*
X146674771Y-133231857D01*
X146680112Y-133243164D01*
X146682975Y-133248129D01*
X146686358Y-133252871D01*
X146690246Y-133257389D01*
X146694623Y-133261680D01*
X146699470Y-133265742D01*
X146704773Y-133269573D01*
X146710515Y-133273171D01*
X146716679Y-133276533D01*
X146723249Y-133279656D01*
X146730209Y-133282540D01*
X146737542Y-133285180D01*
X146745231Y-133287577D01*
X146753262Y-133289726D01*
X146761616Y-133291626D01*
X146770278Y-133293274D01*
X146779231Y-133294668D01*
X146797946Y-133296687D01*
X146817629Y-133297664D01*
X146838149Y-133297580D01*
X146859375Y-133296418D01*
X146881176Y-133294160D01*
X146903421Y-133290788D01*
X146925978Y-133286284D01*
X146948717Y-133280629D01*
X146970879Y-133274041D01*
X146993926Y-133266207D01*
X147017800Y-133257158D01*
X147042440Y-133246928D01*
X147067788Y-133235550D01*
X147093784Y-133223056D01*
X147120368Y-133209480D01*
X147147482Y-133194854D01*
X147175065Y-133179212D01*
X147203059Y-133162586D01*
X147231403Y-133145009D01*
X147260039Y-133126514D01*
X147288907Y-133107134D01*
X147317948Y-133086901D01*
X147347102Y-133065850D01*
X147376310Y-133044012D01*
X147389703Y-133034020D01*
X147401832Y-133025420D01*
X147412770Y-133018220D01*
X147422591Y-133012430D01*
X147427105Y-133010065D01*
X147431368Y-133008056D01*
X147435388Y-133006403D01*
X147439175Y-133005108D01*
X147442738Y-133004171D01*
X147446085Y-133003594D01*
X147449227Y-133003377D01*
X147452172Y-133003521D01*
X147454930Y-133004028D01*
X147457510Y-133004899D01*
X147459920Y-133006134D01*
X147462171Y-133007735D01*
X147464271Y-133009702D01*
X147466230Y-133012037D01*
X147468056Y-133014741D01*
X147469759Y-133017815D01*
X147471348Y-133021259D01*
X147472832Y-133025075D01*
X147474221Y-133029264D01*
X147475523Y-133033827D01*
X147477906Y-133044079D01*
X147480053Y-133055839D01*
X147480950Y-133061071D01*
X147481808Y-133065708D01*
X147482646Y-133069776D01*
X147483482Y-133073298D01*
X147484336Y-133076297D01*
X147485225Y-133078798D01*
X147486169Y-133080824D01*
X147486668Y-133081667D01*
X147487187Y-133082400D01*
X147487729Y-133083026D01*
X147488296Y-133083548D01*
X147488892Y-133083970D01*
X147489517Y-133084294D01*
X147490174Y-133084523D01*
X147490867Y-133084660D01*
X147491596Y-133084708D01*
X147492365Y-133084671D01*
X147493175Y-133084550D01*
X147494030Y-133084350D01*
X147495881Y-133083721D01*
X147497936Y-133082808D01*
X147500214Y-133081636D01*
X147502051Y-133080709D01*
X147503884Y-133079891D01*
X147505710Y-133079182D01*
X147507526Y-133078580D01*
X147509330Y-133078084D01*
X147511119Y-133077692D01*
X147512891Y-133077405D01*
X147514642Y-133077219D01*
X147516370Y-133077135D01*
X147518072Y-133077152D01*
X147519745Y-133077267D01*
X147521387Y-133077479D01*
X147522995Y-133077789D01*
X147524567Y-133078194D01*
X147526099Y-133078692D01*
X147527589Y-133079284D01*
X147529033Y-133079968D01*
X147530431Y-133080743D01*
X147531778Y-133081607D01*
X147533072Y-133082559D01*
X147534310Y-133083599D01*
X147535490Y-133084724D01*
X147536608Y-133085934D01*
X147537663Y-133087228D01*
X147538651Y-133088604D01*
X147539570Y-133090062D01*
X147540416Y-133091600D01*
X147541188Y-133093216D01*
X147541883Y-133094910D01*
X147542497Y-133096681D01*
X147543028Y-133098527D01*
X147543474Y-133100448D01*
X147544452Y-133106257D01*
X147545911Y-133116294D01*
X147549992Y-133146852D01*
X147555160Y-133187724D01*
X147560857Y-133234512D01*
X147566618Y-133279490D01*
X147569417Y-133298820D01*
X147572058Y-133315435D01*
X147574466Y-133328880D01*
X147576562Y-133338699D01*
X147578269Y-133344437D01*
X147578952Y-133345633D01*
X147579248Y-133345787D01*
X147579510Y-133345637D01*
X147580102Y-133344725D01*
X147580860Y-133343230D01*
X147581771Y-133341188D01*
X147582824Y-133338631D01*
X147585309Y-133332110D01*
X147588221Y-133323938D01*
X147591469Y-133314385D01*
X147594958Y-133303723D01*
X147598596Y-133292222D01*
X147602291Y-133280153D01*
X147670114Y-133067290D01*
X147767807Y-132774842D01*
X147880294Y-132447314D01*
X147992498Y-132129215D01*
X148135452Y-131729245D01*
X148160228Y-131661324D01*
X148182036Y-131604745D01*
X148191093Y-131582559D01*
X148198529Y-131565430D01*
X148204051Y-131554097D01*
X148206003Y-131550836D01*
X148207366Y-131549302D01*
X148219086Y-131544725D01*
X148242824Y-131537624D01*
X148319611Y-131517405D01*
X148543231Y-131463795D01*
X148770349Y-131413369D01*
X148851508Y-131397132D01*
X148893087Y-131391028D01*
X148895314Y-131391102D01*
X148897486Y-131391323D01*
X148899600Y-131391687D01*
X148901654Y-131392189D01*
X148903646Y-131392827D01*
X148905574Y-131393596D01*
X148907435Y-131394492D01*
X148909227Y-131395513D01*
X148910948Y-131396653D01*
X148912597Y-131397909D01*
X148914169Y-131399278D01*
X148915665Y-131400756D01*
X148917081Y-131402338D01*
X148918415Y-131404022D01*
X148919664Y-131405802D01*
X148920828Y-131407677D01*
X148921904Y-131409641D01*
X148922888Y-131411691D01*
X148923781Y-131413823D01*
X148924578Y-131416034D01*
X148925278Y-131418320D01*
X148925879Y-131420676D01*
X148926378Y-131423099D01*
X148926774Y-131425586D01*
X148927064Y-131428132D01*
X148927246Y-131430734D01*
X148927318Y-131433388D01*
X148927277Y-131436090D01*
X148927122Y-131438837D01*
X148926850Y-131441624D01*
X148926460Y-131444448D01*
X148925948Y-131447305D01*
X148925196Y-131451142D01*
X148924600Y-131454514D01*
X148924192Y-131457450D01*
X148924069Y-131458763D01*
X148924006Y-131459976D01*
X148924006Y-131461094D01*
X148924073Y-131462120D01*
X148924212Y-131463056D01*
X148924427Y-131463907D01*
X148924722Y-131464676D01*
X148925101Y-131465366D01*
X148925568Y-131465981D01*
X148926127Y-131466523D01*
X148926782Y-131466998D01*
X148927537Y-131467407D01*
X148928398Y-131467754D01*
X148929366Y-131468042D01*
X148930448Y-131468276D01*
X148931646Y-131468458D01*
X148932965Y-131468591D01*
X148934409Y-131468680D01*
X148937688Y-131468737D01*
X148941516Y-131468654D01*
X148945926Y-131468460D01*
X148950951Y-131468180D01*
X148980478Y-131466434D01*
X148985558Y-131541840D01*
X148987594Y-131580377D01*
X148989398Y-131629510D01*
X148990771Y-131682929D01*
X148991512Y-131734325D01*
X148991808Y-131757834D01*
X148992322Y-131779762D01*
X148993023Y-131799629D01*
X148993883Y-131816954D01*
X148994873Y-131831258D01*
X148995965Y-131842061D01*
X148997130Y-131848883D01*
X148997730Y-131850651D01*
X148998338Y-131851244D01*
X148998792Y-131850946D01*
X148999539Y-131850077D01*
X149001879Y-131846682D01*
X149009728Y-131833664D01*
X149021388Y-131813102D01*
X149036359Y-131785909D01*
X149054142Y-131752997D01*
X149074240Y-131715278D01*
X149096154Y-131673667D01*
X149119385Y-131629073D01*
X149165003Y-131541662D01*
X149204177Y-131467645D01*
X149232725Y-131414850D01*
X149241707Y-131398858D01*
X149246464Y-131391107D01*
X149247377Y-131389978D01*
X149248439Y-131388853D01*
X149249655Y-131387728D01*
X149251030Y-131386603D01*
X149252571Y-131385475D01*
X149254284Y-131384343D01*
X149258244Y-131382056D01*
X149262957Y-131379728D01*
X149268467Y-131377342D01*
X149274821Y-131374883D01*
X149282064Y-131372335D01*
X149290240Y-131369683D01*
X149299396Y-131366912D01*
X149309576Y-131364005D01*
X149320826Y-131360947D01*
X149333192Y-131357723D01*
X149346718Y-131354317D01*
X149361450Y-131350713D01*
X149377433Y-131346895D01*
X149500455Y-131318551D01*
X149620576Y-131292273D01*
X149733981Y-131268775D01*
X149836855Y-131248768D01*
X149925382Y-131232966D01*
X149995747Y-131222081D01*
X150044133Y-131216825D01*
X150058891Y-131216531D01*
X150066725Y-131217911D01*
X150067840Y-131218524D01*
X150068893Y-131219144D01*
X150069886Y-131219776D01*
X150070820Y-131220423D01*
X150071694Y-131221088D01*
X150072511Y-131221777D01*
X150073270Y-131222493D01*
X150073973Y-131223239D01*
X150074621Y-131224020D01*
X150075214Y-131224838D01*
X150075754Y-131225699D01*
X150076241Y-131226606D01*
X150076676Y-131227563D01*
X150077060Y-131228573D01*
X150077394Y-131229641D01*
X150077679Y-131230770D01*
X150077915Y-131231964D01*
X150078104Y-131233227D01*
X150078247Y-131234563D01*
X150078343Y-131235975D01*
X150078395Y-131237468D01*
X150078402Y-131239045D01*
X150078367Y-131240710D01*
X150078289Y-131242468D01*
X150078170Y-131244321D01*
X150078010Y-131246273D01*
X150077573Y-131250493D01*
X150076984Y-131255158D01*
X150076250Y-131260297D01*
X150071012Y-131294905D01*
X150099110Y-131290380D01*
X150102984Y-131289790D01*
X150106549Y-131289332D01*
X150109819Y-131289010D01*
X150112809Y-131288826D01*
X150115533Y-131288786D01*
X150118006Y-131288892D01*
X150120243Y-131289148D01*
X150122258Y-131289557D01*
X150124066Y-131290124D01*
X150125680Y-131290851D01*
X150127116Y-131291743D01*
X150128389Y-131292803D01*
X150129512Y-131294034D01*
X150130500Y-131295441D01*
X150131368Y-131297026D01*
X150132131Y-131298794D01*
X150132540Y-131300663D01*
X150132732Y-131303550D01*
X150132715Y-131307395D01*
X150132496Y-131312137D01*
X150131484Y-131324068D01*
X150129759Y-131338859D01*
X150127382Y-131356023D01*
X150124417Y-131375076D01*
X150120925Y-131395531D01*
X150116969Y-131416904D01*
X150044183Y-131795840D01*
X149903510Y-132529265D01*
X149790103Y-133129340D01*
X149718150Y-133506550D01*
X149694824Y-133624715D01*
X149684535Y-133672186D01*
X149683992Y-133673249D01*
X149683266Y-133674328D01*
X149682350Y-133675424D01*
X149681238Y-133676540D01*
X149679924Y-133677678D01*
X149678400Y-133678841D01*
X149676661Y-133680032D01*
X149674699Y-133681253D01*
X149672507Y-133682506D01*
X149670080Y-133683795D01*
X149664492Y-133686486D01*
X149657881Y-133689347D01*
X149650195Y-133692397D01*
X149641381Y-133695656D01*
X149631385Y-133699145D01*
X149620156Y-133702882D01*
X149607639Y-133706889D01*
X149593783Y-133711184D01*
X149578533Y-133715788D01*
X149561838Y-133720721D01*
X149543644Y-133726002D01*
X149220985Y-133820141D01*
X149146707Y-133841644D01*
X149083487Y-133859233D01*
X149038038Y-133871107D01*
X149024074Y-133874338D01*
X149017070Y-133875465D01*
X149015093Y-133875441D01*
X149013222Y-133875368D01*
X149011457Y-133875242D01*
X149009796Y-133875060D01*
X149008239Y-133874817D01*
X149006782Y-133874512D01*
X149005426Y-133874139D01*
X149004169Y-133873697D01*
X149003009Y-133873180D01*
X149001946Y-133872586D01*
X149000977Y-133871912D01*
X149000101Y-133871154D01*
X148999317Y-133870308D01*
X148998624Y-133869371D01*
X148998020Y-133868339D01*
X148997504Y-133867210D01*
X148997075Y-133865979D01*
X148996730Y-133864644D01*
X148996470Y-133863200D01*
X148996292Y-133861644D01*
X148996194Y-133859973D01*
X148996177Y-133858184D01*
X148996238Y-133856272D01*
X148996376Y-133854235D01*
X148996589Y-133852069D01*
X148996877Y-133849770D01*
X148997669Y-133844761D01*
X148998742Y-133839180D01*
X149000084Y-133833000D01*
X149006752Y-133803313D01*
X148972461Y-133808393D01*
X148967366Y-133809127D01*
X148962743Y-133809716D01*
X148958564Y-133810153D01*
X148954797Y-133810432D01*
X148951412Y-133810546D01*
X148948378Y-133810486D01*
X148945665Y-133810248D01*
X148943242Y-133809822D01*
X148941078Y-133809203D01*
X148939143Y-133808384D01*
X148937407Y-133807357D01*
X148935839Y-133806116D01*
X148934407Y-133804654D01*
X148933082Y-133802963D01*
X148931834Y-133801037D01*
X148930631Y-133798868D01*
X148930187Y-133797595D01*
X148929870Y-133795718D01*
X148929620Y-133790120D01*
X148929890Y-133782002D01*
X148930690Y-133771296D01*
X148932029Y-133757928D01*
X148933918Y-133741830D01*
X148939382Y-133701158D01*
X148947160Y-133648713D01*
X148957331Y-133583931D01*
X148969972Y-133506245D01*
X148985162Y-133415090D01*
X149028441Y-133152270D01*
X149041106Y-133070661D01*
X149045169Y-133038694D01*
X149045036Y-133038375D01*
X149044846Y-133038161D01*
X149044730Y-133038093D01*
X149044600Y-133038050D01*
X149044301Y-133038040D01*
X149043949Y-133038128D01*
X149043546Y-133038314D01*
X149043095Y-133038594D01*
X149042596Y-133038967D01*
X149042051Y-133039430D01*
X149041461Y-133039983D01*
X149040829Y-133040621D01*
X149040156Y-133041345D01*
X149038692Y-133043037D01*
X149037083Y-133045044D01*
X149035340Y-133047348D01*
X149033477Y-133049934D01*
X149031507Y-133052784D01*
X149029442Y-133055884D01*
X149027294Y-133059216D01*
X149025076Y-133062764D01*
X149022802Y-133066512D01*
X149020483Y-133070444D01*
X148967252Y-133160991D01*
X148870862Y-133323809D01*
X148709719Y-133595249D01*
X148661451Y-133675167D01*
X148629413Y-133725883D01*
X148609627Y-133753397D01*
X148603086Y-133760327D01*
X148598116Y-133763708D01*
X148594219Y-133764287D01*
X148590899Y-133762816D01*
X148584000Y-133756720D01*
X148583402Y-133756187D01*
X148582797Y-133755570D01*
X148581575Y-133754098D01*
X148580342Y-133752327D01*
X148579106Y-133750280D01*
X148577878Y-133747979D01*
X148576664Y-133745448D01*
X148575474Y-133742709D01*
X148574317Y-133739784D01*
X148573200Y-133736696D01*
X148572133Y-133733468D01*
X148571124Y-133730123D01*
X148570182Y-133726683D01*
X148569315Y-133723171D01*
X148568532Y-133719610D01*
X148567841Y-133716022D01*
X148567252Y-133712429D01*
X148565538Y-133701338D01*
X148564756Y-133696870D01*
X148563984Y-133693080D01*
X148563192Y-133689937D01*
X148562351Y-133687411D01*
X148561902Y-133686369D01*
X148561429Y-133685469D01*
X148560928Y-133684708D01*
X148560396Y-133684082D01*
X148559829Y-133683587D01*
X148559223Y-133683219D01*
X148558575Y-133682974D01*
X148557880Y-133682849D01*
X148557135Y-133682839D01*
X148556336Y-133682940D01*
X148555479Y-133683150D01*
X148554561Y-133683463D01*
X148552525Y-133684387D01*
X148550198Y-133685680D01*
X148547550Y-133687312D01*
X148544551Y-133689251D01*
X148541981Y-133690888D01*
X148539585Y-133692315D01*
X148537344Y-133693534D01*
X148535239Y-133694545D01*
X148533252Y-133695350D01*
X148532296Y-133695675D01*
X148531363Y-133695949D01*
X148530449Y-133696172D01*
X148529553Y-133696343D01*
X148528671Y-133696464D01*
X148527803Y-133696534D01*
X148526944Y-133696553D01*
X148526094Y-133696522D01*
X148525248Y-133696440D01*
X148524406Y-133696308D01*
X148523565Y-133696126D01*
X148522722Y-133695894D01*
X148521875Y-133695611D01*
X148521021Y-133695279D01*
X148519285Y-133694465D01*
X148517495Y-133693453D01*
X148515631Y-133692244D01*
X148513674Y-133690839D01*
X148512653Y-133689954D01*
X148511658Y-133688815D01*
X148510683Y-133687397D01*
X148509727Y-133685672D01*
X148508786Y-133683615D01*
X148507856Y-133681199D01*
X148506934Y-133678399D01*
X148506017Y-133675189D01*
X148504182Y-133667432D01*
X148502325Y-133657720D01*
X148500418Y-133645844D01*
X148498434Y-133631596D01*
X148496346Y-133614766D01*
X148494126Y-133595147D01*
X148491748Y-133572528D01*
X148489184Y-133546703D01*
X148483390Y-133484595D01*
X148476527Y-133407153D01*
X148459610Y-133203258D01*
X148454392Y-133133078D01*
X148452397Y-133097590D01*
X148452236Y-133089310D01*
X148452080Y-133085745D01*
X148451872Y-133082562D01*
X148451612Y-133079760D01*
X148451301Y-133077338D01*
X148450937Y-133075295D01*
X148450521Y-133073629D01*
X148450052Y-133072340D01*
X148449529Y-133071427D01*
X148449248Y-133071111D01*
X148448953Y-133070888D01*
X148448644Y-133070759D01*
X148448322Y-133070723D01*
X148447987Y-133070780D01*
X148447637Y-133070931D01*
X148447274Y-133071174D01*
X148446898Y-133071510D01*
X148446103Y-133072459D01*
X148445253Y-133073778D01*
X148441997Y-133081444D01*
X148435357Y-133098767D01*
X148413533Y-133157965D01*
X148383002Y-133242538D01*
X148346986Y-133343653D01*
X148206255Y-133738226D01*
X148156804Y-133874830D01*
X147830493Y-133984209D01*
X147593232Y-134063415D01*
X147481164Y-134100176D01*
X147478167Y-134100984D01*
X147475307Y-134101665D01*
X147472583Y-134102220D01*
X147469994Y-134102647D01*
X147467541Y-134102944D01*
X147465221Y-134103112D01*
X147463035Y-134103148D01*
X147460982Y-134103052D01*
X147459060Y-134102823D01*
X147457270Y-134102460D01*
X147455610Y-134101961D01*
X147454081Y-134101327D01*
X147452680Y-134100555D01*
X147451408Y-134099646D01*
X147450263Y-134098597D01*
X147449245Y-134097408D01*
X147448354Y-134096077D01*
X147447588Y-134094605D01*
X147446947Y-134092990D01*
X147446431Y-134091230D01*
X147446037Y-134089325D01*
X147445767Y-134087274D01*
X147445618Y-134085076D01*
X147445591Y-134082730D01*
X147445684Y-134080234D01*
X147445897Y-134077588D01*
X147446229Y-134074792D01*
X147446680Y-134071842D01*
X147447248Y-134068740D01*
X147447933Y-134065484D01*
X147449652Y-134058504D01*
X147457986Y-134027310D01*
X147420363Y-134031755D01*
X147411196Y-134032679D01*
X147407046Y-134032943D01*
X147403181Y-134033055D01*
X147399598Y-134033000D01*
X147396296Y-134032765D01*
X147393271Y-134032334D01*
X147390522Y-134031694D01*
X147388045Y-134030829D01*
X147385839Y-134029725D01*
X147383901Y-134028369D01*
X147382229Y-134026744D01*
X147380820Y-134024837D01*
X147379671Y-134022634D01*
X147378780Y-134020119D01*
X147378145Y-134017278D01*
X147377764Y-134014098D01*
X147377633Y-134010562D01*
X147377750Y-134006658D01*
X147378114Y-134002370D01*
X147378720Y-133997683D01*
X147379568Y-133992584D01*
X147380654Y-133987058D01*
X147381977Y-133981090D01*
X147383532Y-133974666D01*
X147385319Y-133967771D01*
X147389577Y-133952512D01*
X147394729Y-133935196D01*
X147400757Y-133915708D01*
X147411619Y-133880433D01*
X147420502Y-133850313D01*
X147426497Y-133828543D01*
X147428128Y-133821787D01*
X147428697Y-133818315D01*
X147428659Y-133817923D01*
X147428544Y-133817595D01*
X147428354Y-133817329D01*
X147428092Y-133817126D01*
X147427760Y-133816983D01*
X147427359Y-133816901D01*
X147426891Y-133816877D01*
X147426358Y-133816912D01*
X147425762Y-133817005D01*
X147425106Y-133817153D01*
X147424389Y-133817357D01*
X147423616Y-133817616D01*
X147422787Y-133817928D01*
X147421904Y-133818293D01*
X147419986Y-133819178D01*
X147417876Y-133820263D01*
X147415590Y-133821540D01*
X147413142Y-133823003D01*
X147410548Y-133824644D01*
X147407822Y-133826456D01*
X147404981Y-133828430D01*
X147402039Y-133830561D01*
X147399011Y-133832841D01*
X147371441Y-133853256D01*
X147341790Y-133873857D01*
X147310173Y-133894574D01*
X147276704Y-133915341D01*
X147241497Y-133936090D01*
X147204668Y-133956751D01*
X147166329Y-133977259D01*
X147126596Y-133997544D01*
X147063681Y-134027699D01*
X147033845Y-134041008D01*
X147004899Y-134053194D01*
X146976699Y-134064295D01*
X146949102Y-134074353D01*
X146921963Y-134083410D01*
X146895138Y-134091504D01*
X146868485Y-134098678D01*
X146841860Y-134104972D01*
X146815118Y-134110426D01*
X146788116Y-134115081D01*
X146760711Y-134118978D01*
X146732758Y-134122158D01*
X146704114Y-134124661D01*
X146674635Y-134126528D01*
X146637429Y-134127659D01*
X146600789Y-134127102D01*
X146564757Y-134124873D01*
X146529374Y-134120985D01*
X146494680Y-134115453D01*
X146460719Y-134108292D01*
X146427530Y-134099517D01*
X146395155Y-134089143D01*
X146363637Y-134077183D01*
X146333015Y-134063653D01*
X146303332Y-134048568D01*
X146274629Y-134031941D01*
X146246948Y-134013788D01*
X146220329Y-133994123D01*
X146194814Y-133972960D01*
X146170445Y-133950316D01*
X146153099Y-133932800D01*
X146135901Y-133914515D01*
X146118917Y-133895557D01*
X146102213Y-133876020D01*
X146085856Y-133855998D01*
X146069912Y-133835588D01*
X146054446Y-133814882D01*
X146039526Y-133793977D01*
X146025216Y-133772967D01*
X146011584Y-133751946D01*
X145998695Y-133731010D01*
X145986616Y-133710252D01*
X145975413Y-133689769D01*
X145965151Y-133669655D01*
X145955898Y-133650004D01*
X145947719Y-133630911D01*
X145930018Y-133587414D01*
X145925335Y-133638213D01*
X145922836Y-133672924D01*
X145919451Y-133729981D01*
X145915635Y-133801459D01*
X145911841Y-133879434D01*
X145907737Y-133954180D01*
X145903179Y-134016872D01*
X145900904Y-134041641D01*
X145898726Y-134060930D01*
X145896712Y-134073916D01*
X145895789Y-134077788D01*
X145894934Y-134079776D01*
X145894448Y-134080312D01*
X145893811Y-134080890D01*
X145892101Y-134082168D01*
X145889841Y-134083594D01*
X145887065Y-134085155D01*
X145883808Y-134086836D01*
X145880107Y-134088621D01*
X145875995Y-134090496D01*
X145871509Y-134092447D01*
X145866683Y-134094458D01*
X145861552Y-134096514D01*
X145850520Y-134100705D01*
X145838693Y-134104902D01*
X145826354Y-134108986D01*
X145691040Y-134154121D01*
X145450831Y-134235510D01*
X145253535Y-134301943D01*
X145193734Y-134320358D01*
X145171765Y-134326171D01*
X145154405Y-134329838D01*
X145141145Y-134331446D01*
X145131477Y-134331084D01*
X145124891Y-134328838D01*
X145122595Y-134327036D01*
X145120879Y-134324796D01*
X145118932Y-134319046D01*
X145118541Y-134311676D01*
X145120393Y-134292422D01*
X145123568Y-134264720D01*
X145094199Y-134269403D01*
X145085747Y-134270658D01*
X145081927Y-134271070D01*
X145078370Y-134271271D01*
X145075072Y-134271214D01*
X145072026Y-134270847D01*
X145070596Y-134270532D01*
X145069227Y-134270122D01*
X145067919Y-134269609D01*
X145066671Y-134268989D01*
X145065482Y-134268254D01*
X145064351Y-134267399D01*
X145063279Y-134266416D01*
X145062263Y-134265301D01*
X145061304Y-134264047D01*
X145060401Y-134262648D01*
X145059553Y-134261097D01*
X145058760Y-134259388D01*
X145058020Y-134257515D01*
X145057333Y-134255473D01*
X145056117Y-134250853D01*
X145055106Y-134245479D01*
X145054293Y-134239300D01*
X145053675Y-134232269D01*
X145053245Y-134224334D01*
X145052999Y-134215447D01*
X145052930Y-134205558D01*
X145053034Y-134194617D01*
X145053306Y-134182576D01*
X145053739Y-134169384D01*
X145054328Y-134154992D01*
X145055955Y-134122410D01*
X145058144Y-134084435D01*
X145064037Y-133990718D01*
X145070068Y-133892695D01*
X145074544Y-133811965D01*
X145077041Y-133756894D01*
X145077414Y-133741594D01*
X145077134Y-133735844D01*
X145076901Y-133735707D01*
X145076518Y-133735622D01*
X145075320Y-133735603D01*
X145073569Y-133735778D01*
X145071298Y-133736141D01*
X145068540Y-133736682D01*
X145065325Y-133737392D01*
X145057657Y-133739287D01*
X145048549Y-133741760D01*
X145038256Y-133744741D01*
X145027035Y-133748163D01*
X145015142Y-133751958D01*
X144923364Y-133781208D01*
X144785510Y-133824507D01*
X144718569Y-133845926D01*
X144662419Y-133864770D01*
X144622967Y-133879000D01*
X144611350Y-133883748D01*
X144607891Y-133885418D01*
X144606122Y-133886578D01*
X144604924Y-133888153D01*
X144603165Y-133891014D01*
X144598108Y-133900313D01*
X144591224Y-133913904D01*
X144582786Y-133931216D01*
X144573069Y-133951680D01*
X144562345Y-133974725D01*
X144550888Y-133999781D01*
X144538971Y-134026278D01*
X144424036Y-134284247D01*
X144409459Y-134316539D01*
X144396688Y-134343860D01*
X144385548Y-134366525D01*
X144375865Y-134384854D01*
X144367467Y-134399165D01*
X144363694Y-134404913D01*
X144360178Y-134409776D01*
X144356895Y-134413793D01*
X144353824Y-134417004D01*
X144350944Y-134419449D01*
X144348233Y-134421168D01*
X144341080Y-134424391D01*
X144327979Y-134429763D01*
X144286926Y-134445814D01*
X144231064Y-134467045D01*
X144166385Y-134491177D01*
X144102804Y-134514915D01*
X144049932Y-134535171D01*
X144013297Y-134549800D01*
X144002796Y-134554336D01*
X143998427Y-134556661D01*
X143997814Y-134557614D01*
X143997425Y-134558966D01*
X143997248Y-134560688D01*
X143411378Y-134560688D01*
X143426914Y-134523498D01*
X143478908Y-134401126D01*
X143590361Y-134142959D01*
X143607375Y-134103697D01*
X143621580Y-134070010D01*
X143633084Y-134041600D01*
X143641994Y-134018172D01*
X143648419Y-133999428D01*
X143652467Y-133985071D01*
X143653632Y-133979446D01*
X143654244Y-133974806D01*
X143654316Y-133971114D01*
X143653861Y-133968334D01*
X143514587Y-133594646D01*
X143267146Y-132938840D01*
X142989809Y-132200891D01*
X142914624Y-131994816D01*
X142906783Y-131971021D01*
X143032037Y-131971021D01*
X143062596Y-132056111D01*
X143106419Y-132175521D01*
X143176360Y-132362677D01*
X143410497Y-132982497D01*
X143655369Y-133631387D01*
X143683160Y-133704565D01*
X143706665Y-133764489D01*
X143723413Y-133804991D01*
X143728481Y-133816031D01*
X143730054Y-133818911D01*
X143730934Y-133819903D01*
X143731209Y-133819861D01*
X143731514Y-133819739D01*
X143731848Y-133819537D01*
X143732209Y-133819258D01*
X143732595Y-133818904D01*
X143733007Y-133818477D01*
X143733900Y-133817412D01*
X143734879Y-133816079D01*
X143735934Y-133814495D01*
X143737056Y-133812675D01*
X143738236Y-133810636D01*
X143739464Y-133808394D01*
X143740732Y-133805966D01*
X143742029Y-133803367D01*
X143743346Y-133800615D01*
X143744675Y-133797725D01*
X143746005Y-133794713D01*
X143747328Y-133791597D01*
X143748634Y-133788391D01*
X143821556Y-133624576D01*
X143969049Y-133303509D01*
X144095121Y-133032166D01*
X144936770Y-133032166D01*
X144936800Y-133032338D01*
X144936865Y-133032492D01*
X144936969Y-133032626D01*
X144937113Y-133032741D01*
X144937301Y-133032835D01*
X144937533Y-133032909D01*
X144937814Y-133032961D01*
X144938145Y-133032991D01*
X144938529Y-133032999D01*
X144938969Y-133032983D01*
X144940024Y-133032880D01*
X144941330Y-133032678D01*
X144942907Y-133032372D01*
X144944776Y-133031957D01*
X144946955Y-133031429D01*
X144949464Y-133030783D01*
X144952324Y-133030015D01*
X144955554Y-133029119D01*
X144963203Y-133026929D01*
X144972569Y-133024175D01*
X144983812Y-133020820D01*
X144997090Y-133016828D01*
X145030382Y-133006785D01*
X145065660Y-132995896D01*
X145095142Y-132986406D01*
X145115738Y-132979327D01*
X145121740Y-132977007D01*
X145124362Y-132975670D01*
X145125647Y-132970717D01*
X145127424Y-132958547D01*
X145132114Y-132916553D01*
X145143700Y-132789913D01*
X145153752Y-132659671D01*
X145156526Y-132613175D01*
X145156906Y-132589749D01*
X145156663Y-132588695D01*
X145156234Y-132588095D01*
X145155615Y-132587953D01*
X145154805Y-132588270D01*
X145153803Y-132589051D01*
X145152607Y-132590298D01*
X145151216Y-132592014D01*
X145149628Y-132594201D01*
X145145854Y-132600006D01*
X145141273Y-132607734D01*
X145135873Y-132617411D01*
X145129640Y-132629060D01*
X145122563Y-132642705D01*
X145114629Y-132658370D01*
X145096139Y-132695856D01*
X145074070Y-132741710D01*
X145048320Y-132796124D01*
X144938704Y-133028137D01*
X144937884Y-133029555D01*
X144937515Y-133030193D01*
X144937199Y-133030778D01*
X144936957Y-133031305D01*
X144936807Y-133031769D01*
X144936773Y-133031977D01*
X144936770Y-133032166D01*
X144095121Y-133032166D01*
X144156353Y-132900378D01*
X144348709Y-132490372D01*
X144623684Y-131903106D01*
X144685894Y-131765270D01*
X144700016Y-131731320D01*
X144703516Y-131719164D01*
X144703161Y-131718938D01*
X144702580Y-131718749D01*
X144700756Y-131718485D01*
X144698094Y-131718365D01*
X144694642Y-131718387D01*
X144690447Y-131718544D01*
X144685560Y-131718834D01*
X144673899Y-131719789D01*
X144660046Y-131721218D01*
X144644390Y-131723082D01*
X144627318Y-131725347D01*
X144609218Y-131727975D01*
X143057437Y-131966576D01*
X143032037Y-131971021D01*
X142906783Y-131971021D01*
X142888447Y-131915379D01*
X142888520Y-131913479D01*
X142888735Y-131911548D01*
X142889088Y-131909590D01*
X142889573Y-131907611D01*
X142890186Y-131905616D01*
X142890922Y-131903609D01*
X142891777Y-131901596D01*
X142892746Y-131899581D01*
X142893824Y-131897570D01*
X142895006Y-131895567D01*
X142897665Y-131891607D01*
X142900683Y-131887740D01*
X142904025Y-131884006D01*
X142907651Y-131880446D01*
X142911524Y-131877098D01*
X142915605Y-131874002D01*
X142919858Y-131871199D01*
X142924243Y-131868729D01*
X142926474Y-131867630D01*
X142928724Y-131866629D01*
X142930988Y-131865732D01*
X142933262Y-131864942D01*
X142935540Y-131864265D01*
X142937819Y-131863706D01*
X143089365Y-131839784D01*
X143428197Y-131787823D01*
X144023510Y-131696383D01*
X144774715Y-131581528D01*
X144775303Y-131580911D01*
X144776453Y-131579102D01*
X144780312Y-131572148D01*
X144786049Y-131561156D01*
X144793418Y-131546613D01*
X144802174Y-131529008D01*
X144812074Y-131508829D01*
X144834325Y-131462704D01*
X144890999Y-131343959D01*
X144943387Y-131324115D01*
X145345104Y-131172112D01*
X145637764Y-131063064D01*
X145853064Y-130986721D01*
X145930820Y-130961119D01*
X145988175Y-130944059D01*
X146024776Y-130935662D01*
X146035183Y-130934750D01*
X146040270Y-130936050D01*
X146040875Y-130936832D01*
X146041454Y-130937948D01*
X146042538Y-130941201D01*
X146043523Y-130945859D01*
X146044411Y-130951970D01*
X146045204Y-130959582D01*
X146045903Y-130968744D01*
X146046510Y-130979504D01*
X146047027Y-130991911D01*
X146047797Y-131021856D01*
X146048228Y-131058968D01*
X146048334Y-131103632D01*
X146048128Y-131156237D01*
X146046699Y-131367215D01*
X146065035Y-131367215D01*
X146071445Y-131366793D01*
X146082754Y-131365639D01*
X146117551Y-131361451D01*
X146164389Y-131355283D01*
X146218229Y-131347769D01*
X146615103Y-131291888D01*
X147043729Y-131232119D01*
X147325530Y-131192908D01*
X147849385Y-131121074D01*
X149325760Y-130918270D01*
X150454294Y-130760304D01*
X151918941Y-130550605D01*
X152090375Y-130526413D01*
X152233256Y-130507267D01*
X152332664Y-130495085D01*
X152361404Y-130492206D01*
X152373680Y-130491789D01*
X152374546Y-130492040D01*
G37*
D11*
X85887044Y-116120000D02*
X104951679Y-116120000D01*
X104951679Y-122565343D01*
X85887044Y-122565343D01*
X85887044Y-116120000D01*
X89650000Y-78340000D02*
X112435912Y-78340000D01*
X112435912Y-85753073D01*
X89650000Y-85753073D01*
X89650000Y-78340000D01*
D12*
X86799023Y-116626895D02*
X87256166Y-116626895D01*
X87027594Y-117426895D02*
X87027594Y-116626895D01*
X87827595Y-117388800D02*
X87751404Y-117426895D01*
X87751404Y-117426895D02*
X87599023Y-117426895D01*
X87599023Y-117426895D02*
X87522833Y-117388800D01*
X87522833Y-117388800D02*
X87484737Y-117312609D01*
X87484737Y-117312609D02*
X87484737Y-117007847D01*
X87484737Y-117007847D02*
X87522833Y-116931657D01*
X87522833Y-116931657D02*
X87599023Y-116893561D01*
X87599023Y-116893561D02*
X87751404Y-116893561D01*
X87751404Y-116893561D02*
X87827595Y-116931657D01*
X87827595Y-116931657D02*
X87865690Y-117007847D01*
X87865690Y-117007847D02*
X87865690Y-117084038D01*
X87865690Y-117084038D02*
X87484737Y-117160228D01*
X88170451Y-117388800D02*
X88246642Y-117426895D01*
X88246642Y-117426895D02*
X88399023Y-117426895D01*
X88399023Y-117426895D02*
X88475213Y-117388800D01*
X88475213Y-117388800D02*
X88513309Y-117312609D01*
X88513309Y-117312609D02*
X88513309Y-117274514D01*
X88513309Y-117274514D02*
X88475213Y-117198323D01*
X88475213Y-117198323D02*
X88399023Y-117160228D01*
X88399023Y-117160228D02*
X88284737Y-117160228D01*
X88284737Y-117160228D02*
X88208547Y-117122133D01*
X88208547Y-117122133D02*
X88170451Y-117045942D01*
X88170451Y-117045942D02*
X88170451Y-117007847D01*
X88170451Y-117007847D02*
X88208547Y-116931657D01*
X88208547Y-116931657D02*
X88284737Y-116893561D01*
X88284737Y-116893561D02*
X88399023Y-116893561D01*
X88399023Y-116893561D02*
X88475213Y-116931657D01*
X88741880Y-116893561D02*
X89046642Y-116893561D01*
X88856166Y-116626895D02*
X88856166Y-117312609D01*
X88856166Y-117312609D02*
X88894261Y-117388800D01*
X88894261Y-117388800D02*
X88970451Y-117426895D01*
X88970451Y-117426895D02*
X89046642Y-117426895D01*
X89922833Y-116893561D02*
X89922833Y-117693561D01*
X89922833Y-116931657D02*
X89999023Y-116893561D01*
X89999023Y-116893561D02*
X90151404Y-116893561D01*
X90151404Y-116893561D02*
X90227595Y-116931657D01*
X90227595Y-116931657D02*
X90265690Y-116969752D01*
X90265690Y-116969752D02*
X90303785Y-117045942D01*
X90303785Y-117045942D02*
X90303785Y-117274514D01*
X90303785Y-117274514D02*
X90265690Y-117350704D01*
X90265690Y-117350704D02*
X90227595Y-117388800D01*
X90227595Y-117388800D02*
X90151404Y-117426895D01*
X90151404Y-117426895D02*
X89999023Y-117426895D01*
X89999023Y-117426895D02*
X89922833Y-117388800D01*
X90760928Y-117426895D02*
X90684738Y-117388800D01*
X90684738Y-117388800D02*
X90646643Y-117350704D01*
X90646643Y-117350704D02*
X90608547Y-117274514D01*
X90608547Y-117274514D02*
X90608547Y-117045942D01*
X90608547Y-117045942D02*
X90646643Y-116969752D01*
X90646643Y-116969752D02*
X90684738Y-116931657D01*
X90684738Y-116931657D02*
X90760928Y-116893561D01*
X90760928Y-116893561D02*
X90875214Y-116893561D01*
X90875214Y-116893561D02*
X90951405Y-116931657D01*
X90951405Y-116931657D02*
X90989500Y-116969752D01*
X90989500Y-116969752D02*
X91027595Y-117045942D01*
X91027595Y-117045942D02*
X91027595Y-117274514D01*
X91027595Y-117274514D02*
X90989500Y-117350704D01*
X90989500Y-117350704D02*
X90951405Y-117388800D01*
X90951405Y-117388800D02*
X90875214Y-117426895D01*
X90875214Y-117426895D02*
X90760928Y-117426895D01*
X91370453Y-117426895D02*
X91370453Y-116893561D01*
X91370453Y-116626895D02*
X91332357Y-116664990D01*
X91332357Y-116664990D02*
X91370453Y-116703085D01*
X91370453Y-116703085D02*
X91408548Y-116664990D01*
X91408548Y-116664990D02*
X91370453Y-116626895D01*
X91370453Y-116626895D02*
X91370453Y-116703085D01*
X91751405Y-116893561D02*
X91751405Y-117426895D01*
X91751405Y-116969752D02*
X91789500Y-116931657D01*
X91789500Y-116931657D02*
X91865690Y-116893561D01*
X91865690Y-116893561D02*
X91979976Y-116893561D01*
X91979976Y-116893561D02*
X92056167Y-116931657D01*
X92056167Y-116931657D02*
X92094262Y-117007847D01*
X92094262Y-117007847D02*
X92094262Y-117426895D01*
X92360929Y-116893561D02*
X92665691Y-116893561D01*
X92475215Y-116626895D02*
X92475215Y-117312609D01*
X92475215Y-117312609D02*
X92513310Y-117388800D01*
X92513310Y-117388800D02*
X92589500Y-117426895D01*
X92589500Y-117426895D02*
X92665691Y-117426895D01*
X92894262Y-117388800D02*
X92970453Y-117426895D01*
X92970453Y-117426895D02*
X93122834Y-117426895D01*
X93122834Y-117426895D02*
X93199024Y-117388800D01*
X93199024Y-117388800D02*
X93237120Y-117312609D01*
X93237120Y-117312609D02*
X93237120Y-117274514D01*
X93237120Y-117274514D02*
X93199024Y-117198323D01*
X93199024Y-117198323D02*
X93122834Y-117160228D01*
X93122834Y-117160228D02*
X93008548Y-117160228D01*
X93008548Y-117160228D02*
X92932358Y-117122133D01*
X92932358Y-117122133D02*
X92894262Y-117045942D01*
X92894262Y-117045942D02*
X92894262Y-117007847D01*
X92894262Y-117007847D02*
X92932358Y-116931657D01*
X92932358Y-116931657D02*
X93008548Y-116893561D01*
X93008548Y-116893561D02*
X93122834Y-116893561D01*
X93122834Y-116893561D02*
X93199024Y-116931657D01*
X90561979Y-79416895D02*
X91019122Y-79416895D01*
X90790550Y-80216895D02*
X90790550Y-79416895D01*
X91590551Y-80178800D02*
X91514360Y-80216895D01*
X91514360Y-80216895D02*
X91361979Y-80216895D01*
X91361979Y-80216895D02*
X91285789Y-80178800D01*
X91285789Y-80178800D02*
X91247693Y-80102609D01*
X91247693Y-80102609D02*
X91247693Y-79797847D01*
X91247693Y-79797847D02*
X91285789Y-79721657D01*
X91285789Y-79721657D02*
X91361979Y-79683561D01*
X91361979Y-79683561D02*
X91514360Y-79683561D01*
X91514360Y-79683561D02*
X91590551Y-79721657D01*
X91590551Y-79721657D02*
X91628646Y-79797847D01*
X91628646Y-79797847D02*
X91628646Y-79874038D01*
X91628646Y-79874038D02*
X91247693Y-79950228D01*
X91933407Y-80178800D02*
X92009598Y-80216895D01*
X92009598Y-80216895D02*
X92161979Y-80216895D01*
X92161979Y-80216895D02*
X92238169Y-80178800D01*
X92238169Y-80178800D02*
X92276265Y-80102609D01*
X92276265Y-80102609D02*
X92276265Y-80064514D01*
X92276265Y-80064514D02*
X92238169Y-79988323D01*
X92238169Y-79988323D02*
X92161979Y-79950228D01*
X92161979Y-79950228D02*
X92047693Y-79950228D01*
X92047693Y-79950228D02*
X91971503Y-79912133D01*
X91971503Y-79912133D02*
X91933407Y-79835942D01*
X91933407Y-79835942D02*
X91933407Y-79797847D01*
X91933407Y-79797847D02*
X91971503Y-79721657D01*
X91971503Y-79721657D02*
X92047693Y-79683561D01*
X92047693Y-79683561D02*
X92161979Y-79683561D01*
X92161979Y-79683561D02*
X92238169Y-79721657D01*
X92504836Y-79683561D02*
X92809598Y-79683561D01*
X92619122Y-79416895D02*
X92619122Y-80102609D01*
X92619122Y-80102609D02*
X92657217Y-80178800D01*
X92657217Y-80178800D02*
X92733407Y-80216895D01*
X92733407Y-80216895D02*
X92809598Y-80216895D01*
X93685789Y-79683561D02*
X93685789Y-80483561D01*
X93685789Y-79721657D02*
X93761979Y-79683561D01*
X93761979Y-79683561D02*
X93914360Y-79683561D01*
X93914360Y-79683561D02*
X93990551Y-79721657D01*
X93990551Y-79721657D02*
X94028646Y-79759752D01*
X94028646Y-79759752D02*
X94066741Y-79835942D01*
X94066741Y-79835942D02*
X94066741Y-80064514D01*
X94066741Y-80064514D02*
X94028646Y-80140704D01*
X94028646Y-80140704D02*
X93990551Y-80178800D01*
X93990551Y-80178800D02*
X93914360Y-80216895D01*
X93914360Y-80216895D02*
X93761979Y-80216895D01*
X93761979Y-80216895D02*
X93685789Y-80178800D01*
X94523884Y-80216895D02*
X94447694Y-80178800D01*
X94447694Y-80178800D02*
X94409599Y-80140704D01*
X94409599Y-80140704D02*
X94371503Y-80064514D01*
X94371503Y-80064514D02*
X94371503Y-79835942D01*
X94371503Y-79835942D02*
X94409599Y-79759752D01*
X94409599Y-79759752D02*
X94447694Y-79721657D01*
X94447694Y-79721657D02*
X94523884Y-79683561D01*
X94523884Y-79683561D02*
X94638170Y-79683561D01*
X94638170Y-79683561D02*
X94714361Y-79721657D01*
X94714361Y-79721657D02*
X94752456Y-79759752D01*
X94752456Y-79759752D02*
X94790551Y-79835942D01*
X94790551Y-79835942D02*
X94790551Y-80064514D01*
X94790551Y-80064514D02*
X94752456Y-80140704D01*
X94752456Y-80140704D02*
X94714361Y-80178800D01*
X94714361Y-80178800D02*
X94638170Y-80216895D01*
X94638170Y-80216895D02*
X94523884Y-80216895D01*
X95133409Y-80216895D02*
X95133409Y-79683561D01*
X95133409Y-79416895D02*
X95095313Y-79454990D01*
X95095313Y-79454990D02*
X95133409Y-79493085D01*
X95133409Y-79493085D02*
X95171504Y-79454990D01*
X95171504Y-79454990D02*
X95133409Y-79416895D01*
X95133409Y-79416895D02*
X95133409Y-79493085D01*
X95514361Y-79683561D02*
X95514361Y-80216895D01*
X95514361Y-79759752D02*
X95552456Y-79721657D01*
X95552456Y-79721657D02*
X95628646Y-79683561D01*
X95628646Y-79683561D02*
X95742932Y-79683561D01*
X95742932Y-79683561D02*
X95819123Y-79721657D01*
X95819123Y-79721657D02*
X95857218Y-79797847D01*
X95857218Y-79797847D02*
X95857218Y-80216895D01*
X96123885Y-79683561D02*
X96428647Y-79683561D01*
X96238171Y-79416895D02*
X96238171Y-80102609D01*
X96238171Y-80102609D02*
X96276266Y-80178800D01*
X96276266Y-80178800D02*
X96352456Y-80216895D01*
X96352456Y-80216895D02*
X96428647Y-80216895D01*
X96657218Y-80178800D02*
X96733409Y-80216895D01*
X96733409Y-80216895D02*
X96885790Y-80216895D01*
X96885790Y-80216895D02*
X96961980Y-80178800D01*
X96961980Y-80178800D02*
X97000076Y-80102609D01*
X97000076Y-80102609D02*
X97000076Y-80064514D01*
X97000076Y-80064514D02*
X96961980Y-79988323D01*
X96961980Y-79988323D02*
X96885790Y-79950228D01*
X96885790Y-79950228D02*
X96771504Y-79950228D01*
X96771504Y-79950228D02*
X96695314Y-79912133D01*
X96695314Y-79912133D02*
X96657218Y-79835942D01*
X96657218Y-79835942D02*
X96657218Y-79797847D01*
X96657218Y-79797847D02*
X96695314Y-79721657D01*
X96695314Y-79721657D02*
X96771504Y-79683561D01*
X96771504Y-79683561D02*
X96885790Y-79683561D01*
X96885790Y-79683561D02*
X96961980Y-79721657D01*
D13*
X100236428Y-141426009D02*
X100379285Y-141473628D01*
X100379285Y-141473628D02*
X100426904Y-141521247D01*
X100426904Y-141521247D02*
X100474523Y-141616485D01*
X100474523Y-141616485D02*
X100474523Y-141759342D01*
X100474523Y-141759342D02*
X100426904Y-141854580D01*
X100426904Y-141854580D02*
X100379285Y-141902200D01*
X100379285Y-141902200D02*
X100284047Y-141949819D01*
X100284047Y-141949819D02*
X99903095Y-141949819D01*
X99903095Y-141949819D02*
X99903095Y-140949819D01*
X99903095Y-140949819D02*
X100236428Y-140949819D01*
X100236428Y-140949819D02*
X100331666Y-140997438D01*
X100331666Y-140997438D02*
X100379285Y-141045057D01*
X100379285Y-141045057D02*
X100426904Y-141140295D01*
X100426904Y-141140295D02*
X100426904Y-141235533D01*
X100426904Y-141235533D02*
X100379285Y-141330771D01*
X100379285Y-141330771D02*
X100331666Y-141378390D01*
X100331666Y-141378390D02*
X100236428Y-141426009D01*
X100236428Y-141426009D02*
X99903095Y-141426009D01*
X102466905Y-141664104D02*
X102943095Y-141664104D01*
X102371667Y-141949819D02*
X102705000Y-140949819D01*
X102705000Y-140949819D02*
X103038333Y-141949819D01*
X117161428Y-141426009D02*
X117304285Y-141473628D01*
X117304285Y-141473628D02*
X117351904Y-141521247D01*
X117351904Y-141521247D02*
X117399523Y-141616485D01*
X117399523Y-141616485D02*
X117399523Y-141759342D01*
X117399523Y-141759342D02*
X117351904Y-141854580D01*
X117351904Y-141854580D02*
X117304285Y-141902200D01*
X117304285Y-141902200D02*
X117209047Y-141949819D01*
X117209047Y-141949819D02*
X116828095Y-141949819D01*
X116828095Y-141949819D02*
X116828095Y-140949819D01*
X116828095Y-140949819D02*
X117161428Y-140949819D01*
X117161428Y-140949819D02*
X117256666Y-140997438D01*
X117256666Y-140997438D02*
X117304285Y-141045057D01*
X117304285Y-141045057D02*
X117351904Y-141140295D01*
X117351904Y-141140295D02*
X117351904Y-141235533D01*
X117351904Y-141235533D02*
X117304285Y-141330771D01*
X117304285Y-141330771D02*
X117256666Y-141378390D01*
X117256666Y-141378390D02*
X117161428Y-141426009D01*
X117161428Y-141426009D02*
X116828095Y-141426009D01*
X119391905Y-141664104D02*
X119868095Y-141664104D01*
X119296667Y-141949819D02*
X119630000Y-140949819D01*
X119630000Y-140949819D02*
X119963333Y-141949819D01*
X138542857Y-129264104D02*
X139019047Y-129264104D01*
X138447619Y-129549819D02*
X138780952Y-128549819D01*
X138780952Y-128549819D02*
X139114285Y-129549819D01*
X139447619Y-129168866D02*
X140209524Y-129168866D01*
X139828571Y-129549819D02*
X139828571Y-128787914D01*
X141082857Y-129264104D02*
X141559047Y-129264104D01*
X140987619Y-129549819D02*
X141320952Y-128549819D01*
X141320952Y-128549819D02*
X141654285Y-129549819D01*
X141987619Y-129168866D02*
X142749524Y-129168866D01*
X143932381Y-129026009D02*
X144075238Y-129073628D01*
X144075238Y-129073628D02*
X144122857Y-129121247D01*
X144122857Y-129121247D02*
X144170476Y-129216485D01*
X144170476Y-129216485D02*
X144170476Y-129359342D01*
X144170476Y-129359342D02*
X144122857Y-129454580D01*
X144122857Y-129454580D02*
X144075238Y-129502200D01*
X144075238Y-129502200D02*
X143980000Y-129549819D01*
X143980000Y-129549819D02*
X143599048Y-129549819D01*
X143599048Y-129549819D02*
X143599048Y-128549819D01*
X143599048Y-128549819D02*
X143932381Y-128549819D01*
X143932381Y-128549819D02*
X144027619Y-128597438D01*
X144027619Y-128597438D02*
X144075238Y-128645057D01*
X144075238Y-128645057D02*
X144122857Y-128740295D01*
X144122857Y-128740295D02*
X144122857Y-128835533D01*
X144122857Y-128835533D02*
X144075238Y-128930771D01*
X144075238Y-128930771D02*
X144027619Y-128978390D01*
X144027619Y-128978390D02*
X143932381Y-129026009D01*
X143932381Y-129026009D02*
X143599048Y-129026009D01*
X144599048Y-129168866D02*
X145360953Y-129168866D01*
X144980000Y-129549819D02*
X144980000Y-128787914D01*
X146472381Y-129026009D02*
X146615238Y-129073628D01*
X146615238Y-129073628D02*
X146662857Y-129121247D01*
X146662857Y-129121247D02*
X146710476Y-129216485D01*
X146710476Y-129216485D02*
X146710476Y-129359342D01*
X146710476Y-129359342D02*
X146662857Y-129454580D01*
X146662857Y-129454580D02*
X146615238Y-129502200D01*
X146615238Y-129502200D02*
X146520000Y-129549819D01*
X146520000Y-129549819D02*
X146139048Y-129549819D01*
X146139048Y-129549819D02*
X146139048Y-128549819D01*
X146139048Y-128549819D02*
X146472381Y-128549819D01*
X146472381Y-128549819D02*
X146567619Y-128597438D01*
X146567619Y-128597438D02*
X146615238Y-128645057D01*
X146615238Y-128645057D02*
X146662857Y-128740295D01*
X146662857Y-128740295D02*
X146662857Y-128835533D01*
X146662857Y-128835533D02*
X146615238Y-128930771D01*
X146615238Y-128930771D02*
X146567619Y-128978390D01*
X146567619Y-128978390D02*
X146472381Y-129026009D01*
X146472381Y-129026009D02*
X146139048Y-129026009D01*
X147139048Y-129168866D02*
X147900953Y-129168866D01*
X104797438Y-142841904D02*
X104749819Y-142937142D01*
X104749819Y-142937142D02*
X104749819Y-143079999D01*
X104749819Y-143079999D02*
X104797438Y-143222856D01*
X104797438Y-143222856D02*
X104892676Y-143318094D01*
X104892676Y-143318094D02*
X104987914Y-143365713D01*
X104987914Y-143365713D02*
X105178390Y-143413332D01*
X105178390Y-143413332D02*
X105321247Y-143413332D01*
X105321247Y-143413332D02*
X105511723Y-143365713D01*
X105511723Y-143365713D02*
X105606961Y-143318094D01*
X105606961Y-143318094D02*
X105702200Y-143222856D01*
X105702200Y-143222856D02*
X105749819Y-143079999D01*
X105749819Y-143079999D02*
X105749819Y-142984761D01*
X105749819Y-142984761D02*
X105702200Y-142841904D01*
X105702200Y-142841904D02*
X105654580Y-142794285D01*
X105654580Y-142794285D02*
X105321247Y-142794285D01*
X105321247Y-142794285D02*
X105321247Y-142984761D01*
X105749819Y-142365713D02*
X104749819Y-142365713D01*
X104749819Y-142365713D02*
X105749819Y-141794285D01*
X105749819Y-141794285D02*
X104749819Y-141794285D01*
X105749819Y-141318094D02*
X104749819Y-141318094D01*
X104749819Y-141318094D02*
X104749819Y-141079999D01*
X104749819Y-141079999D02*
X104797438Y-140937142D01*
X104797438Y-140937142D02*
X104892676Y-140841904D01*
X104892676Y-140841904D02*
X104987914Y-140794285D01*
X104987914Y-140794285D02*
X105178390Y-140746666D01*
X105178390Y-140746666D02*
X105321247Y-140746666D01*
X105321247Y-140746666D02*
X105511723Y-140794285D01*
X105511723Y-140794285D02*
X105606961Y-140841904D01*
X105606961Y-140841904D02*
X105702200Y-140937142D01*
X105702200Y-140937142D02*
X105749819Y-141079999D01*
X105749819Y-141079999D02*
X105749819Y-141318094D01*
X107339819Y-141945476D02*
X107339819Y-142421666D01*
X107339819Y-142421666D02*
X107816009Y-142469285D01*
X107816009Y-142469285D02*
X107768390Y-142421666D01*
X107768390Y-142421666D02*
X107720771Y-142326428D01*
X107720771Y-142326428D02*
X107720771Y-142088333D01*
X107720771Y-142088333D02*
X107768390Y-141993095D01*
X107768390Y-141993095D02*
X107816009Y-141945476D01*
X107816009Y-141945476D02*
X107911247Y-141897857D01*
X107911247Y-141897857D02*
X108149342Y-141897857D01*
X108149342Y-141897857D02*
X108244580Y-141945476D01*
X108244580Y-141945476D02*
X108292200Y-141993095D01*
X108292200Y-141993095D02*
X108339819Y-142088333D01*
X108339819Y-142088333D02*
X108339819Y-142326428D01*
X108339819Y-142326428D02*
X108292200Y-142421666D01*
X108292200Y-142421666D02*
X108244580Y-142469285D01*
X107339819Y-141612142D02*
X108339819Y-141278809D01*
X108339819Y-141278809D02*
X107339819Y-140945476D01*
X121722438Y-142841904D02*
X121674819Y-142937142D01*
X121674819Y-142937142D02*
X121674819Y-143079999D01*
X121674819Y-143079999D02*
X121722438Y-143222856D01*
X121722438Y-143222856D02*
X121817676Y-143318094D01*
X121817676Y-143318094D02*
X121912914Y-143365713D01*
X121912914Y-143365713D02*
X122103390Y-143413332D01*
X122103390Y-143413332D02*
X122246247Y-143413332D01*
X122246247Y-143413332D02*
X122436723Y-143365713D01*
X122436723Y-143365713D02*
X122531961Y-143318094D01*
X122531961Y-143318094D02*
X122627200Y-143222856D01*
X122627200Y-143222856D02*
X122674819Y-143079999D01*
X122674819Y-143079999D02*
X122674819Y-142984761D01*
X122674819Y-142984761D02*
X122627200Y-142841904D01*
X122627200Y-142841904D02*
X122579580Y-142794285D01*
X122579580Y-142794285D02*
X122246247Y-142794285D01*
X122246247Y-142794285D02*
X122246247Y-142984761D01*
X122674819Y-142365713D02*
X121674819Y-142365713D01*
X121674819Y-142365713D02*
X122674819Y-141794285D01*
X122674819Y-141794285D02*
X121674819Y-141794285D01*
X122674819Y-141318094D02*
X121674819Y-141318094D01*
X121674819Y-141318094D02*
X121674819Y-141079999D01*
X121674819Y-141079999D02*
X121722438Y-140937142D01*
X121722438Y-140937142D02*
X121817676Y-140841904D01*
X121817676Y-140841904D02*
X121912914Y-140794285D01*
X121912914Y-140794285D02*
X122103390Y-140746666D01*
X122103390Y-140746666D02*
X122246247Y-140746666D01*
X122246247Y-140746666D02*
X122436723Y-140794285D01*
X122436723Y-140794285D02*
X122531961Y-140841904D01*
X122531961Y-140841904D02*
X122627200Y-140937142D01*
X122627200Y-140937142D02*
X122674819Y-141079999D01*
X122674819Y-141079999D02*
X122674819Y-141318094D01*
X124264819Y-141945476D02*
X124264819Y-142421666D01*
X124264819Y-142421666D02*
X124741009Y-142469285D01*
X124741009Y-142469285D02*
X124693390Y-142421666D01*
X124693390Y-142421666D02*
X124645771Y-142326428D01*
X124645771Y-142326428D02*
X124645771Y-142088333D01*
X124645771Y-142088333D02*
X124693390Y-141993095D01*
X124693390Y-141993095D02*
X124741009Y-141945476D01*
X124741009Y-141945476D02*
X124836247Y-141897857D01*
X124836247Y-141897857D02*
X125074342Y-141897857D01*
X125074342Y-141897857D02*
X125169580Y-141945476D01*
X125169580Y-141945476D02*
X125217200Y-141993095D01*
X125217200Y-141993095D02*
X125264819Y-142088333D01*
X125264819Y-142088333D02*
X125264819Y-142326428D01*
X125264819Y-142326428D02*
X125217200Y-142421666D01*
X125217200Y-142421666D02*
X125169580Y-142469285D01*
X124264819Y-141612142D02*
X125264819Y-141278809D01*
X125264819Y-141278809D02*
X124264819Y-140945476D01*
X134442200Y-143270475D02*
X134489819Y-143127618D01*
X134489819Y-143127618D02*
X134489819Y-142889523D01*
X134489819Y-142889523D02*
X134442200Y-142794285D01*
X134442200Y-142794285D02*
X134394580Y-142746666D01*
X134394580Y-142746666D02*
X134299342Y-142699047D01*
X134299342Y-142699047D02*
X134204104Y-142699047D01*
X134204104Y-142699047D02*
X134108866Y-142746666D01*
X134108866Y-142746666D02*
X134061247Y-142794285D01*
X134061247Y-142794285D02*
X134013628Y-142889523D01*
X134013628Y-142889523D02*
X133966009Y-143079999D01*
X133966009Y-143079999D02*
X133918390Y-143175237D01*
X133918390Y-143175237D02*
X133870771Y-143222856D01*
X133870771Y-143222856D02*
X133775533Y-143270475D01*
X133775533Y-143270475D02*
X133680295Y-143270475D01*
X133680295Y-143270475D02*
X133585057Y-143222856D01*
X133585057Y-143222856D02*
X133537438Y-143175237D01*
X133537438Y-143175237D02*
X133489819Y-143079999D01*
X133489819Y-143079999D02*
X133489819Y-142841904D01*
X133489819Y-142841904D02*
X133537438Y-142699047D01*
X134394580Y-141699047D02*
X134442200Y-141746666D01*
X134442200Y-141746666D02*
X134489819Y-141889523D01*
X134489819Y-141889523D02*
X134489819Y-141984761D01*
X134489819Y-141984761D02*
X134442200Y-142127618D01*
X134442200Y-142127618D02*
X134346961Y-142222856D01*
X134346961Y-142222856D02*
X134251723Y-142270475D01*
X134251723Y-142270475D02*
X134061247Y-142318094D01*
X134061247Y-142318094D02*
X133918390Y-142318094D01*
X133918390Y-142318094D02*
X133727914Y-142270475D01*
X133727914Y-142270475D02*
X133632676Y-142222856D01*
X133632676Y-142222856D02*
X133537438Y-142127618D01*
X133537438Y-142127618D02*
X133489819Y-141984761D01*
X133489819Y-141984761D02*
X133489819Y-141889523D01*
X133489819Y-141889523D02*
X133537438Y-141746666D01*
X133537438Y-141746666D02*
X133585057Y-141699047D01*
X134489819Y-140794285D02*
X134489819Y-141270475D01*
X134489819Y-141270475D02*
X133489819Y-141270475D01*
X137017200Y-143319285D02*
X137064819Y-143176428D01*
X137064819Y-143176428D02*
X137064819Y-142938333D01*
X137064819Y-142938333D02*
X137017200Y-142843095D01*
X137017200Y-142843095D02*
X136969580Y-142795476D01*
X136969580Y-142795476D02*
X136874342Y-142747857D01*
X136874342Y-142747857D02*
X136779104Y-142747857D01*
X136779104Y-142747857D02*
X136683866Y-142795476D01*
X136683866Y-142795476D02*
X136636247Y-142843095D01*
X136636247Y-142843095D02*
X136588628Y-142938333D01*
X136588628Y-142938333D02*
X136541009Y-143128809D01*
X136541009Y-143128809D02*
X136493390Y-143224047D01*
X136493390Y-143224047D02*
X136445771Y-143271666D01*
X136445771Y-143271666D02*
X136350533Y-143319285D01*
X136350533Y-143319285D02*
X136255295Y-143319285D01*
X136255295Y-143319285D02*
X136160057Y-143271666D01*
X136160057Y-143271666D02*
X136112438Y-143224047D01*
X136112438Y-143224047D02*
X136064819Y-143128809D01*
X136064819Y-143128809D02*
X136064819Y-142890714D01*
X136064819Y-142890714D02*
X136112438Y-142747857D01*
X137064819Y-142319285D02*
X136064819Y-142319285D01*
X136064819Y-142319285D02*
X136064819Y-142081190D01*
X136064819Y-142081190D02*
X136112438Y-141938333D01*
X136112438Y-141938333D02*
X136207676Y-141843095D01*
X136207676Y-141843095D02*
X136302914Y-141795476D01*
X136302914Y-141795476D02*
X136493390Y-141747857D01*
X136493390Y-141747857D02*
X136636247Y-141747857D01*
X136636247Y-141747857D02*
X136826723Y-141795476D01*
X136826723Y-141795476D02*
X136921961Y-141843095D01*
X136921961Y-141843095D02*
X137017200Y-141938333D01*
X137017200Y-141938333D02*
X137064819Y-142081190D01*
X137064819Y-142081190D02*
X137064819Y-142319285D01*
X136779104Y-141366904D02*
X136779104Y-140890714D01*
X137064819Y-141462142D02*
X136064819Y-141128809D01*
X136064819Y-141128809D02*
X137064819Y-140795476D01*
X138722438Y-142841904D02*
X138674819Y-142937142D01*
X138674819Y-142937142D02*
X138674819Y-143079999D01*
X138674819Y-143079999D02*
X138722438Y-143222856D01*
X138722438Y-143222856D02*
X138817676Y-143318094D01*
X138817676Y-143318094D02*
X138912914Y-143365713D01*
X138912914Y-143365713D02*
X139103390Y-143413332D01*
X139103390Y-143413332D02*
X139246247Y-143413332D01*
X139246247Y-143413332D02*
X139436723Y-143365713D01*
X139436723Y-143365713D02*
X139531961Y-143318094D01*
X139531961Y-143318094D02*
X139627200Y-143222856D01*
X139627200Y-143222856D02*
X139674819Y-143079999D01*
X139674819Y-143079999D02*
X139674819Y-142984761D01*
X139674819Y-142984761D02*
X139627200Y-142841904D01*
X139627200Y-142841904D02*
X139579580Y-142794285D01*
X139579580Y-142794285D02*
X139246247Y-142794285D01*
X139246247Y-142794285D02*
X139246247Y-142984761D01*
X139674819Y-142365713D02*
X138674819Y-142365713D01*
X138674819Y-142365713D02*
X139674819Y-141794285D01*
X139674819Y-141794285D02*
X138674819Y-141794285D01*
X139674819Y-141318094D02*
X138674819Y-141318094D01*
X138674819Y-141318094D02*
X138674819Y-141079999D01*
X138674819Y-141079999D02*
X138722438Y-140937142D01*
X138722438Y-140937142D02*
X138817676Y-140841904D01*
X138817676Y-140841904D02*
X138912914Y-140794285D01*
X138912914Y-140794285D02*
X139103390Y-140746666D01*
X139103390Y-140746666D02*
X139246247Y-140746666D01*
X139246247Y-140746666D02*
X139436723Y-140794285D01*
X139436723Y-140794285D02*
X139531961Y-140841904D01*
X139531961Y-140841904D02*
X139627200Y-140937142D01*
X139627200Y-140937142D02*
X139674819Y-141079999D01*
X139674819Y-141079999D02*
X139674819Y-141318094D01*
X141264819Y-142993094D02*
X141264819Y-142374047D01*
X141264819Y-142374047D02*
X141645771Y-142707380D01*
X141645771Y-142707380D02*
X141645771Y-142564523D01*
X141645771Y-142564523D02*
X141693390Y-142469285D01*
X141693390Y-142469285D02*
X141741009Y-142421666D01*
X141741009Y-142421666D02*
X141836247Y-142374047D01*
X141836247Y-142374047D02*
X142074342Y-142374047D01*
X142074342Y-142374047D02*
X142169580Y-142421666D01*
X142169580Y-142421666D02*
X142217200Y-142469285D01*
X142217200Y-142469285D02*
X142264819Y-142564523D01*
X142264819Y-142564523D02*
X142264819Y-142850237D01*
X142264819Y-142850237D02*
X142217200Y-142945475D01*
X142217200Y-142945475D02*
X142169580Y-142993094D01*
X141264819Y-142088332D02*
X142264819Y-141754999D01*
X142264819Y-141754999D02*
X141264819Y-141421666D01*
X141264819Y-141183570D02*
X141264819Y-140564523D01*
X141264819Y-140564523D02*
X141645771Y-140897856D01*
X141645771Y-140897856D02*
X141645771Y-140754999D01*
X141645771Y-140754999D02*
X141693390Y-140659761D01*
X141693390Y-140659761D02*
X141741009Y-140612142D01*
X141741009Y-140612142D02*
X141836247Y-140564523D01*
X141836247Y-140564523D02*
X142074342Y-140564523D01*
X142074342Y-140564523D02*
X142169580Y-140612142D01*
X142169580Y-140612142D02*
X142217200Y-140659761D01*
X142217200Y-140659761D02*
X142264819Y-140754999D01*
X142264819Y-140754999D02*
X142264819Y-141040713D01*
X142264819Y-141040713D02*
X142217200Y-141135951D01*
X142217200Y-141135951D02*
X142169580Y-141183570D01*
D11*
X143192586Y-136318622D02*
X143192586Y-135318622D01*
X143192586Y-135699574D02*
X143287824Y-135651955D01*
X143287824Y-135651955D02*
X143478300Y-135651955D01*
X143478300Y-135651955D02*
X143573538Y-135699574D01*
X143573538Y-135699574D02*
X143621157Y-135747193D01*
X143621157Y-135747193D02*
X143668776Y-135842431D01*
X143668776Y-135842431D02*
X143668776Y-136128145D01*
X143668776Y-136128145D02*
X143621157Y-136223383D01*
X143621157Y-136223383D02*
X143573538Y-136271003D01*
X143573538Y-136271003D02*
X143478300Y-136318622D01*
X143478300Y-136318622D02*
X143287824Y-136318622D01*
X143287824Y-136318622D02*
X143192586Y-136271003D01*
X144002110Y-135651955D02*
X144240205Y-136318622D01*
X144478300Y-135651955D02*
X144240205Y-136318622D01*
X144240205Y-136318622D02*
X144144967Y-136556717D01*
X144144967Y-136556717D02*
X144097348Y-136604336D01*
X144097348Y-136604336D02*
X144002110Y-136651955D01*
X145621158Y-136318622D02*
X145621158Y-135318622D01*
X145621158Y-135318622D02*
X145954491Y-136032907D01*
X145954491Y-136032907D02*
X146287824Y-135318622D01*
X146287824Y-135318622D02*
X146287824Y-136318622D01*
X147240205Y-136318622D02*
X146764015Y-136318622D01*
X146764015Y-136318622D02*
X146764015Y-135318622D01*
X147335444Y-136413860D02*
X148097348Y-136413860D01*
X148287825Y-136032907D02*
X148764015Y-136032907D01*
X148192587Y-136318622D02*
X148525920Y-135318622D01*
X148525920Y-135318622D02*
X148859253Y-136318622D01*
X149621158Y-136271003D02*
X149525920Y-136318622D01*
X149525920Y-136318622D02*
X149335444Y-136318622D01*
X149335444Y-136318622D02*
X149240206Y-136271003D01*
X149240206Y-136271003D02*
X149192587Y-136223383D01*
X149192587Y-136223383D02*
X149144968Y-136128145D01*
X149144968Y-136128145D02*
X149144968Y-135842431D01*
X149144968Y-135842431D02*
X149192587Y-135747193D01*
X149192587Y-135747193D02*
X149240206Y-135699574D01*
X149240206Y-135699574D02*
X149335444Y-135651955D01*
X149335444Y-135651955D02*
X149525920Y-135651955D01*
X149525920Y-135651955D02*
X149621158Y-135699574D01*
X150049730Y-136318622D02*
X150049730Y-135651955D01*
X150049730Y-135747193D02*
X150097349Y-135699574D01*
X150097349Y-135699574D02*
X150192587Y-135651955D01*
X150192587Y-135651955D02*
X150335444Y-135651955D01*
X150335444Y-135651955D02*
X150430682Y-135699574D01*
X150430682Y-135699574D02*
X150478301Y-135794812D01*
X150478301Y-135794812D02*
X150478301Y-136318622D01*
X150478301Y-135794812D02*
X150525920Y-135699574D01*
X150525920Y-135699574D02*
X150621158Y-135651955D01*
X150621158Y-135651955D02*
X150764015Y-135651955D01*
X150764015Y-135651955D02*
X150859254Y-135699574D01*
X150859254Y-135699574D02*
X150906873Y-135794812D01*
X150906873Y-135794812D02*
X150906873Y-136318622D01*
X151764015Y-136271003D02*
X151668777Y-136318622D01*
X151668777Y-136318622D02*
X151478301Y-136318622D01*
X151478301Y-136318622D02*
X151383063Y-136271003D01*
X151383063Y-136271003D02*
X151335444Y-136175764D01*
X151335444Y-136175764D02*
X151335444Y-135794812D01*
X151335444Y-135794812D02*
X151383063Y-135699574D01*
X151383063Y-135699574D02*
X151478301Y-135651955D01*
X151478301Y-135651955D02*
X151668777Y-135651955D01*
X151668777Y-135651955D02*
X151764015Y-135699574D01*
X151764015Y-135699574D02*
X151811634Y-135794812D01*
X151811634Y-135794812D02*
X151811634Y-135890050D01*
X151811634Y-135890050D02*
X151335444Y-135985288D01*
D13*
X149411666Y-62344819D02*
X149411666Y-63059104D01*
X149411666Y-63059104D02*
X149364047Y-63201961D01*
X149364047Y-63201961D02*
X149268809Y-63297200D01*
X149268809Y-63297200D02*
X149125952Y-63344819D01*
X149125952Y-63344819D02*
X149030714Y-63344819D01*
X149935476Y-63344819D02*
X150125952Y-63344819D01*
X150125952Y-63344819D02*
X150221190Y-63297200D01*
X150221190Y-63297200D02*
X150268809Y-63249580D01*
X150268809Y-63249580D02*
X150364047Y-63106723D01*
X150364047Y-63106723D02*
X150411666Y-62916247D01*
X150411666Y-62916247D02*
X150411666Y-62535295D01*
X150411666Y-62535295D02*
X150364047Y-62440057D01*
X150364047Y-62440057D02*
X150316428Y-62392438D01*
X150316428Y-62392438D02*
X150221190Y-62344819D01*
X150221190Y-62344819D02*
X150030714Y-62344819D01*
X150030714Y-62344819D02*
X149935476Y-62392438D01*
X149935476Y-62392438D02*
X149887857Y-62440057D01*
X149887857Y-62440057D02*
X149840238Y-62535295D01*
X149840238Y-62535295D02*
X149840238Y-62773390D01*
X149840238Y-62773390D02*
X149887857Y-62868628D01*
X149887857Y-62868628D02*
X149935476Y-62916247D01*
X149935476Y-62916247D02*
X150030714Y-62963866D01*
X150030714Y-62963866D02*
X150221190Y-62963866D01*
X150221190Y-62963866D02*
X150316428Y-62916247D01*
X150316428Y-62916247D02*
X150364047Y-62868628D01*
X150364047Y-62868628D02*
X150411666Y-62773390D01*
X99931009Y-109988094D02*
X99931009Y-109654761D01*
X100454819Y-109511904D02*
X100454819Y-109988094D01*
X100454819Y-109988094D02*
X99454819Y-109988094D01*
X99454819Y-109988094D02*
X99454819Y-109511904D01*
X100407200Y-109130951D02*
X100454819Y-108988094D01*
X100454819Y-108988094D02*
X100454819Y-108749999D01*
X100454819Y-108749999D02*
X100407200Y-108654761D01*
X100407200Y-108654761D02*
X100359580Y-108607142D01*
X100359580Y-108607142D02*
X100264342Y-108559523D01*
X100264342Y-108559523D02*
X100169104Y-108559523D01*
X100169104Y-108559523D02*
X100073866Y-108607142D01*
X100073866Y-108607142D02*
X100026247Y-108654761D01*
X100026247Y-108654761D02*
X99978628Y-108749999D01*
X99978628Y-108749999D02*
X99931009Y-108940475D01*
X99931009Y-108940475D02*
X99883390Y-109035713D01*
X99883390Y-109035713D02*
X99835771Y-109083332D01*
X99835771Y-109083332D02*
X99740533Y-109130951D01*
X99740533Y-109130951D02*
X99645295Y-109130951D01*
X99645295Y-109130951D02*
X99550057Y-109083332D01*
X99550057Y-109083332D02*
X99502438Y-109035713D01*
X99502438Y-109035713D02*
X99454819Y-108940475D01*
X99454819Y-108940475D02*
X99454819Y-108702380D01*
X99454819Y-108702380D02*
X99502438Y-108559523D01*
X100454819Y-108130951D02*
X99454819Y-108130951D01*
X99454819Y-108130951D02*
X99454819Y-107749999D01*
X99454819Y-107749999D02*
X99502438Y-107654761D01*
X99502438Y-107654761D02*
X99550057Y-107607142D01*
X99550057Y-107607142D02*
X99645295Y-107559523D01*
X99645295Y-107559523D02*
X99788152Y-107559523D01*
X99788152Y-107559523D02*
X99883390Y-107607142D01*
X99883390Y-107607142D02*
X99931009Y-107654761D01*
X99931009Y-107654761D02*
X99978628Y-107749999D01*
X99978628Y-107749999D02*
X99978628Y-108130951D01*
X99454819Y-107226189D02*
X99454819Y-106607142D01*
X99454819Y-106607142D02*
X99835771Y-106940475D01*
X99835771Y-106940475D02*
X99835771Y-106797618D01*
X99835771Y-106797618D02*
X99883390Y-106702380D01*
X99883390Y-106702380D02*
X99931009Y-106654761D01*
X99931009Y-106654761D02*
X100026247Y-106607142D01*
X100026247Y-106607142D02*
X100264342Y-106607142D01*
X100264342Y-106607142D02*
X100359580Y-106654761D01*
X100359580Y-106654761D02*
X100407200Y-106702380D01*
X100407200Y-106702380D02*
X100454819Y-106797618D01*
X100454819Y-106797618D02*
X100454819Y-107083332D01*
X100454819Y-107083332D02*
X100407200Y-107178570D01*
X100407200Y-107178570D02*
X100359580Y-107226189D01*
X99550057Y-106226189D02*
X99502438Y-106178570D01*
X99502438Y-106178570D02*
X99454819Y-106083332D01*
X99454819Y-106083332D02*
X99454819Y-105845237D01*
X99454819Y-105845237D02*
X99502438Y-105749999D01*
X99502438Y-105749999D02*
X99550057Y-105702380D01*
X99550057Y-105702380D02*
X99645295Y-105654761D01*
X99645295Y-105654761D02*
X99740533Y-105654761D01*
X99740533Y-105654761D02*
X99883390Y-105702380D01*
X99883390Y-105702380D02*
X100454819Y-106273808D01*
X100454819Y-106273808D02*
X100454819Y-105654761D01*
X100073866Y-105226189D02*
X100073866Y-104464285D01*
X100359580Y-103416666D02*
X100407200Y-103464285D01*
X100407200Y-103464285D02*
X100454819Y-103607142D01*
X100454819Y-103607142D02*
X100454819Y-103702380D01*
X100454819Y-103702380D02*
X100407200Y-103845237D01*
X100407200Y-103845237D02*
X100311961Y-103940475D01*
X100311961Y-103940475D02*
X100216723Y-103988094D01*
X100216723Y-103988094D02*
X100026247Y-104035713D01*
X100026247Y-104035713D02*
X99883390Y-104035713D01*
X99883390Y-104035713D02*
X99692914Y-103988094D01*
X99692914Y-103988094D02*
X99597676Y-103940475D01*
X99597676Y-103940475D02*
X99502438Y-103845237D01*
X99502438Y-103845237D02*
X99454819Y-103702380D01*
X99454819Y-103702380D02*
X99454819Y-103607142D01*
X99454819Y-103607142D02*
X99502438Y-103464285D01*
X99502438Y-103464285D02*
X99550057Y-103416666D01*
X99454819Y-103083332D02*
X99454819Y-102464285D01*
X99454819Y-102464285D02*
X99835771Y-102797618D01*
X99835771Y-102797618D02*
X99835771Y-102654761D01*
X99835771Y-102654761D02*
X99883390Y-102559523D01*
X99883390Y-102559523D02*
X99931009Y-102511904D01*
X99931009Y-102511904D02*
X100026247Y-102464285D01*
X100026247Y-102464285D02*
X100264342Y-102464285D01*
X100264342Y-102464285D02*
X100359580Y-102511904D01*
X100359580Y-102511904D02*
X100407200Y-102559523D01*
X100407200Y-102559523D02*
X100454819Y-102654761D01*
X100454819Y-102654761D02*
X100454819Y-102940475D01*
X100454819Y-102940475D02*
X100407200Y-103035713D01*
X100407200Y-103035713D02*
X100359580Y-103083332D01*
X101221905Y-118531009D02*
X101555238Y-118531009D01*
X101698095Y-119054819D02*
X101221905Y-119054819D01*
X101221905Y-119054819D02*
X101221905Y-118054819D01*
X101221905Y-118054819D02*
X101698095Y-118054819D01*
X102126667Y-119054819D02*
X102126667Y-118054819D01*
X102126667Y-118054819D02*
X102698095Y-119054819D01*
X102698095Y-119054819D02*
X102698095Y-118054819D01*
X90038572Y-119274819D02*
X90038572Y-118274819D01*
X90038572Y-118274819D02*
X90371905Y-118989104D01*
X90371905Y-118989104D02*
X90705238Y-118274819D01*
X90705238Y-118274819D02*
X90705238Y-119274819D01*
X91371905Y-118274819D02*
X91562381Y-118274819D01*
X91562381Y-118274819D02*
X91657619Y-118322438D01*
X91657619Y-118322438D02*
X91752857Y-118417676D01*
X91752857Y-118417676D02*
X91800476Y-118608152D01*
X91800476Y-118608152D02*
X91800476Y-118941485D01*
X91800476Y-118941485D02*
X91752857Y-119131961D01*
X91752857Y-119131961D02*
X91657619Y-119227200D01*
X91657619Y-119227200D02*
X91562381Y-119274819D01*
X91562381Y-119274819D02*
X91371905Y-119274819D01*
X91371905Y-119274819D02*
X91276667Y-119227200D01*
X91276667Y-119227200D02*
X91181429Y-119131961D01*
X91181429Y-119131961D02*
X91133810Y-118941485D01*
X91133810Y-118941485D02*
X91133810Y-118608152D01*
X91133810Y-118608152D02*
X91181429Y-118417676D01*
X91181429Y-118417676D02*
X91276667Y-118322438D01*
X91276667Y-118322438D02*
X91371905Y-118274819D01*
X92181429Y-119227200D02*
X92324286Y-119274819D01*
X92324286Y-119274819D02*
X92562381Y-119274819D01*
X92562381Y-119274819D02*
X92657619Y-119227200D01*
X92657619Y-119227200D02*
X92705238Y-119179580D01*
X92705238Y-119179580D02*
X92752857Y-119084342D01*
X92752857Y-119084342D02*
X92752857Y-118989104D01*
X92752857Y-118989104D02*
X92705238Y-118893866D01*
X92705238Y-118893866D02*
X92657619Y-118846247D01*
X92657619Y-118846247D02*
X92562381Y-118798628D01*
X92562381Y-118798628D02*
X92371905Y-118751009D01*
X92371905Y-118751009D02*
X92276667Y-118703390D01*
X92276667Y-118703390D02*
X92229048Y-118655771D01*
X92229048Y-118655771D02*
X92181429Y-118560533D01*
X92181429Y-118560533D02*
X92181429Y-118465295D01*
X92181429Y-118465295D02*
X92229048Y-118370057D01*
X92229048Y-118370057D02*
X92276667Y-118322438D01*
X92276667Y-118322438D02*
X92371905Y-118274819D01*
X92371905Y-118274819D02*
X92610000Y-118274819D01*
X92610000Y-118274819D02*
X92752857Y-118322438D01*
X93181429Y-119274819D02*
X93181429Y-118274819D01*
X93923333Y-128939819D02*
X93590000Y-128463628D01*
X93351905Y-128939819D02*
X93351905Y-127939819D01*
X93351905Y-127939819D02*
X93732857Y-127939819D01*
X93732857Y-127939819D02*
X93828095Y-127987438D01*
X93828095Y-127987438D02*
X93875714Y-128035057D01*
X93875714Y-128035057D02*
X93923333Y-128130295D01*
X93923333Y-128130295D02*
X93923333Y-128273152D01*
X93923333Y-128273152D02*
X93875714Y-128368390D01*
X93875714Y-128368390D02*
X93828095Y-128416009D01*
X93828095Y-128416009D02*
X93732857Y-128463628D01*
X93732857Y-128463628D02*
X93351905Y-128463628D01*
X94304286Y-128035057D02*
X94351905Y-127987438D01*
X94351905Y-127987438D02*
X94447143Y-127939819D01*
X94447143Y-127939819D02*
X94685238Y-127939819D01*
X94685238Y-127939819D02*
X94780476Y-127987438D01*
X94780476Y-127987438D02*
X94828095Y-128035057D01*
X94828095Y-128035057D02*
X94875714Y-128130295D01*
X94875714Y-128130295D02*
X94875714Y-128225533D01*
X94875714Y-128225533D02*
X94828095Y-128368390D01*
X94828095Y-128368390D02*
X94256667Y-128939819D01*
X94256667Y-128939819D02*
X94875714Y-128939819D01*
X93256666Y-131309819D02*
X92685238Y-131309819D01*
X92970952Y-131309819D02*
X92970952Y-130309819D01*
X92970952Y-130309819D02*
X92875714Y-130452676D01*
X92875714Y-130452676D02*
X92780476Y-130547914D01*
X92780476Y-130547914D02*
X92685238Y-130595533D01*
X93685238Y-131214580D02*
X93732857Y-131262200D01*
X93732857Y-131262200D02*
X93685238Y-131309819D01*
X93685238Y-131309819D02*
X93637619Y-131262200D01*
X93637619Y-131262200D02*
X93685238Y-131214580D01*
X93685238Y-131214580D02*
X93685238Y-131309819D01*
X94304285Y-130738390D02*
X94209047Y-130690771D01*
X94209047Y-130690771D02*
X94161428Y-130643152D01*
X94161428Y-130643152D02*
X94113809Y-130547914D01*
X94113809Y-130547914D02*
X94113809Y-130500295D01*
X94113809Y-130500295D02*
X94161428Y-130405057D01*
X94161428Y-130405057D02*
X94209047Y-130357438D01*
X94209047Y-130357438D02*
X94304285Y-130309819D01*
X94304285Y-130309819D02*
X94494761Y-130309819D01*
X94494761Y-130309819D02*
X94589999Y-130357438D01*
X94589999Y-130357438D02*
X94637618Y-130405057D01*
X94637618Y-130405057D02*
X94685237Y-130500295D01*
X94685237Y-130500295D02*
X94685237Y-130547914D01*
X94685237Y-130547914D02*
X94637618Y-130643152D01*
X94637618Y-130643152D02*
X94589999Y-130690771D01*
X94589999Y-130690771D02*
X94494761Y-130738390D01*
X94494761Y-130738390D02*
X94304285Y-130738390D01*
X94304285Y-130738390D02*
X94209047Y-130786009D01*
X94209047Y-130786009D02*
X94161428Y-130833628D01*
X94161428Y-130833628D02*
X94113809Y-130928866D01*
X94113809Y-130928866D02*
X94113809Y-131119342D01*
X94113809Y-131119342D02*
X94161428Y-131214580D01*
X94161428Y-131214580D02*
X94209047Y-131262200D01*
X94209047Y-131262200D02*
X94304285Y-131309819D01*
X94304285Y-131309819D02*
X94494761Y-131309819D01*
X94494761Y-131309819D02*
X94589999Y-131262200D01*
X94589999Y-131262200D02*
X94637618Y-131214580D01*
X94637618Y-131214580D02*
X94685237Y-131119342D01*
X94685237Y-131119342D02*
X94685237Y-130928866D01*
X94685237Y-130928866D02*
X94637618Y-130833628D01*
X94637618Y-130833628D02*
X94589999Y-130786009D01*
X94589999Y-130786009D02*
X94494761Y-130738390D01*
X95113809Y-131309819D02*
X95113809Y-130309819D01*
X95209047Y-130928866D02*
X95494761Y-131309819D01*
X95494761Y-130643152D02*
X95113809Y-131024104D01*
X106763333Y-73259819D02*
X106430000Y-72783628D01*
X106191905Y-73259819D02*
X106191905Y-72259819D01*
X106191905Y-72259819D02*
X106572857Y-72259819D01*
X106572857Y-72259819D02*
X106668095Y-72307438D01*
X106668095Y-72307438D02*
X106715714Y-72355057D01*
X106715714Y-72355057D02*
X106763333Y-72450295D01*
X106763333Y-72450295D02*
X106763333Y-72593152D01*
X106763333Y-72593152D02*
X106715714Y-72688390D01*
X106715714Y-72688390D02*
X106668095Y-72736009D01*
X106668095Y-72736009D02*
X106572857Y-72783628D01*
X106572857Y-72783628D02*
X106191905Y-72783628D01*
X107239524Y-73259819D02*
X107430000Y-73259819D01*
X107430000Y-73259819D02*
X107525238Y-73212200D01*
X107525238Y-73212200D02*
X107572857Y-73164580D01*
X107572857Y-73164580D02*
X107668095Y-73021723D01*
X107668095Y-73021723D02*
X107715714Y-72831247D01*
X107715714Y-72831247D02*
X107715714Y-72450295D01*
X107715714Y-72450295D02*
X107668095Y-72355057D01*
X107668095Y-72355057D02*
X107620476Y-72307438D01*
X107620476Y-72307438D02*
X107525238Y-72259819D01*
X107525238Y-72259819D02*
X107334762Y-72259819D01*
X107334762Y-72259819D02*
X107239524Y-72307438D01*
X107239524Y-72307438D02*
X107191905Y-72355057D01*
X107191905Y-72355057D02*
X107144286Y-72450295D01*
X107144286Y-72450295D02*
X107144286Y-72688390D01*
X107144286Y-72688390D02*
X107191905Y-72783628D01*
X107191905Y-72783628D02*
X107239524Y-72831247D01*
X107239524Y-72831247D02*
X107334762Y-72878866D01*
X107334762Y-72878866D02*
X107525238Y-72878866D01*
X107525238Y-72878866D02*
X107620476Y-72831247D01*
X107620476Y-72831247D02*
X107668095Y-72783628D01*
X107668095Y-72783628D02*
X107715714Y-72688390D01*
X106016666Y-75544819D02*
X105445238Y-75544819D01*
X105730952Y-75544819D02*
X105730952Y-74544819D01*
X105730952Y-74544819D02*
X105635714Y-74687676D01*
X105635714Y-74687676D02*
X105540476Y-74782914D01*
X105540476Y-74782914D02*
X105445238Y-74830533D01*
X106445238Y-75449580D02*
X106492857Y-75497200D01*
X106492857Y-75497200D02*
X106445238Y-75544819D01*
X106445238Y-75544819D02*
X106397619Y-75497200D01*
X106397619Y-75497200D02*
X106445238Y-75449580D01*
X106445238Y-75449580D02*
X106445238Y-75544819D01*
X107064285Y-74973390D02*
X106969047Y-74925771D01*
X106969047Y-74925771D02*
X106921428Y-74878152D01*
X106921428Y-74878152D02*
X106873809Y-74782914D01*
X106873809Y-74782914D02*
X106873809Y-74735295D01*
X106873809Y-74735295D02*
X106921428Y-74640057D01*
X106921428Y-74640057D02*
X106969047Y-74592438D01*
X106969047Y-74592438D02*
X107064285Y-74544819D01*
X107064285Y-74544819D02*
X107254761Y-74544819D01*
X107254761Y-74544819D02*
X107349999Y-74592438D01*
X107349999Y-74592438D02*
X107397618Y-74640057D01*
X107397618Y-74640057D02*
X107445237Y-74735295D01*
X107445237Y-74735295D02*
X107445237Y-74782914D01*
X107445237Y-74782914D02*
X107397618Y-74878152D01*
X107397618Y-74878152D02*
X107349999Y-74925771D01*
X107349999Y-74925771D02*
X107254761Y-74973390D01*
X107254761Y-74973390D02*
X107064285Y-74973390D01*
X107064285Y-74973390D02*
X106969047Y-75021009D01*
X106969047Y-75021009D02*
X106921428Y-75068628D01*
X106921428Y-75068628D02*
X106873809Y-75163866D01*
X106873809Y-75163866D02*
X106873809Y-75354342D01*
X106873809Y-75354342D02*
X106921428Y-75449580D01*
X106921428Y-75449580D02*
X106969047Y-75497200D01*
X106969047Y-75497200D02*
X107064285Y-75544819D01*
X107064285Y-75544819D02*
X107254761Y-75544819D01*
X107254761Y-75544819D02*
X107349999Y-75497200D01*
X107349999Y-75497200D02*
X107397618Y-75449580D01*
X107397618Y-75449580D02*
X107445237Y-75354342D01*
X107445237Y-75354342D02*
X107445237Y-75163866D01*
X107445237Y-75163866D02*
X107397618Y-75068628D01*
X107397618Y-75068628D02*
X107349999Y-75021009D01*
X107349999Y-75021009D02*
X107254761Y-74973390D01*
X107873809Y-75544819D02*
X107873809Y-74544819D01*
X107969047Y-75163866D02*
X108254761Y-75544819D01*
X108254761Y-74878152D02*
X107873809Y-75259104D01*
X96889819Y-139413333D02*
X97604104Y-139413333D01*
X97604104Y-139413333D02*
X97746961Y-139460952D01*
X97746961Y-139460952D02*
X97842200Y-139556190D01*
X97842200Y-139556190D02*
X97889819Y-139699047D01*
X97889819Y-139699047D02*
X97889819Y-139794285D01*
X96889819Y-138508571D02*
X96889819Y-138699047D01*
X96889819Y-138699047D02*
X96937438Y-138794285D01*
X96937438Y-138794285D02*
X96985057Y-138841904D01*
X96985057Y-138841904D02*
X97127914Y-138937142D01*
X97127914Y-138937142D02*
X97318390Y-138984761D01*
X97318390Y-138984761D02*
X97699342Y-138984761D01*
X97699342Y-138984761D02*
X97794580Y-138937142D01*
X97794580Y-138937142D02*
X97842200Y-138889523D01*
X97842200Y-138889523D02*
X97889819Y-138794285D01*
X97889819Y-138794285D02*
X97889819Y-138603809D01*
X97889819Y-138603809D02*
X97842200Y-138508571D01*
X97842200Y-138508571D02*
X97794580Y-138460952D01*
X97794580Y-138460952D02*
X97699342Y-138413333D01*
X97699342Y-138413333D02*
X97461247Y-138413333D01*
X97461247Y-138413333D02*
X97366009Y-138460952D01*
X97366009Y-138460952D02*
X97318390Y-138508571D01*
X97318390Y-138508571D02*
X97270771Y-138603809D01*
X97270771Y-138603809D02*
X97270771Y-138794285D01*
X97270771Y-138794285D02*
X97318390Y-138889523D01*
X97318390Y-138889523D02*
X97366009Y-138937142D01*
X97366009Y-138937142D02*
X97461247Y-138984761D01*
X115293333Y-128964819D02*
X114960000Y-128488628D01*
X114721905Y-128964819D02*
X114721905Y-127964819D01*
X114721905Y-127964819D02*
X115102857Y-127964819D01*
X115102857Y-127964819D02*
X115198095Y-128012438D01*
X115198095Y-128012438D02*
X115245714Y-128060057D01*
X115245714Y-128060057D02*
X115293333Y-128155295D01*
X115293333Y-128155295D02*
X115293333Y-128298152D01*
X115293333Y-128298152D02*
X115245714Y-128393390D01*
X115245714Y-128393390D02*
X115198095Y-128441009D01*
X115198095Y-128441009D02*
X115102857Y-128488628D01*
X115102857Y-128488628D02*
X114721905Y-128488628D01*
X115864762Y-128393390D02*
X115769524Y-128345771D01*
X115769524Y-128345771D02*
X115721905Y-128298152D01*
X115721905Y-128298152D02*
X115674286Y-128202914D01*
X115674286Y-128202914D02*
X115674286Y-128155295D01*
X115674286Y-128155295D02*
X115721905Y-128060057D01*
X115721905Y-128060057D02*
X115769524Y-128012438D01*
X115769524Y-128012438D02*
X115864762Y-127964819D01*
X115864762Y-127964819D02*
X116055238Y-127964819D01*
X116055238Y-127964819D02*
X116150476Y-128012438D01*
X116150476Y-128012438D02*
X116198095Y-128060057D01*
X116198095Y-128060057D02*
X116245714Y-128155295D01*
X116245714Y-128155295D02*
X116245714Y-128202914D01*
X116245714Y-128202914D02*
X116198095Y-128298152D01*
X116198095Y-128298152D02*
X116150476Y-128345771D01*
X116150476Y-128345771D02*
X116055238Y-128393390D01*
X116055238Y-128393390D02*
X115864762Y-128393390D01*
X115864762Y-128393390D02*
X115769524Y-128441009D01*
X115769524Y-128441009D02*
X115721905Y-128488628D01*
X115721905Y-128488628D02*
X115674286Y-128583866D01*
X115674286Y-128583866D02*
X115674286Y-128774342D01*
X115674286Y-128774342D02*
X115721905Y-128869580D01*
X115721905Y-128869580D02*
X115769524Y-128917200D01*
X115769524Y-128917200D02*
X115864762Y-128964819D01*
X115864762Y-128964819D02*
X116055238Y-128964819D01*
X116055238Y-128964819D02*
X116150476Y-128917200D01*
X116150476Y-128917200D02*
X116198095Y-128869580D01*
X116198095Y-128869580D02*
X116245714Y-128774342D01*
X116245714Y-128774342D02*
X116245714Y-128583866D01*
X116245714Y-128583866D02*
X116198095Y-128488628D01*
X116198095Y-128488628D02*
X116150476Y-128441009D01*
X116150476Y-128441009D02*
X116055238Y-128393390D01*
X114626666Y-131334819D02*
X114055238Y-131334819D01*
X114340952Y-131334819D02*
X114340952Y-130334819D01*
X114340952Y-130334819D02*
X114245714Y-130477676D01*
X114245714Y-130477676D02*
X114150476Y-130572914D01*
X114150476Y-130572914D02*
X114055238Y-130620533D01*
X115055238Y-131239580D02*
X115102857Y-131287200D01*
X115102857Y-131287200D02*
X115055238Y-131334819D01*
X115055238Y-131334819D02*
X115007619Y-131287200D01*
X115007619Y-131287200D02*
X115055238Y-131239580D01*
X115055238Y-131239580D02*
X115055238Y-131334819D01*
X115674285Y-130763390D02*
X115579047Y-130715771D01*
X115579047Y-130715771D02*
X115531428Y-130668152D01*
X115531428Y-130668152D02*
X115483809Y-130572914D01*
X115483809Y-130572914D02*
X115483809Y-130525295D01*
X115483809Y-130525295D02*
X115531428Y-130430057D01*
X115531428Y-130430057D02*
X115579047Y-130382438D01*
X115579047Y-130382438D02*
X115674285Y-130334819D01*
X115674285Y-130334819D02*
X115864761Y-130334819D01*
X115864761Y-130334819D02*
X115959999Y-130382438D01*
X115959999Y-130382438D02*
X116007618Y-130430057D01*
X116007618Y-130430057D02*
X116055237Y-130525295D01*
X116055237Y-130525295D02*
X116055237Y-130572914D01*
X116055237Y-130572914D02*
X116007618Y-130668152D01*
X116007618Y-130668152D02*
X115959999Y-130715771D01*
X115959999Y-130715771D02*
X115864761Y-130763390D01*
X115864761Y-130763390D02*
X115674285Y-130763390D01*
X115674285Y-130763390D02*
X115579047Y-130811009D01*
X115579047Y-130811009D02*
X115531428Y-130858628D01*
X115531428Y-130858628D02*
X115483809Y-130953866D01*
X115483809Y-130953866D02*
X115483809Y-131144342D01*
X115483809Y-131144342D02*
X115531428Y-131239580D01*
X115531428Y-131239580D02*
X115579047Y-131287200D01*
X115579047Y-131287200D02*
X115674285Y-131334819D01*
X115674285Y-131334819D02*
X115864761Y-131334819D01*
X115864761Y-131334819D02*
X115959999Y-131287200D01*
X115959999Y-131287200D02*
X116007618Y-131239580D01*
X116007618Y-131239580D02*
X116055237Y-131144342D01*
X116055237Y-131144342D02*
X116055237Y-130953866D01*
X116055237Y-130953866D02*
X116007618Y-130858628D01*
X116007618Y-130858628D02*
X115959999Y-130811009D01*
X115959999Y-130811009D02*
X115864761Y-130763390D01*
X116483809Y-131334819D02*
X116483809Y-130334819D01*
X116579047Y-130953866D02*
X116864761Y-131334819D01*
X116864761Y-130668152D02*
X116483809Y-131049104D01*
X92314819Y-63223333D02*
X93029104Y-63223333D01*
X93029104Y-63223333D02*
X93171961Y-63270952D01*
X93171961Y-63270952D02*
X93267200Y-63366190D01*
X93267200Y-63366190D02*
X93314819Y-63509047D01*
X93314819Y-63509047D02*
X93314819Y-63604285D01*
X93314819Y-62223333D02*
X93314819Y-62794761D01*
X93314819Y-62509047D02*
X92314819Y-62509047D01*
X92314819Y-62509047D02*
X92457676Y-62604285D01*
X92457676Y-62604285D02*
X92552914Y-62699523D01*
X92552914Y-62699523D02*
X92600533Y-62794761D01*
X91033333Y-91169580D02*
X90985714Y-91217200D01*
X90985714Y-91217200D02*
X90842857Y-91264819D01*
X90842857Y-91264819D02*
X90747619Y-91264819D01*
X90747619Y-91264819D02*
X90604762Y-91217200D01*
X90604762Y-91217200D02*
X90509524Y-91121961D01*
X90509524Y-91121961D02*
X90461905Y-91026723D01*
X90461905Y-91026723D02*
X90414286Y-90836247D01*
X90414286Y-90836247D02*
X90414286Y-90693390D01*
X90414286Y-90693390D02*
X90461905Y-90502914D01*
X90461905Y-90502914D02*
X90509524Y-90407676D01*
X90509524Y-90407676D02*
X90604762Y-90312438D01*
X90604762Y-90312438D02*
X90747619Y-90264819D01*
X90747619Y-90264819D02*
X90842857Y-90264819D01*
X90842857Y-90264819D02*
X90985714Y-90312438D01*
X90985714Y-90312438D02*
X91033333Y-90360057D01*
X91985714Y-91264819D02*
X91414286Y-91264819D01*
X91700000Y-91264819D02*
X91700000Y-90264819D01*
X91700000Y-90264819D02*
X91604762Y-90407676D01*
X91604762Y-90407676D02*
X91509524Y-90502914D01*
X91509524Y-90502914D02*
X91414286Y-90550533D01*
X104463333Y-124314819D02*
X104130000Y-123838628D01*
X103891905Y-124314819D02*
X103891905Y-123314819D01*
X103891905Y-123314819D02*
X104272857Y-123314819D01*
X104272857Y-123314819D02*
X104368095Y-123362438D01*
X104368095Y-123362438D02*
X104415714Y-123410057D01*
X104415714Y-123410057D02*
X104463333Y-123505295D01*
X104463333Y-123505295D02*
X104463333Y-123648152D01*
X104463333Y-123648152D02*
X104415714Y-123743390D01*
X104415714Y-123743390D02*
X104368095Y-123791009D01*
X104368095Y-123791009D02*
X104272857Y-123838628D01*
X104272857Y-123838628D02*
X103891905Y-123838628D01*
X105320476Y-123648152D02*
X105320476Y-124314819D01*
X105082381Y-123267200D02*
X104844286Y-123981485D01*
X104844286Y-123981485D02*
X105463333Y-123981485D01*
X103177619Y-125684819D02*
X103796666Y-125684819D01*
X103796666Y-125684819D02*
X103463333Y-126065771D01*
X103463333Y-126065771D02*
X103606190Y-126065771D01*
X103606190Y-126065771D02*
X103701428Y-126113390D01*
X103701428Y-126113390D02*
X103749047Y-126161009D01*
X103749047Y-126161009D02*
X103796666Y-126256247D01*
X103796666Y-126256247D02*
X103796666Y-126494342D01*
X103796666Y-126494342D02*
X103749047Y-126589580D01*
X103749047Y-126589580D02*
X103701428Y-126637200D01*
X103701428Y-126637200D02*
X103606190Y-126684819D01*
X103606190Y-126684819D02*
X103320476Y-126684819D01*
X103320476Y-126684819D02*
X103225238Y-126637200D01*
X103225238Y-126637200D02*
X103177619Y-126589580D01*
X104225238Y-126589580D02*
X104272857Y-126637200D01*
X104272857Y-126637200D02*
X104225238Y-126684819D01*
X104225238Y-126684819D02*
X104177619Y-126637200D01*
X104177619Y-126637200D02*
X104225238Y-126589580D01*
X104225238Y-126589580D02*
X104225238Y-126684819D01*
X104606190Y-125684819D02*
X105225237Y-125684819D01*
X105225237Y-125684819D02*
X104891904Y-126065771D01*
X104891904Y-126065771D02*
X105034761Y-126065771D01*
X105034761Y-126065771D02*
X105129999Y-126113390D01*
X105129999Y-126113390D02*
X105177618Y-126161009D01*
X105177618Y-126161009D02*
X105225237Y-126256247D01*
X105225237Y-126256247D02*
X105225237Y-126494342D01*
X105225237Y-126494342D02*
X105177618Y-126589580D01*
X105177618Y-126589580D02*
X105129999Y-126637200D01*
X105129999Y-126637200D02*
X105034761Y-126684819D01*
X105034761Y-126684819D02*
X104749047Y-126684819D01*
X104749047Y-126684819D02*
X104653809Y-126637200D01*
X104653809Y-126637200D02*
X104606190Y-126589580D01*
X105653809Y-126684819D02*
X105653809Y-125684819D01*
X105749047Y-126303866D02*
X106034761Y-126684819D01*
X106034761Y-126018152D02*
X105653809Y-126399104D01*
X95231905Y-81104819D02*
X95850952Y-81104819D01*
X95850952Y-81104819D02*
X95517619Y-81485771D01*
X95517619Y-81485771D02*
X95660476Y-81485771D01*
X95660476Y-81485771D02*
X95755714Y-81533390D01*
X95755714Y-81533390D02*
X95803333Y-81581009D01*
X95803333Y-81581009D02*
X95850952Y-81676247D01*
X95850952Y-81676247D02*
X95850952Y-81914342D01*
X95850952Y-81914342D02*
X95803333Y-82009580D01*
X95803333Y-82009580D02*
X95755714Y-82057200D01*
X95755714Y-82057200D02*
X95660476Y-82104819D01*
X95660476Y-82104819D02*
X95374762Y-82104819D01*
X95374762Y-82104819D02*
X95279524Y-82057200D01*
X95279524Y-82057200D02*
X95231905Y-82009580D01*
X96136667Y-81104819D02*
X96470000Y-82104819D01*
X96470000Y-82104819D02*
X96803333Y-81104819D01*
X97041429Y-81104819D02*
X97660476Y-81104819D01*
X97660476Y-81104819D02*
X97327143Y-81485771D01*
X97327143Y-81485771D02*
X97470000Y-81485771D01*
X97470000Y-81485771D02*
X97565238Y-81533390D01*
X97565238Y-81533390D02*
X97612857Y-81581009D01*
X97612857Y-81581009D02*
X97660476Y-81676247D01*
X97660476Y-81676247D02*
X97660476Y-81914342D01*
X97660476Y-81914342D02*
X97612857Y-82009580D01*
X97612857Y-82009580D02*
X97565238Y-82057200D01*
X97565238Y-82057200D02*
X97470000Y-82104819D01*
X97470000Y-82104819D02*
X97184286Y-82104819D01*
X97184286Y-82104819D02*
X97089048Y-82057200D01*
X97089048Y-82057200D02*
X97041429Y-82009580D01*
X104463333Y-129054819D02*
X104130000Y-128578628D01*
X103891905Y-129054819D02*
X103891905Y-128054819D01*
X103891905Y-128054819D02*
X104272857Y-128054819D01*
X104272857Y-128054819D02*
X104368095Y-128102438D01*
X104368095Y-128102438D02*
X104415714Y-128150057D01*
X104415714Y-128150057D02*
X104463333Y-128245295D01*
X104463333Y-128245295D02*
X104463333Y-128388152D01*
X104463333Y-128388152D02*
X104415714Y-128483390D01*
X104415714Y-128483390D02*
X104368095Y-128531009D01*
X104368095Y-128531009D02*
X104272857Y-128578628D01*
X104272857Y-128578628D02*
X103891905Y-128578628D01*
X105415714Y-129054819D02*
X104844286Y-129054819D01*
X105130000Y-129054819D02*
X105130000Y-128054819D01*
X105130000Y-128054819D02*
X105034762Y-128197676D01*
X105034762Y-128197676D02*
X104939524Y-128292914D01*
X104939524Y-128292914D02*
X104844286Y-128340533D01*
X103177619Y-130334819D02*
X103796666Y-130334819D01*
X103796666Y-130334819D02*
X103463333Y-130715771D01*
X103463333Y-130715771D02*
X103606190Y-130715771D01*
X103606190Y-130715771D02*
X103701428Y-130763390D01*
X103701428Y-130763390D02*
X103749047Y-130811009D01*
X103749047Y-130811009D02*
X103796666Y-130906247D01*
X103796666Y-130906247D02*
X103796666Y-131144342D01*
X103796666Y-131144342D02*
X103749047Y-131239580D01*
X103749047Y-131239580D02*
X103701428Y-131287200D01*
X103701428Y-131287200D02*
X103606190Y-131334819D01*
X103606190Y-131334819D02*
X103320476Y-131334819D01*
X103320476Y-131334819D02*
X103225238Y-131287200D01*
X103225238Y-131287200D02*
X103177619Y-131239580D01*
X104225238Y-131239580D02*
X104272857Y-131287200D01*
X104272857Y-131287200D02*
X104225238Y-131334819D01*
X104225238Y-131334819D02*
X104177619Y-131287200D01*
X104177619Y-131287200D02*
X104225238Y-131239580D01*
X104225238Y-131239580D02*
X104225238Y-131334819D01*
X104606190Y-130334819D02*
X105225237Y-130334819D01*
X105225237Y-130334819D02*
X104891904Y-130715771D01*
X104891904Y-130715771D02*
X105034761Y-130715771D01*
X105034761Y-130715771D02*
X105129999Y-130763390D01*
X105129999Y-130763390D02*
X105177618Y-130811009D01*
X105177618Y-130811009D02*
X105225237Y-130906247D01*
X105225237Y-130906247D02*
X105225237Y-131144342D01*
X105225237Y-131144342D02*
X105177618Y-131239580D01*
X105177618Y-131239580D02*
X105129999Y-131287200D01*
X105129999Y-131287200D02*
X105034761Y-131334819D01*
X105034761Y-131334819D02*
X104749047Y-131334819D01*
X104749047Y-131334819D02*
X104653809Y-131287200D01*
X104653809Y-131287200D02*
X104606190Y-131239580D01*
X105653809Y-131334819D02*
X105653809Y-130334819D01*
X105749047Y-130953866D02*
X106034761Y-131334819D01*
X106034761Y-130668152D02*
X105653809Y-131049104D01*
X135909819Y-126563333D02*
X136624104Y-126563333D01*
X136624104Y-126563333D02*
X136766961Y-126610952D01*
X136766961Y-126610952D02*
X136862200Y-126706190D01*
X136862200Y-126706190D02*
X136909819Y-126849047D01*
X136909819Y-126849047D02*
X136909819Y-126944285D01*
X135909819Y-125610952D02*
X135909819Y-126087142D01*
X135909819Y-126087142D02*
X136386009Y-126134761D01*
X136386009Y-126134761D02*
X136338390Y-126087142D01*
X136338390Y-126087142D02*
X136290771Y-125991904D01*
X136290771Y-125991904D02*
X136290771Y-125753809D01*
X136290771Y-125753809D02*
X136338390Y-125658571D01*
X136338390Y-125658571D02*
X136386009Y-125610952D01*
X136386009Y-125610952D02*
X136481247Y-125563333D01*
X136481247Y-125563333D02*
X136719342Y-125563333D01*
X136719342Y-125563333D02*
X136814580Y-125610952D01*
X136814580Y-125610952D02*
X136862200Y-125658571D01*
X136862200Y-125658571D02*
X136909819Y-125753809D01*
X136909819Y-125753809D02*
X136909819Y-125991904D01*
X136909819Y-125991904D02*
X136862200Y-126087142D01*
X136862200Y-126087142D02*
X136814580Y-126134761D01*
X97184286Y-119167200D02*
X97327143Y-119214819D01*
X97327143Y-119214819D02*
X97565238Y-119214819D01*
X97565238Y-119214819D02*
X97660476Y-119167200D01*
X97660476Y-119167200D02*
X97708095Y-119119580D01*
X97708095Y-119119580D02*
X97755714Y-119024342D01*
X97755714Y-119024342D02*
X97755714Y-118929104D01*
X97755714Y-118929104D02*
X97708095Y-118833866D01*
X97708095Y-118833866D02*
X97660476Y-118786247D01*
X97660476Y-118786247D02*
X97565238Y-118738628D01*
X97565238Y-118738628D02*
X97374762Y-118691009D01*
X97374762Y-118691009D02*
X97279524Y-118643390D01*
X97279524Y-118643390D02*
X97231905Y-118595771D01*
X97231905Y-118595771D02*
X97184286Y-118500533D01*
X97184286Y-118500533D02*
X97184286Y-118405295D01*
X97184286Y-118405295D02*
X97231905Y-118310057D01*
X97231905Y-118310057D02*
X97279524Y-118262438D01*
X97279524Y-118262438D02*
X97374762Y-118214819D01*
X97374762Y-118214819D02*
X97612857Y-118214819D01*
X97612857Y-118214819D02*
X97755714Y-118262438D01*
X98755714Y-119119580D02*
X98708095Y-119167200D01*
X98708095Y-119167200D02*
X98565238Y-119214819D01*
X98565238Y-119214819D02*
X98470000Y-119214819D01*
X98470000Y-119214819D02*
X98327143Y-119167200D01*
X98327143Y-119167200D02*
X98231905Y-119071961D01*
X98231905Y-119071961D02*
X98184286Y-118976723D01*
X98184286Y-118976723D02*
X98136667Y-118786247D01*
X98136667Y-118786247D02*
X98136667Y-118643390D01*
X98136667Y-118643390D02*
X98184286Y-118452914D01*
X98184286Y-118452914D02*
X98231905Y-118357676D01*
X98231905Y-118357676D02*
X98327143Y-118262438D01*
X98327143Y-118262438D02*
X98470000Y-118214819D01*
X98470000Y-118214819D02*
X98565238Y-118214819D01*
X98565238Y-118214819D02*
X98708095Y-118262438D01*
X98708095Y-118262438D02*
X98755714Y-118310057D01*
X99184286Y-119214819D02*
X99184286Y-118214819D01*
X99755714Y-119214819D02*
X99327143Y-118643390D01*
X99755714Y-118214819D02*
X99184286Y-118786247D01*
X148935476Y-76739819D02*
X148935476Y-77454104D01*
X148935476Y-77454104D02*
X148887857Y-77596961D01*
X148887857Y-77596961D02*
X148792619Y-77692200D01*
X148792619Y-77692200D02*
X148649762Y-77739819D01*
X148649762Y-77739819D02*
X148554524Y-77739819D01*
X149935476Y-77739819D02*
X149364048Y-77739819D01*
X149649762Y-77739819D02*
X149649762Y-76739819D01*
X149649762Y-76739819D02*
X149554524Y-76882676D01*
X149554524Y-76882676D02*
X149459286Y-76977914D01*
X149459286Y-76977914D02*
X149364048Y-77025533D01*
X150554524Y-76739819D02*
X150649762Y-76739819D01*
X150649762Y-76739819D02*
X150745000Y-76787438D01*
X150745000Y-76787438D02*
X150792619Y-76835057D01*
X150792619Y-76835057D02*
X150840238Y-76930295D01*
X150840238Y-76930295D02*
X150887857Y-77120771D01*
X150887857Y-77120771D02*
X150887857Y-77358866D01*
X150887857Y-77358866D02*
X150840238Y-77549342D01*
X150840238Y-77549342D02*
X150792619Y-77644580D01*
X150792619Y-77644580D02*
X150745000Y-77692200D01*
X150745000Y-77692200D02*
X150649762Y-77739819D01*
X150649762Y-77739819D02*
X150554524Y-77739819D01*
X150554524Y-77739819D02*
X150459286Y-77692200D01*
X150459286Y-77692200D02*
X150411667Y-77644580D01*
X150411667Y-77644580D02*
X150364048Y-77549342D01*
X150364048Y-77549342D02*
X150316429Y-77358866D01*
X150316429Y-77358866D02*
X150316429Y-77120771D01*
X150316429Y-77120771D02*
X150364048Y-76930295D01*
X150364048Y-76930295D02*
X150411667Y-76835057D01*
X150411667Y-76835057D02*
X150459286Y-76787438D01*
X150459286Y-76787438D02*
X150554524Y-76739819D01*
X125573333Y-129144819D02*
X125240000Y-128668628D01*
X125001905Y-129144819D02*
X125001905Y-128144819D01*
X125001905Y-128144819D02*
X125382857Y-128144819D01*
X125382857Y-128144819D02*
X125478095Y-128192438D01*
X125478095Y-128192438D02*
X125525714Y-128240057D01*
X125525714Y-128240057D02*
X125573333Y-128335295D01*
X125573333Y-128335295D02*
X125573333Y-128478152D01*
X125573333Y-128478152D02*
X125525714Y-128573390D01*
X125525714Y-128573390D02*
X125478095Y-128621009D01*
X125478095Y-128621009D02*
X125382857Y-128668628D01*
X125382857Y-128668628D02*
X125001905Y-128668628D01*
X126478095Y-128144819D02*
X126001905Y-128144819D01*
X126001905Y-128144819D02*
X125954286Y-128621009D01*
X125954286Y-128621009D02*
X126001905Y-128573390D01*
X126001905Y-128573390D02*
X126097143Y-128525771D01*
X126097143Y-128525771D02*
X126335238Y-128525771D01*
X126335238Y-128525771D02*
X126430476Y-128573390D01*
X126430476Y-128573390D02*
X126478095Y-128621009D01*
X126478095Y-128621009D02*
X126525714Y-128716247D01*
X126525714Y-128716247D02*
X126525714Y-128954342D01*
X126525714Y-128954342D02*
X126478095Y-129049580D01*
X126478095Y-129049580D02*
X126430476Y-129097200D01*
X126430476Y-129097200D02*
X126335238Y-129144819D01*
X126335238Y-129144819D02*
X126097143Y-129144819D01*
X126097143Y-129144819D02*
X126001905Y-129097200D01*
X126001905Y-129097200D02*
X125954286Y-129049580D01*
X124282619Y-130334819D02*
X124901666Y-130334819D01*
X124901666Y-130334819D02*
X124568333Y-130715771D01*
X124568333Y-130715771D02*
X124711190Y-130715771D01*
X124711190Y-130715771D02*
X124806428Y-130763390D01*
X124806428Y-130763390D02*
X124854047Y-130811009D01*
X124854047Y-130811009D02*
X124901666Y-130906247D01*
X124901666Y-130906247D02*
X124901666Y-131144342D01*
X124901666Y-131144342D02*
X124854047Y-131239580D01*
X124854047Y-131239580D02*
X124806428Y-131287200D01*
X124806428Y-131287200D02*
X124711190Y-131334819D01*
X124711190Y-131334819D02*
X124425476Y-131334819D01*
X124425476Y-131334819D02*
X124330238Y-131287200D01*
X124330238Y-131287200D02*
X124282619Y-131239580D01*
X125330238Y-131239580D02*
X125377857Y-131287200D01*
X125377857Y-131287200D02*
X125330238Y-131334819D01*
X125330238Y-131334819D02*
X125282619Y-131287200D01*
X125282619Y-131287200D02*
X125330238Y-131239580D01*
X125330238Y-131239580D02*
X125330238Y-131334819D01*
X125711190Y-130334819D02*
X126330237Y-130334819D01*
X126330237Y-130334819D02*
X125996904Y-130715771D01*
X125996904Y-130715771D02*
X126139761Y-130715771D01*
X126139761Y-130715771D02*
X126234999Y-130763390D01*
X126234999Y-130763390D02*
X126282618Y-130811009D01*
X126282618Y-130811009D02*
X126330237Y-130906247D01*
X126330237Y-130906247D02*
X126330237Y-131144342D01*
X126330237Y-131144342D02*
X126282618Y-131239580D01*
X126282618Y-131239580D02*
X126234999Y-131287200D01*
X126234999Y-131287200D02*
X126139761Y-131334819D01*
X126139761Y-131334819D02*
X125854047Y-131334819D01*
X125854047Y-131334819D02*
X125758809Y-131287200D01*
X125758809Y-131287200D02*
X125711190Y-131239580D01*
X126758809Y-131334819D02*
X126758809Y-130334819D01*
X126854047Y-130953866D02*
X127139761Y-131334819D01*
X127139761Y-130668152D02*
X126758809Y-131049104D01*
X100689523Y-81034819D02*
X100213333Y-81034819D01*
X100213333Y-81034819D02*
X100165714Y-81511009D01*
X100165714Y-81511009D02*
X100213333Y-81463390D01*
X100213333Y-81463390D02*
X100308571Y-81415771D01*
X100308571Y-81415771D02*
X100546666Y-81415771D01*
X100546666Y-81415771D02*
X100641904Y-81463390D01*
X100641904Y-81463390D02*
X100689523Y-81511009D01*
X100689523Y-81511009D02*
X100737142Y-81606247D01*
X100737142Y-81606247D02*
X100737142Y-81844342D01*
X100737142Y-81844342D02*
X100689523Y-81939580D01*
X100689523Y-81939580D02*
X100641904Y-81987200D01*
X100641904Y-81987200D02*
X100546666Y-82034819D01*
X100546666Y-82034819D02*
X100308571Y-82034819D01*
X100308571Y-82034819D02*
X100213333Y-81987200D01*
X100213333Y-81987200D02*
X100165714Y-81939580D01*
X101022857Y-81034819D02*
X101356190Y-82034819D01*
X101356190Y-82034819D02*
X101689523Y-81034819D01*
X125563333Y-124289819D02*
X125230000Y-123813628D01*
X124991905Y-124289819D02*
X124991905Y-123289819D01*
X124991905Y-123289819D02*
X125372857Y-123289819D01*
X125372857Y-123289819D02*
X125468095Y-123337438D01*
X125468095Y-123337438D02*
X125515714Y-123385057D01*
X125515714Y-123385057D02*
X125563333Y-123480295D01*
X125563333Y-123480295D02*
X125563333Y-123623152D01*
X125563333Y-123623152D02*
X125515714Y-123718390D01*
X125515714Y-123718390D02*
X125468095Y-123766009D01*
X125468095Y-123766009D02*
X125372857Y-123813628D01*
X125372857Y-123813628D02*
X124991905Y-123813628D01*
X126420476Y-123289819D02*
X126230000Y-123289819D01*
X126230000Y-123289819D02*
X126134762Y-123337438D01*
X126134762Y-123337438D02*
X126087143Y-123385057D01*
X126087143Y-123385057D02*
X125991905Y-123527914D01*
X125991905Y-123527914D02*
X125944286Y-123718390D01*
X125944286Y-123718390D02*
X125944286Y-124099342D01*
X125944286Y-124099342D02*
X125991905Y-124194580D01*
X125991905Y-124194580D02*
X126039524Y-124242200D01*
X126039524Y-124242200D02*
X126134762Y-124289819D01*
X126134762Y-124289819D02*
X126325238Y-124289819D01*
X126325238Y-124289819D02*
X126420476Y-124242200D01*
X126420476Y-124242200D02*
X126468095Y-124194580D01*
X126468095Y-124194580D02*
X126515714Y-124099342D01*
X126515714Y-124099342D02*
X126515714Y-123861247D01*
X126515714Y-123861247D02*
X126468095Y-123766009D01*
X126468095Y-123766009D02*
X126420476Y-123718390D01*
X126420476Y-123718390D02*
X126325238Y-123670771D01*
X126325238Y-123670771D02*
X126134762Y-123670771D01*
X126134762Y-123670771D02*
X126039524Y-123718390D01*
X126039524Y-123718390D02*
X125991905Y-123766009D01*
X125991905Y-123766009D02*
X125944286Y-123861247D01*
X124277619Y-125659819D02*
X124896666Y-125659819D01*
X124896666Y-125659819D02*
X124563333Y-126040771D01*
X124563333Y-126040771D02*
X124706190Y-126040771D01*
X124706190Y-126040771D02*
X124801428Y-126088390D01*
X124801428Y-126088390D02*
X124849047Y-126136009D01*
X124849047Y-126136009D02*
X124896666Y-126231247D01*
X124896666Y-126231247D02*
X124896666Y-126469342D01*
X124896666Y-126469342D02*
X124849047Y-126564580D01*
X124849047Y-126564580D02*
X124801428Y-126612200D01*
X124801428Y-126612200D02*
X124706190Y-126659819D01*
X124706190Y-126659819D02*
X124420476Y-126659819D01*
X124420476Y-126659819D02*
X124325238Y-126612200D01*
X124325238Y-126612200D02*
X124277619Y-126564580D01*
X125325238Y-126564580D02*
X125372857Y-126612200D01*
X125372857Y-126612200D02*
X125325238Y-126659819D01*
X125325238Y-126659819D02*
X125277619Y-126612200D01*
X125277619Y-126612200D02*
X125325238Y-126564580D01*
X125325238Y-126564580D02*
X125325238Y-126659819D01*
X125706190Y-125659819D02*
X126325237Y-125659819D01*
X126325237Y-125659819D02*
X125991904Y-126040771D01*
X125991904Y-126040771D02*
X126134761Y-126040771D01*
X126134761Y-126040771D02*
X126229999Y-126088390D01*
X126229999Y-126088390D02*
X126277618Y-126136009D01*
X126277618Y-126136009D02*
X126325237Y-126231247D01*
X126325237Y-126231247D02*
X126325237Y-126469342D01*
X126325237Y-126469342D02*
X126277618Y-126564580D01*
X126277618Y-126564580D02*
X126229999Y-126612200D01*
X126229999Y-126612200D02*
X126134761Y-126659819D01*
X126134761Y-126659819D02*
X125849047Y-126659819D01*
X125849047Y-126659819D02*
X125753809Y-126612200D01*
X125753809Y-126612200D02*
X125706190Y-126564580D01*
X126753809Y-126659819D02*
X126753809Y-125659819D01*
X126849047Y-126278866D02*
X127134761Y-126659819D01*
X127134761Y-125993152D02*
X126753809Y-126374104D01*
X103629524Y-81491009D02*
X103962857Y-81491009D01*
X104105714Y-82014819D02*
X103629524Y-82014819D01*
X103629524Y-82014819D02*
X103629524Y-81014819D01*
X103629524Y-81014819D02*
X104105714Y-81014819D01*
X105058095Y-82014819D02*
X104486667Y-82014819D01*
X104772381Y-82014819D02*
X104772381Y-81014819D01*
X104772381Y-81014819D02*
X104677143Y-81157676D01*
X104677143Y-81157676D02*
X104581905Y-81252914D01*
X104581905Y-81252914D02*
X104486667Y-81300533D01*
X105820000Y-81491009D02*
X105962857Y-81538628D01*
X105962857Y-81538628D02*
X106010476Y-81586247D01*
X106010476Y-81586247D02*
X106058095Y-81681485D01*
X106058095Y-81681485D02*
X106058095Y-81824342D01*
X106058095Y-81824342D02*
X106010476Y-81919580D01*
X106010476Y-81919580D02*
X105962857Y-81967200D01*
X105962857Y-81967200D02*
X105867619Y-82014819D01*
X105867619Y-82014819D02*
X105486667Y-82014819D01*
X105486667Y-82014819D02*
X105486667Y-81014819D01*
X105486667Y-81014819D02*
X105820000Y-81014819D01*
X105820000Y-81014819D02*
X105915238Y-81062438D01*
X105915238Y-81062438D02*
X105962857Y-81110057D01*
X105962857Y-81110057D02*
X106010476Y-81205295D01*
X106010476Y-81205295D02*
X106010476Y-81300533D01*
X106010476Y-81300533D02*
X105962857Y-81395771D01*
X105962857Y-81395771D02*
X105915238Y-81443390D01*
X105915238Y-81443390D02*
X105820000Y-81491009D01*
X105820000Y-81491009D02*
X105486667Y-81491009D01*
X113834819Y-139413333D02*
X114549104Y-139413333D01*
X114549104Y-139413333D02*
X114691961Y-139460952D01*
X114691961Y-139460952D02*
X114787200Y-139556190D01*
X114787200Y-139556190D02*
X114834819Y-139699047D01*
X114834819Y-139699047D02*
X114834819Y-139794285D01*
X113834819Y-139032380D02*
X113834819Y-138365714D01*
X113834819Y-138365714D02*
X114834819Y-138794285D01*
X115288333Y-124289819D02*
X114955000Y-123813628D01*
X114716905Y-124289819D02*
X114716905Y-123289819D01*
X114716905Y-123289819D02*
X115097857Y-123289819D01*
X115097857Y-123289819D02*
X115193095Y-123337438D01*
X115193095Y-123337438D02*
X115240714Y-123385057D01*
X115240714Y-123385057D02*
X115288333Y-123480295D01*
X115288333Y-123480295D02*
X115288333Y-123623152D01*
X115288333Y-123623152D02*
X115240714Y-123718390D01*
X115240714Y-123718390D02*
X115193095Y-123766009D01*
X115193095Y-123766009D02*
X115097857Y-123813628D01*
X115097857Y-123813628D02*
X114716905Y-123813628D01*
X115621667Y-123289819D02*
X116288333Y-123289819D01*
X116288333Y-123289819D02*
X115859762Y-124289819D01*
X114621666Y-126659819D02*
X114050238Y-126659819D01*
X114335952Y-126659819D02*
X114335952Y-125659819D01*
X114335952Y-125659819D02*
X114240714Y-125802676D01*
X114240714Y-125802676D02*
X114145476Y-125897914D01*
X114145476Y-125897914D02*
X114050238Y-125945533D01*
X115050238Y-126564580D02*
X115097857Y-126612200D01*
X115097857Y-126612200D02*
X115050238Y-126659819D01*
X115050238Y-126659819D02*
X115002619Y-126612200D01*
X115002619Y-126612200D02*
X115050238Y-126564580D01*
X115050238Y-126564580D02*
X115050238Y-126659819D01*
X115669285Y-126088390D02*
X115574047Y-126040771D01*
X115574047Y-126040771D02*
X115526428Y-125993152D01*
X115526428Y-125993152D02*
X115478809Y-125897914D01*
X115478809Y-125897914D02*
X115478809Y-125850295D01*
X115478809Y-125850295D02*
X115526428Y-125755057D01*
X115526428Y-125755057D02*
X115574047Y-125707438D01*
X115574047Y-125707438D02*
X115669285Y-125659819D01*
X115669285Y-125659819D02*
X115859761Y-125659819D01*
X115859761Y-125659819D02*
X115954999Y-125707438D01*
X115954999Y-125707438D02*
X116002618Y-125755057D01*
X116002618Y-125755057D02*
X116050237Y-125850295D01*
X116050237Y-125850295D02*
X116050237Y-125897914D01*
X116050237Y-125897914D02*
X116002618Y-125993152D01*
X116002618Y-125993152D02*
X115954999Y-126040771D01*
X115954999Y-126040771D02*
X115859761Y-126088390D01*
X115859761Y-126088390D02*
X115669285Y-126088390D01*
X115669285Y-126088390D02*
X115574047Y-126136009D01*
X115574047Y-126136009D02*
X115526428Y-126183628D01*
X115526428Y-126183628D02*
X115478809Y-126278866D01*
X115478809Y-126278866D02*
X115478809Y-126469342D01*
X115478809Y-126469342D02*
X115526428Y-126564580D01*
X115526428Y-126564580D02*
X115574047Y-126612200D01*
X115574047Y-126612200D02*
X115669285Y-126659819D01*
X115669285Y-126659819D02*
X115859761Y-126659819D01*
X115859761Y-126659819D02*
X115954999Y-126612200D01*
X115954999Y-126612200D02*
X116002618Y-126564580D01*
X116002618Y-126564580D02*
X116050237Y-126469342D01*
X116050237Y-126469342D02*
X116050237Y-126278866D01*
X116050237Y-126278866D02*
X116002618Y-126183628D01*
X116002618Y-126183628D02*
X115954999Y-126136009D01*
X115954999Y-126136009D02*
X115859761Y-126088390D01*
X116478809Y-126659819D02*
X116478809Y-125659819D01*
X116574047Y-126278866D02*
X116859761Y-126659819D01*
X116859761Y-125993152D02*
X116478809Y-126374104D01*
X128528095Y-102949819D02*
X129099523Y-102949819D01*
X128813809Y-103949819D02*
X128813809Y-102949819D01*
X129432857Y-103949819D02*
X129432857Y-102949819D01*
X129432857Y-102949819D02*
X129766190Y-103664104D01*
X129766190Y-103664104D02*
X130099523Y-102949819D01*
X130099523Y-102949819D02*
X130099523Y-103949819D01*
X131147142Y-103854580D02*
X131099523Y-103902200D01*
X131099523Y-103902200D02*
X130956666Y-103949819D01*
X130956666Y-103949819D02*
X130861428Y-103949819D01*
X130861428Y-103949819D02*
X130718571Y-103902200D01*
X130718571Y-103902200D02*
X130623333Y-103806961D01*
X130623333Y-103806961D02*
X130575714Y-103711723D01*
X130575714Y-103711723D02*
X130528095Y-103521247D01*
X130528095Y-103521247D02*
X130528095Y-103378390D01*
X130528095Y-103378390D02*
X130575714Y-103187914D01*
X130575714Y-103187914D02*
X130623333Y-103092676D01*
X130623333Y-103092676D02*
X130718571Y-102997438D01*
X130718571Y-102997438D02*
X130861428Y-102949819D01*
X130861428Y-102949819D02*
X130956666Y-102949819D01*
X130956666Y-102949819D02*
X131099523Y-102997438D01*
X131099523Y-102997438D02*
X131147142Y-103045057D01*
X132051904Y-102949819D02*
X131575714Y-102949819D01*
X131575714Y-102949819D02*
X131528095Y-103426009D01*
X131528095Y-103426009D02*
X131575714Y-103378390D01*
X131575714Y-103378390D02*
X131670952Y-103330771D01*
X131670952Y-103330771D02*
X131909047Y-103330771D01*
X131909047Y-103330771D02*
X132004285Y-103378390D01*
X132004285Y-103378390D02*
X132051904Y-103426009D01*
X132051904Y-103426009D02*
X132099523Y-103521247D01*
X132099523Y-103521247D02*
X132099523Y-103759342D01*
X132099523Y-103759342D02*
X132051904Y-103854580D01*
X132051904Y-103854580D02*
X132004285Y-103902200D01*
X132004285Y-103902200D02*
X131909047Y-103949819D01*
X131909047Y-103949819D02*
X131670952Y-103949819D01*
X131670952Y-103949819D02*
X131575714Y-103902200D01*
X131575714Y-103902200D02*
X131528095Y-103854580D01*
X133051904Y-103949819D02*
X132480476Y-103949819D01*
X132766190Y-103949819D02*
X132766190Y-102949819D01*
X132766190Y-102949819D02*
X132670952Y-103092676D01*
X132670952Y-103092676D02*
X132575714Y-103187914D01*
X132575714Y-103187914D02*
X132480476Y-103235533D01*
X133909047Y-102949819D02*
X133718571Y-102949819D01*
X133718571Y-102949819D02*
X133623333Y-102997438D01*
X133623333Y-102997438D02*
X133575714Y-103045057D01*
X133575714Y-103045057D02*
X133480476Y-103187914D01*
X133480476Y-103187914D02*
X133432857Y-103378390D01*
X133432857Y-103378390D02*
X133432857Y-103759342D01*
X133432857Y-103759342D02*
X133480476Y-103854580D01*
X133480476Y-103854580D02*
X133528095Y-103902200D01*
X133528095Y-103902200D02*
X133623333Y-103949819D01*
X133623333Y-103949819D02*
X133813809Y-103949819D01*
X133813809Y-103949819D02*
X133909047Y-103902200D01*
X133909047Y-103902200D02*
X133956666Y-103854580D01*
X133956666Y-103854580D02*
X134004285Y-103759342D01*
X134004285Y-103759342D02*
X134004285Y-103521247D01*
X134004285Y-103521247D02*
X133956666Y-103426009D01*
X133956666Y-103426009D02*
X133909047Y-103378390D01*
X133909047Y-103378390D02*
X133813809Y-103330771D01*
X133813809Y-103330771D02*
X133623333Y-103330771D01*
X133623333Y-103330771D02*
X133528095Y-103378390D01*
X133528095Y-103378390D02*
X133480476Y-103426009D01*
X133480476Y-103426009D02*
X133432857Y-103521247D01*
X134623333Y-102949819D02*
X134718571Y-102949819D01*
X134718571Y-102949819D02*
X134813809Y-102997438D01*
X134813809Y-102997438D02*
X134861428Y-103045057D01*
X134861428Y-103045057D02*
X134909047Y-103140295D01*
X134909047Y-103140295D02*
X134956666Y-103330771D01*
X134956666Y-103330771D02*
X134956666Y-103568866D01*
X134956666Y-103568866D02*
X134909047Y-103759342D01*
X134909047Y-103759342D02*
X134861428Y-103854580D01*
X134861428Y-103854580D02*
X134813809Y-103902200D01*
X134813809Y-103902200D02*
X134718571Y-103949819D01*
X134718571Y-103949819D02*
X134623333Y-103949819D01*
X134623333Y-103949819D02*
X134528095Y-103902200D01*
X134528095Y-103902200D02*
X134480476Y-103854580D01*
X134480476Y-103854580D02*
X134432857Y-103759342D01*
X134432857Y-103759342D02*
X134385238Y-103568866D01*
X134385238Y-103568866D02*
X134385238Y-103330771D01*
X134385238Y-103330771D02*
X134432857Y-103140295D01*
X134432857Y-103140295D02*
X134480476Y-103045057D01*
X134480476Y-103045057D02*
X134528095Y-102997438D01*
X134528095Y-102997438D02*
X134623333Y-102949819D01*
X106287142Y-68094819D02*
X105953809Y-67618628D01*
X105715714Y-68094819D02*
X105715714Y-67094819D01*
X105715714Y-67094819D02*
X106096666Y-67094819D01*
X106096666Y-67094819D02*
X106191904Y-67142438D01*
X106191904Y-67142438D02*
X106239523Y-67190057D01*
X106239523Y-67190057D02*
X106287142Y-67285295D01*
X106287142Y-67285295D02*
X106287142Y-67428152D01*
X106287142Y-67428152D02*
X106239523Y-67523390D01*
X106239523Y-67523390D02*
X106191904Y-67571009D01*
X106191904Y-67571009D02*
X106096666Y-67618628D01*
X106096666Y-67618628D02*
X105715714Y-67618628D01*
X107239523Y-68094819D02*
X106668095Y-68094819D01*
X106953809Y-68094819D02*
X106953809Y-67094819D01*
X106953809Y-67094819D02*
X106858571Y-67237676D01*
X106858571Y-67237676D02*
X106763333Y-67332914D01*
X106763333Y-67332914D02*
X106668095Y-67380533D01*
X107858571Y-67094819D02*
X107953809Y-67094819D01*
X107953809Y-67094819D02*
X108049047Y-67142438D01*
X108049047Y-67142438D02*
X108096666Y-67190057D01*
X108096666Y-67190057D02*
X108144285Y-67285295D01*
X108144285Y-67285295D02*
X108191904Y-67475771D01*
X108191904Y-67475771D02*
X108191904Y-67713866D01*
X108191904Y-67713866D02*
X108144285Y-67904342D01*
X108144285Y-67904342D02*
X108096666Y-67999580D01*
X108096666Y-67999580D02*
X108049047Y-68047200D01*
X108049047Y-68047200D02*
X107953809Y-68094819D01*
X107953809Y-68094819D02*
X107858571Y-68094819D01*
X107858571Y-68094819D02*
X107763333Y-68047200D01*
X107763333Y-68047200D02*
X107715714Y-67999580D01*
X107715714Y-67999580D02*
X107668095Y-67904342D01*
X107668095Y-67904342D02*
X107620476Y-67713866D01*
X107620476Y-67713866D02*
X107620476Y-67475771D01*
X107620476Y-67475771D02*
X107668095Y-67285295D01*
X107668095Y-67285295D02*
X107715714Y-67190057D01*
X107715714Y-67190057D02*
X107763333Y-67142438D01*
X107763333Y-67142438D02*
X107858571Y-67094819D01*
X106016666Y-70294819D02*
X105445238Y-70294819D01*
X105730952Y-70294819D02*
X105730952Y-69294819D01*
X105730952Y-69294819D02*
X105635714Y-69437676D01*
X105635714Y-69437676D02*
X105540476Y-69532914D01*
X105540476Y-69532914D02*
X105445238Y-69580533D01*
X106445238Y-70199580D02*
X106492857Y-70247200D01*
X106492857Y-70247200D02*
X106445238Y-70294819D01*
X106445238Y-70294819D02*
X106397619Y-70247200D01*
X106397619Y-70247200D02*
X106445238Y-70199580D01*
X106445238Y-70199580D02*
X106445238Y-70294819D01*
X107064285Y-69723390D02*
X106969047Y-69675771D01*
X106969047Y-69675771D02*
X106921428Y-69628152D01*
X106921428Y-69628152D02*
X106873809Y-69532914D01*
X106873809Y-69532914D02*
X106873809Y-69485295D01*
X106873809Y-69485295D02*
X106921428Y-69390057D01*
X106921428Y-69390057D02*
X106969047Y-69342438D01*
X106969047Y-69342438D02*
X107064285Y-69294819D01*
X107064285Y-69294819D02*
X107254761Y-69294819D01*
X107254761Y-69294819D02*
X107349999Y-69342438D01*
X107349999Y-69342438D02*
X107397618Y-69390057D01*
X107397618Y-69390057D02*
X107445237Y-69485295D01*
X107445237Y-69485295D02*
X107445237Y-69532914D01*
X107445237Y-69532914D02*
X107397618Y-69628152D01*
X107397618Y-69628152D02*
X107349999Y-69675771D01*
X107349999Y-69675771D02*
X107254761Y-69723390D01*
X107254761Y-69723390D02*
X107064285Y-69723390D01*
X107064285Y-69723390D02*
X106969047Y-69771009D01*
X106969047Y-69771009D02*
X106921428Y-69818628D01*
X106921428Y-69818628D02*
X106873809Y-69913866D01*
X106873809Y-69913866D02*
X106873809Y-70104342D01*
X106873809Y-70104342D02*
X106921428Y-70199580D01*
X106921428Y-70199580D02*
X106969047Y-70247200D01*
X106969047Y-70247200D02*
X107064285Y-70294819D01*
X107064285Y-70294819D02*
X107254761Y-70294819D01*
X107254761Y-70294819D02*
X107349999Y-70247200D01*
X107349999Y-70247200D02*
X107397618Y-70199580D01*
X107397618Y-70199580D02*
X107445237Y-70104342D01*
X107445237Y-70104342D02*
X107445237Y-69913866D01*
X107445237Y-69913866D02*
X107397618Y-69818628D01*
X107397618Y-69818628D02*
X107349999Y-69771009D01*
X107349999Y-69771009D02*
X107254761Y-69723390D01*
X107873809Y-70294819D02*
X107873809Y-69294819D01*
X107969047Y-69913866D02*
X108254761Y-70294819D01*
X108254761Y-69628152D02*
X107873809Y-70009104D01*
X94258095Y-119239200D02*
X94400952Y-119286819D01*
X94400952Y-119286819D02*
X94639047Y-119286819D01*
X94639047Y-119286819D02*
X94734285Y-119239200D01*
X94734285Y-119239200D02*
X94781904Y-119191580D01*
X94781904Y-119191580D02*
X94829523Y-119096342D01*
X94829523Y-119096342D02*
X94829523Y-119001104D01*
X94829523Y-119001104D02*
X94781904Y-118905866D01*
X94781904Y-118905866D02*
X94734285Y-118858247D01*
X94734285Y-118858247D02*
X94639047Y-118810628D01*
X94639047Y-118810628D02*
X94448571Y-118763009D01*
X94448571Y-118763009D02*
X94353333Y-118715390D01*
X94353333Y-118715390D02*
X94305714Y-118667771D01*
X94305714Y-118667771D02*
X94258095Y-118572533D01*
X94258095Y-118572533D02*
X94258095Y-118477295D01*
X94258095Y-118477295D02*
X94305714Y-118382057D01*
X94305714Y-118382057D02*
X94353333Y-118334438D01*
X94353333Y-118334438D02*
X94448571Y-118286819D01*
X94448571Y-118286819D02*
X94686666Y-118286819D01*
X94686666Y-118286819D02*
X94829523Y-118334438D01*
X95210476Y-119239200D02*
X95353333Y-119286819D01*
X95353333Y-119286819D02*
X95591428Y-119286819D01*
X95591428Y-119286819D02*
X95686666Y-119239200D01*
X95686666Y-119239200D02*
X95734285Y-119191580D01*
X95734285Y-119191580D02*
X95781904Y-119096342D01*
X95781904Y-119096342D02*
X95781904Y-119001104D01*
X95781904Y-119001104D02*
X95734285Y-118905866D01*
X95734285Y-118905866D02*
X95686666Y-118858247D01*
X95686666Y-118858247D02*
X95591428Y-118810628D01*
X95591428Y-118810628D02*
X95400952Y-118763009D01*
X95400952Y-118763009D02*
X95305714Y-118715390D01*
X95305714Y-118715390D02*
X95258095Y-118667771D01*
X95258095Y-118667771D02*
X95210476Y-118572533D01*
X95210476Y-118572533D02*
X95210476Y-118477295D01*
X95210476Y-118477295D02*
X95258095Y-118382057D01*
X95258095Y-118382057D02*
X95305714Y-118334438D01*
X95305714Y-118334438D02*
X95400952Y-118286819D01*
X95400952Y-118286819D02*
X95639047Y-118286819D01*
X95639047Y-118286819D02*
X95781904Y-118334438D01*
X148158571Y-48894819D02*
X148729999Y-48894819D01*
X148444285Y-49894819D02*
X148444285Y-48894819D01*
X149063333Y-49894819D02*
X149063333Y-48894819D01*
X149063333Y-48894819D02*
X149444285Y-48894819D01*
X149444285Y-48894819D02*
X149539523Y-48942438D01*
X149539523Y-48942438D02*
X149587142Y-48990057D01*
X149587142Y-48990057D02*
X149634761Y-49085295D01*
X149634761Y-49085295D02*
X149634761Y-49228152D01*
X149634761Y-49228152D02*
X149587142Y-49323390D01*
X149587142Y-49323390D02*
X149539523Y-49371009D01*
X149539523Y-49371009D02*
X149444285Y-49418628D01*
X149444285Y-49418628D02*
X149063333Y-49418628D01*
X149825238Y-49990057D02*
X150587142Y-49990057D01*
X150682381Y-48894819D02*
X151015714Y-49894819D01*
X151015714Y-49894819D02*
X151349047Y-48894819D01*
X151634762Y-49847200D02*
X151777619Y-49894819D01*
X151777619Y-49894819D02*
X152015714Y-49894819D01*
X152015714Y-49894819D02*
X152110952Y-49847200D01*
X152110952Y-49847200D02*
X152158571Y-49799580D01*
X152158571Y-49799580D02*
X152206190Y-49704342D01*
X152206190Y-49704342D02*
X152206190Y-49609104D01*
X152206190Y-49609104D02*
X152158571Y-49513866D01*
X152158571Y-49513866D02*
X152110952Y-49466247D01*
X152110952Y-49466247D02*
X152015714Y-49418628D01*
X152015714Y-49418628D02*
X151825238Y-49371009D01*
X151825238Y-49371009D02*
X151730000Y-49323390D01*
X151730000Y-49323390D02*
X151682381Y-49275771D01*
X151682381Y-49275771D02*
X151634762Y-49180533D01*
X151634762Y-49180533D02*
X151634762Y-49085295D01*
X151634762Y-49085295D02*
X151682381Y-48990057D01*
X151682381Y-48990057D02*
X151730000Y-48942438D01*
X151730000Y-48942438D02*
X151825238Y-48894819D01*
X151825238Y-48894819D02*
X152063333Y-48894819D01*
X152063333Y-48894819D02*
X152206190Y-48942438D01*
X86408572Y-119256819D02*
X86408572Y-118256819D01*
X86408572Y-118256819D02*
X86741905Y-118971104D01*
X86741905Y-118971104D02*
X87075238Y-118256819D01*
X87075238Y-118256819D02*
X87075238Y-119256819D01*
X87551429Y-119256819D02*
X87551429Y-118256819D01*
X87980000Y-119209200D02*
X88122857Y-119256819D01*
X88122857Y-119256819D02*
X88360952Y-119256819D01*
X88360952Y-119256819D02*
X88456190Y-119209200D01*
X88456190Y-119209200D02*
X88503809Y-119161580D01*
X88503809Y-119161580D02*
X88551428Y-119066342D01*
X88551428Y-119066342D02*
X88551428Y-118971104D01*
X88551428Y-118971104D02*
X88503809Y-118875866D01*
X88503809Y-118875866D02*
X88456190Y-118828247D01*
X88456190Y-118828247D02*
X88360952Y-118780628D01*
X88360952Y-118780628D02*
X88170476Y-118733009D01*
X88170476Y-118733009D02*
X88075238Y-118685390D01*
X88075238Y-118685390D02*
X88027619Y-118637771D01*
X88027619Y-118637771D02*
X87980000Y-118542533D01*
X87980000Y-118542533D02*
X87980000Y-118447295D01*
X87980000Y-118447295D02*
X88027619Y-118352057D01*
X88027619Y-118352057D02*
X88075238Y-118304438D01*
X88075238Y-118304438D02*
X88170476Y-118256819D01*
X88170476Y-118256819D02*
X88408571Y-118256819D01*
X88408571Y-118256819D02*
X88551428Y-118304438D01*
X89170476Y-118256819D02*
X89360952Y-118256819D01*
X89360952Y-118256819D02*
X89456190Y-118304438D01*
X89456190Y-118304438D02*
X89551428Y-118399676D01*
X89551428Y-118399676D02*
X89599047Y-118590152D01*
X89599047Y-118590152D02*
X89599047Y-118923485D01*
X89599047Y-118923485D02*
X89551428Y-119113961D01*
X89551428Y-119113961D02*
X89456190Y-119209200D01*
X89456190Y-119209200D02*
X89360952Y-119256819D01*
X89360952Y-119256819D02*
X89170476Y-119256819D01*
X89170476Y-119256819D02*
X89075238Y-119209200D01*
X89075238Y-119209200D02*
X88980000Y-119113961D01*
X88980000Y-119113961D02*
X88932381Y-118923485D01*
X88932381Y-118923485D02*
X88932381Y-118590152D01*
X88932381Y-118590152D02*
X88980000Y-118399676D01*
X88980000Y-118399676D02*
X89075238Y-118304438D01*
X89075238Y-118304438D02*
X89170476Y-118256819D01*
X93873333Y-124094819D02*
X93540000Y-123618628D01*
X93301905Y-124094819D02*
X93301905Y-123094819D01*
X93301905Y-123094819D02*
X93682857Y-123094819D01*
X93682857Y-123094819D02*
X93778095Y-123142438D01*
X93778095Y-123142438D02*
X93825714Y-123190057D01*
X93825714Y-123190057D02*
X93873333Y-123285295D01*
X93873333Y-123285295D02*
X93873333Y-123428152D01*
X93873333Y-123428152D02*
X93825714Y-123523390D01*
X93825714Y-123523390D02*
X93778095Y-123571009D01*
X93778095Y-123571009D02*
X93682857Y-123618628D01*
X93682857Y-123618628D02*
X93301905Y-123618628D01*
X94206667Y-123094819D02*
X94825714Y-123094819D01*
X94825714Y-123094819D02*
X94492381Y-123475771D01*
X94492381Y-123475771D02*
X94635238Y-123475771D01*
X94635238Y-123475771D02*
X94730476Y-123523390D01*
X94730476Y-123523390D02*
X94778095Y-123571009D01*
X94778095Y-123571009D02*
X94825714Y-123666247D01*
X94825714Y-123666247D02*
X94825714Y-123904342D01*
X94825714Y-123904342D02*
X94778095Y-123999580D01*
X94778095Y-123999580D02*
X94730476Y-124047200D01*
X94730476Y-124047200D02*
X94635238Y-124094819D01*
X94635238Y-124094819D02*
X94349524Y-124094819D01*
X94349524Y-124094819D02*
X94254286Y-124047200D01*
X94254286Y-124047200D02*
X94206667Y-123999580D01*
X93281666Y-126659819D02*
X92710238Y-126659819D01*
X92995952Y-126659819D02*
X92995952Y-125659819D01*
X92995952Y-125659819D02*
X92900714Y-125802676D01*
X92900714Y-125802676D02*
X92805476Y-125897914D01*
X92805476Y-125897914D02*
X92710238Y-125945533D01*
X93710238Y-126564580D02*
X93757857Y-126612200D01*
X93757857Y-126612200D02*
X93710238Y-126659819D01*
X93710238Y-126659819D02*
X93662619Y-126612200D01*
X93662619Y-126612200D02*
X93710238Y-126564580D01*
X93710238Y-126564580D02*
X93710238Y-126659819D01*
X94329285Y-126088390D02*
X94234047Y-126040771D01*
X94234047Y-126040771D02*
X94186428Y-125993152D01*
X94186428Y-125993152D02*
X94138809Y-125897914D01*
X94138809Y-125897914D02*
X94138809Y-125850295D01*
X94138809Y-125850295D02*
X94186428Y-125755057D01*
X94186428Y-125755057D02*
X94234047Y-125707438D01*
X94234047Y-125707438D02*
X94329285Y-125659819D01*
X94329285Y-125659819D02*
X94519761Y-125659819D01*
X94519761Y-125659819D02*
X94614999Y-125707438D01*
X94614999Y-125707438D02*
X94662618Y-125755057D01*
X94662618Y-125755057D02*
X94710237Y-125850295D01*
X94710237Y-125850295D02*
X94710237Y-125897914D01*
X94710237Y-125897914D02*
X94662618Y-125993152D01*
X94662618Y-125993152D02*
X94614999Y-126040771D01*
X94614999Y-126040771D02*
X94519761Y-126088390D01*
X94519761Y-126088390D02*
X94329285Y-126088390D01*
X94329285Y-126088390D02*
X94234047Y-126136009D01*
X94234047Y-126136009D02*
X94186428Y-126183628D01*
X94186428Y-126183628D02*
X94138809Y-126278866D01*
X94138809Y-126278866D02*
X94138809Y-126469342D01*
X94138809Y-126469342D02*
X94186428Y-126564580D01*
X94186428Y-126564580D02*
X94234047Y-126612200D01*
X94234047Y-126612200D02*
X94329285Y-126659819D01*
X94329285Y-126659819D02*
X94519761Y-126659819D01*
X94519761Y-126659819D02*
X94614999Y-126612200D01*
X94614999Y-126612200D02*
X94662618Y-126564580D01*
X94662618Y-126564580D02*
X94710237Y-126469342D01*
X94710237Y-126469342D02*
X94710237Y-126278866D01*
X94710237Y-126278866D02*
X94662618Y-126183628D01*
X94662618Y-126183628D02*
X94614999Y-126136009D01*
X94614999Y-126136009D02*
X94519761Y-126088390D01*
X95138809Y-126659819D02*
X95138809Y-125659819D01*
X95234047Y-126278866D02*
X95519761Y-126659819D01*
X95519761Y-125993152D02*
X95138809Y-126374104D01*
X104239580Y-47636666D02*
X104287200Y-47684285D01*
X104287200Y-47684285D02*
X104334819Y-47827142D01*
X104334819Y-47827142D02*
X104334819Y-47922380D01*
X104334819Y-47922380D02*
X104287200Y-48065237D01*
X104287200Y-48065237D02*
X104191961Y-48160475D01*
X104191961Y-48160475D02*
X104096723Y-48208094D01*
X104096723Y-48208094D02*
X103906247Y-48255713D01*
X103906247Y-48255713D02*
X103763390Y-48255713D01*
X103763390Y-48255713D02*
X103572914Y-48208094D01*
X103572914Y-48208094D02*
X103477676Y-48160475D01*
X103477676Y-48160475D02*
X103382438Y-48065237D01*
X103382438Y-48065237D02*
X103334819Y-47922380D01*
X103334819Y-47922380D02*
X103334819Y-47827142D01*
X103334819Y-47827142D02*
X103382438Y-47684285D01*
X103382438Y-47684285D02*
X103430057Y-47636666D01*
X103430057Y-47255713D02*
X103382438Y-47208094D01*
X103382438Y-47208094D02*
X103334819Y-47112856D01*
X103334819Y-47112856D02*
X103334819Y-46874761D01*
X103334819Y-46874761D02*
X103382438Y-46779523D01*
X103382438Y-46779523D02*
X103430057Y-46731904D01*
X103430057Y-46731904D02*
X103525295Y-46684285D01*
X103525295Y-46684285D02*
X103620533Y-46684285D01*
X103620533Y-46684285D02*
X103763390Y-46731904D01*
X103763390Y-46731904D02*
X104334819Y-47303332D01*
X104334819Y-47303332D02*
X104334819Y-46684285D01*
X130784819Y-139413333D02*
X131499104Y-139413333D01*
X131499104Y-139413333D02*
X131641961Y-139460952D01*
X131641961Y-139460952D02*
X131737200Y-139556190D01*
X131737200Y-139556190D02*
X131784819Y-139699047D01*
X131784819Y-139699047D02*
X131784819Y-139794285D01*
X131213390Y-138794285D02*
X131165771Y-138889523D01*
X131165771Y-138889523D02*
X131118152Y-138937142D01*
X131118152Y-138937142D02*
X131022914Y-138984761D01*
X131022914Y-138984761D02*
X130975295Y-138984761D01*
X130975295Y-138984761D02*
X130880057Y-138937142D01*
X130880057Y-138937142D02*
X130832438Y-138889523D01*
X130832438Y-138889523D02*
X130784819Y-138794285D01*
X130784819Y-138794285D02*
X130784819Y-138603809D01*
X130784819Y-138603809D02*
X130832438Y-138508571D01*
X130832438Y-138508571D02*
X130880057Y-138460952D01*
X130880057Y-138460952D02*
X130975295Y-138413333D01*
X130975295Y-138413333D02*
X131022914Y-138413333D01*
X131022914Y-138413333D02*
X131118152Y-138460952D01*
X131118152Y-138460952D02*
X131165771Y-138508571D01*
X131165771Y-138508571D02*
X131213390Y-138603809D01*
X131213390Y-138603809D02*
X131213390Y-138794285D01*
X131213390Y-138794285D02*
X131261009Y-138889523D01*
X131261009Y-138889523D02*
X131308628Y-138937142D01*
X131308628Y-138937142D02*
X131403866Y-138984761D01*
X131403866Y-138984761D02*
X131594342Y-138984761D01*
X131594342Y-138984761D02*
X131689580Y-138937142D01*
X131689580Y-138937142D02*
X131737200Y-138889523D01*
X131737200Y-138889523D02*
X131784819Y-138794285D01*
X131784819Y-138794285D02*
X131784819Y-138603809D01*
X131784819Y-138603809D02*
X131737200Y-138508571D01*
X131737200Y-138508571D02*
X131689580Y-138460952D01*
X131689580Y-138460952D02*
X131594342Y-138413333D01*
X131594342Y-138413333D02*
X131403866Y-138413333D01*
X131403866Y-138413333D02*
X131308628Y-138460952D01*
X131308628Y-138460952D02*
X131261009Y-138508571D01*
X131261009Y-138508571D02*
X131213390Y-138603809D01*
X108510952Y-81471009D02*
X108844285Y-81471009D01*
X108987142Y-81994819D02*
X108510952Y-81994819D01*
X108510952Y-81994819D02*
X108510952Y-80994819D01*
X108510952Y-80994819D02*
X108987142Y-80994819D01*
X109939523Y-81994819D02*
X109368095Y-81994819D01*
X109653809Y-81994819D02*
X109653809Y-80994819D01*
X109653809Y-80994819D02*
X109558571Y-81137676D01*
X109558571Y-81137676D02*
X109463333Y-81232914D01*
X109463333Y-81232914D02*
X109368095Y-81280533D01*
X110320476Y-81709104D02*
X110796666Y-81709104D01*
X110225238Y-81994819D02*
X110558571Y-80994819D01*
X110558571Y-80994819D02*
X110891904Y-81994819D01*
X91368095Y-81234438D02*
X91272857Y-81186819D01*
X91272857Y-81186819D02*
X91130000Y-81186819D01*
X91130000Y-81186819D02*
X90987143Y-81234438D01*
X90987143Y-81234438D02*
X90891905Y-81329676D01*
X90891905Y-81329676D02*
X90844286Y-81424914D01*
X90844286Y-81424914D02*
X90796667Y-81615390D01*
X90796667Y-81615390D02*
X90796667Y-81758247D01*
X90796667Y-81758247D02*
X90844286Y-81948723D01*
X90844286Y-81948723D02*
X90891905Y-82043961D01*
X90891905Y-82043961D02*
X90987143Y-82139200D01*
X90987143Y-82139200D02*
X91130000Y-82186819D01*
X91130000Y-82186819D02*
X91225238Y-82186819D01*
X91225238Y-82186819D02*
X91368095Y-82139200D01*
X91368095Y-82139200D02*
X91415714Y-82091580D01*
X91415714Y-82091580D02*
X91415714Y-81758247D01*
X91415714Y-81758247D02*
X91225238Y-81758247D01*
X91844286Y-82186819D02*
X91844286Y-81186819D01*
X91844286Y-81186819D02*
X92415714Y-82186819D01*
X92415714Y-82186819D02*
X92415714Y-81186819D01*
X92891905Y-82186819D02*
X92891905Y-81186819D01*
X92891905Y-81186819D02*
X93130000Y-81186819D01*
X93130000Y-81186819D02*
X93272857Y-81234438D01*
X93272857Y-81234438D02*
X93368095Y-81329676D01*
X93368095Y-81329676D02*
X93415714Y-81424914D01*
X93415714Y-81424914D02*
X93463333Y-81615390D01*
X93463333Y-81615390D02*
X93463333Y-81758247D01*
X93463333Y-81758247D02*
X93415714Y-81948723D01*
X93415714Y-81948723D02*
X93368095Y-82043961D01*
X93368095Y-82043961D02*
X93272857Y-82139200D01*
X93272857Y-82139200D02*
X93130000Y-82186819D01*
X93130000Y-82186819D02*
X92891905Y-82186819D01*
X104344819Y-91183333D02*
X105059104Y-91183333D01*
X105059104Y-91183333D02*
X105201961Y-91230952D01*
X105201961Y-91230952D02*
X105297200Y-91326190D01*
X105297200Y-91326190D02*
X105344819Y-91469047D01*
X105344819Y-91469047D02*
X105344819Y-91564285D01*
X105344819Y-90707142D02*
X104344819Y-90707142D01*
X104344819Y-90707142D02*
X104344819Y-90326190D01*
X104344819Y-90326190D02*
X104392438Y-90230952D01*
X104392438Y-90230952D02*
X104440057Y-90183333D01*
X104440057Y-90183333D02*
X104535295Y-90135714D01*
X104535295Y-90135714D02*
X104678152Y-90135714D01*
X104678152Y-90135714D02*
X104773390Y-90183333D01*
X104773390Y-90183333D02*
X104821009Y-90230952D01*
X104821009Y-90230952D02*
X104868628Y-90326190D01*
X104868628Y-90326190D02*
X104868628Y-90707142D01*
X105344819Y-89183333D02*
X105344819Y-89754761D01*
X105344819Y-89469047D02*
X104344819Y-89469047D01*
X104344819Y-89469047D02*
X104487676Y-89564285D01*
X104487676Y-89564285D02*
X104582914Y-89659523D01*
X104582914Y-89659523D02*
X104630533Y-89754761D01*
X94397142Y-67844819D02*
X94063809Y-67368628D01*
X93825714Y-67844819D02*
X93825714Y-66844819D01*
X93825714Y-66844819D02*
X94206666Y-66844819D01*
X94206666Y-66844819D02*
X94301904Y-66892438D01*
X94301904Y-66892438D02*
X94349523Y-66940057D01*
X94349523Y-66940057D02*
X94397142Y-67035295D01*
X94397142Y-67035295D02*
X94397142Y-67178152D01*
X94397142Y-67178152D02*
X94349523Y-67273390D01*
X94349523Y-67273390D02*
X94301904Y-67321009D01*
X94301904Y-67321009D02*
X94206666Y-67368628D01*
X94206666Y-67368628D02*
X93825714Y-67368628D01*
X95349523Y-67844819D02*
X94778095Y-67844819D01*
X95063809Y-67844819D02*
X95063809Y-66844819D01*
X95063809Y-66844819D02*
X94968571Y-66987676D01*
X94968571Y-66987676D02*
X94873333Y-67082914D01*
X94873333Y-67082914D02*
X94778095Y-67130533D01*
X96301904Y-67844819D02*
X95730476Y-67844819D01*
X96016190Y-67844819D02*
X96016190Y-66844819D01*
X96016190Y-66844819D02*
X95920952Y-66987676D01*
X95920952Y-66987676D02*
X95825714Y-67082914D01*
X95825714Y-67082914D02*
X95730476Y-67130533D01*
X93607619Y-69304819D02*
X94226666Y-69304819D01*
X94226666Y-69304819D02*
X93893333Y-69685771D01*
X93893333Y-69685771D02*
X94036190Y-69685771D01*
X94036190Y-69685771D02*
X94131428Y-69733390D01*
X94131428Y-69733390D02*
X94179047Y-69781009D01*
X94179047Y-69781009D02*
X94226666Y-69876247D01*
X94226666Y-69876247D02*
X94226666Y-70114342D01*
X94226666Y-70114342D02*
X94179047Y-70209580D01*
X94179047Y-70209580D02*
X94131428Y-70257200D01*
X94131428Y-70257200D02*
X94036190Y-70304819D01*
X94036190Y-70304819D02*
X93750476Y-70304819D01*
X93750476Y-70304819D02*
X93655238Y-70257200D01*
X93655238Y-70257200D02*
X93607619Y-70209580D01*
X94655238Y-70209580D02*
X94702857Y-70257200D01*
X94702857Y-70257200D02*
X94655238Y-70304819D01*
X94655238Y-70304819D02*
X94607619Y-70257200D01*
X94607619Y-70257200D02*
X94655238Y-70209580D01*
X94655238Y-70209580D02*
X94655238Y-70304819D01*
X95036190Y-69304819D02*
X95655237Y-69304819D01*
X95655237Y-69304819D02*
X95321904Y-69685771D01*
X95321904Y-69685771D02*
X95464761Y-69685771D01*
X95464761Y-69685771D02*
X95559999Y-69733390D01*
X95559999Y-69733390D02*
X95607618Y-69781009D01*
X95607618Y-69781009D02*
X95655237Y-69876247D01*
X95655237Y-69876247D02*
X95655237Y-70114342D01*
X95655237Y-70114342D02*
X95607618Y-70209580D01*
X95607618Y-70209580D02*
X95559999Y-70257200D01*
X95559999Y-70257200D02*
X95464761Y-70304819D01*
X95464761Y-70304819D02*
X95179047Y-70304819D01*
X95179047Y-70304819D02*
X95083809Y-70257200D01*
X95083809Y-70257200D02*
X95036190Y-70209580D01*
X96083809Y-70304819D02*
X96083809Y-69304819D01*
X96179047Y-69923866D02*
X96464761Y-70304819D01*
X96464761Y-69638152D02*
X96083809Y-70019104D01*
X105004819Y-58038094D02*
X104004819Y-58038094D01*
X104004819Y-58038094D02*
X104004819Y-57799999D01*
X104004819Y-57799999D02*
X104052438Y-57657142D01*
X104052438Y-57657142D02*
X104147676Y-57561904D01*
X104147676Y-57561904D02*
X104242914Y-57514285D01*
X104242914Y-57514285D02*
X104433390Y-57466666D01*
X104433390Y-57466666D02*
X104576247Y-57466666D01*
X104576247Y-57466666D02*
X104766723Y-57514285D01*
X104766723Y-57514285D02*
X104861961Y-57561904D01*
X104861961Y-57561904D02*
X104957200Y-57657142D01*
X104957200Y-57657142D02*
X105004819Y-57799999D01*
X105004819Y-57799999D02*
X105004819Y-58038094D01*
X105004819Y-56514285D02*
X105004819Y-57085713D01*
X105004819Y-56799999D02*
X104004819Y-56799999D01*
X104004819Y-56799999D02*
X104147676Y-56895237D01*
X104147676Y-56895237D02*
X104242914Y-56990475D01*
X104242914Y-56990475D02*
X104290533Y-57085713D01*
X104284819Y-52481904D02*
X103284819Y-52481904D01*
X104284819Y-51910476D02*
X103713390Y-52339047D01*
X103284819Y-51910476D02*
X103856247Y-52481904D01*
X94467142Y-73094819D02*
X94133809Y-72618628D01*
X93895714Y-73094819D02*
X93895714Y-72094819D01*
X93895714Y-72094819D02*
X94276666Y-72094819D01*
X94276666Y-72094819D02*
X94371904Y-72142438D01*
X94371904Y-72142438D02*
X94419523Y-72190057D01*
X94419523Y-72190057D02*
X94467142Y-72285295D01*
X94467142Y-72285295D02*
X94467142Y-72428152D01*
X94467142Y-72428152D02*
X94419523Y-72523390D01*
X94419523Y-72523390D02*
X94371904Y-72571009D01*
X94371904Y-72571009D02*
X94276666Y-72618628D01*
X94276666Y-72618628D02*
X93895714Y-72618628D01*
X95419523Y-73094819D02*
X94848095Y-73094819D01*
X95133809Y-73094819D02*
X95133809Y-72094819D01*
X95133809Y-72094819D02*
X95038571Y-72237676D01*
X95038571Y-72237676D02*
X94943333Y-72332914D01*
X94943333Y-72332914D02*
X94848095Y-72380533D01*
X95800476Y-72190057D02*
X95848095Y-72142438D01*
X95848095Y-72142438D02*
X95943333Y-72094819D01*
X95943333Y-72094819D02*
X96181428Y-72094819D01*
X96181428Y-72094819D02*
X96276666Y-72142438D01*
X96276666Y-72142438D02*
X96324285Y-72190057D01*
X96324285Y-72190057D02*
X96371904Y-72285295D01*
X96371904Y-72285295D02*
X96371904Y-72380533D01*
X96371904Y-72380533D02*
X96324285Y-72523390D01*
X96324285Y-72523390D02*
X95752857Y-73094819D01*
X95752857Y-73094819D02*
X96371904Y-73094819D01*
X93607619Y-74514819D02*
X94226666Y-74514819D01*
X94226666Y-74514819D02*
X93893333Y-74895771D01*
X93893333Y-74895771D02*
X94036190Y-74895771D01*
X94036190Y-74895771D02*
X94131428Y-74943390D01*
X94131428Y-74943390D02*
X94179047Y-74991009D01*
X94179047Y-74991009D02*
X94226666Y-75086247D01*
X94226666Y-75086247D02*
X94226666Y-75324342D01*
X94226666Y-75324342D02*
X94179047Y-75419580D01*
X94179047Y-75419580D02*
X94131428Y-75467200D01*
X94131428Y-75467200D02*
X94036190Y-75514819D01*
X94036190Y-75514819D02*
X93750476Y-75514819D01*
X93750476Y-75514819D02*
X93655238Y-75467200D01*
X93655238Y-75467200D02*
X93607619Y-75419580D01*
X94655238Y-75419580D02*
X94702857Y-75467200D01*
X94702857Y-75467200D02*
X94655238Y-75514819D01*
X94655238Y-75514819D02*
X94607619Y-75467200D01*
X94607619Y-75467200D02*
X94655238Y-75419580D01*
X94655238Y-75419580D02*
X94655238Y-75514819D01*
X95036190Y-74514819D02*
X95655237Y-74514819D01*
X95655237Y-74514819D02*
X95321904Y-74895771D01*
X95321904Y-74895771D02*
X95464761Y-74895771D01*
X95464761Y-74895771D02*
X95559999Y-74943390D01*
X95559999Y-74943390D02*
X95607618Y-74991009D01*
X95607618Y-74991009D02*
X95655237Y-75086247D01*
X95655237Y-75086247D02*
X95655237Y-75324342D01*
X95655237Y-75324342D02*
X95607618Y-75419580D01*
X95607618Y-75419580D02*
X95559999Y-75467200D01*
X95559999Y-75467200D02*
X95464761Y-75514819D01*
X95464761Y-75514819D02*
X95179047Y-75514819D01*
X95179047Y-75514819D02*
X95083809Y-75467200D01*
X95083809Y-75467200D02*
X95036190Y-75419580D01*
X96083809Y-75514819D02*
X96083809Y-74514819D01*
X96179047Y-75133866D02*
X96464761Y-75514819D01*
X96464761Y-74848152D02*
X96083809Y-75229104D01*
%TO.C,J9*%
D14*
X148415000Y-66930000D02*
X148415000Y-74610000D01*
X148415000Y-66930000D02*
X151075000Y-66930000D01*
X148415000Y-74610000D02*
X151075000Y-74610000D01*
X149745000Y-64330000D02*
X151075000Y-64330000D01*
X151075000Y-64330000D02*
X151075000Y-65660000D01*
X151075000Y-66930000D02*
X151075000Y-74610000D01*
%TO.C,U1*%
D11*
X87500000Y-101750000D02*
X95500000Y-101750000D01*
X95500000Y-110750000D01*
X87500000Y-110750000D01*
X87500000Y-101750000D01*
X89230000Y-97250000D02*
X110820000Y-97250000D01*
X110820000Y-115250000D01*
X89230000Y-115250000D01*
X89230000Y-97250000D01*
%TO.C,EN*%
D14*
X103160000Y-120870000D02*
G75*
G02*
X100760000Y-120870000I-1200000J0D01*
G01*
X100760000Y-120870000D02*
G75*
G02*
X103160000Y-120870000I1200000J0D01*
G01*
%TO.C,MOSI*%
X92750000Y-120810000D02*
G75*
G02*
X90350000Y-120810000I-1200000J0D01*
G01*
X90350000Y-120810000D02*
G75*
G02*
X92750000Y-120810000I1200000J0D01*
G01*
%TO.C,U4*%
X118565000Y-44060000D02*
X140765000Y-44060000D01*
X118565000Y-88555000D02*
X118565000Y-44060000D01*
D12*
X127765000Y-53230000D02*
X129965000Y-55430000D01*
X129965000Y-48280000D02*
X129965000Y-55430000D01*
X129965000Y-55430000D02*
X127765000Y-53230000D01*
X129965000Y-55430000D02*
X132165000Y-53230000D01*
D14*
X140765000Y-44080000D02*
X140765000Y-88555000D01*
X140765000Y-88555000D02*
X118565000Y-88555000D01*
%TO.C,R2*%
X90820000Y-129485000D02*
X97360000Y-129485000D01*
X90820000Y-129815000D02*
X90820000Y-129485000D01*
X90820000Y-131895000D02*
X90820000Y-132225000D01*
X90820000Y-132225000D02*
X97360000Y-132225000D01*
X97360000Y-129485000D02*
X97360000Y-129815000D01*
X97360000Y-132225000D02*
X97360000Y-131895000D01*
%TO.C,R9*%
X103580000Y-73720000D02*
X103580000Y-74050000D01*
X103580000Y-76460000D02*
X103580000Y-76130000D01*
X110120000Y-73720000D02*
X103580000Y-73720000D01*
X110120000Y-74050000D02*
X110120000Y-73720000D01*
X110120000Y-76130000D02*
X110120000Y-76460000D01*
X110120000Y-76460000D02*
X103580000Y-76460000D01*
%TO.C,J6*%
X98875000Y-137750000D02*
X100205000Y-137750000D01*
X98875000Y-139080000D02*
X98875000Y-137750000D01*
X101475000Y-137750000D02*
X109155000Y-137750000D01*
X101475000Y-140410000D02*
X101475000Y-137750000D01*
X101475000Y-140410000D02*
X109155000Y-140410000D01*
X109155000Y-140410000D02*
X109155000Y-137750000D01*
%TO.C,R8*%
X112190000Y-129510000D02*
X118730000Y-129510000D01*
X112190000Y-129840000D02*
X112190000Y-129510000D01*
X112190000Y-131920000D02*
X112190000Y-132250000D01*
X112190000Y-132250000D02*
X118730000Y-132250000D01*
X118730000Y-129510000D02*
X118730000Y-129840000D01*
X118730000Y-132250000D02*
X118730000Y-131920000D01*
%TO.C,J1*%
X87890000Y-50980000D02*
X97930000Y-50980000D01*
X87890000Y-53340000D02*
X87890000Y-50980000D01*
X87890000Y-61380000D02*
X87890000Y-53940000D01*
X88510000Y-50980000D02*
X88510000Y-61380000D01*
X90010000Y-50980000D02*
X90010000Y-61380000D01*
X94910000Y-50980000D02*
X94910000Y-61380000D01*
X97930000Y-50980000D02*
X97930000Y-61380000D01*
X97930000Y-61380000D02*
X87890000Y-61380000D01*
X87890000Y-53640000D02*
X87280000Y-54080000D01*
X87280000Y-53200000D01*
X87890000Y-53640000D01*
G36*
X87890000Y-53640000D02*
G01*
X87280000Y-54080000D01*
X87280000Y-53200000D01*
X87890000Y-53640000D01*
G37*
%TO.C,C1*%
X88580000Y-91940000D02*
X93820000Y-91940000D01*
X88580000Y-92277000D02*
X88580000Y-91940000D01*
X88580000Y-94680000D02*
X88580000Y-94343000D01*
X93820000Y-91940000D02*
X93820000Y-92277000D01*
X93820000Y-94343000D02*
X93820000Y-94680000D01*
X93820000Y-94680000D02*
X88580000Y-94680000D01*
%TO.C,R4*%
X101360000Y-124860000D02*
X107900000Y-124860000D01*
X101360000Y-125190000D02*
X101360000Y-124860000D01*
X101360000Y-127270000D02*
X101360000Y-127600000D01*
X101360000Y-127600000D02*
X107900000Y-127600000D01*
X107900000Y-124860000D02*
X107900000Y-125190000D01*
X107900000Y-127600000D02*
X107900000Y-127270000D01*
%TO.C,3V3*%
X97690000Y-83760000D02*
G75*
G02*
X95290000Y-83760000I-1200000J0D01*
G01*
X95290000Y-83760000D02*
G75*
G02*
X97690000Y-83760000I1200000J0D01*
G01*
%TO.C,R1*%
X101360000Y-129510000D02*
X107900000Y-129510000D01*
X101360000Y-129840000D02*
X101360000Y-129510000D01*
X101360000Y-131920000D02*
X101360000Y-132250000D01*
X101360000Y-132250000D02*
X107900000Y-132250000D01*
X107900000Y-129510000D02*
X107900000Y-129840000D01*
X107900000Y-132250000D02*
X107900000Y-131920000D01*
%TO.C,J5*%
X137455000Y-127610000D02*
X137455000Y-126230000D01*
X138835000Y-127610000D02*
X137455000Y-127610000D01*
X140105000Y-124850000D02*
X147835000Y-124850000D01*
X140105000Y-127610000D02*
X140105000Y-124850000D01*
X140105000Y-127610000D02*
X147835000Y-127610000D01*
X147835000Y-127610000D02*
X147835000Y-124850000D01*
%TO.C,SCK*%
X99690000Y-120850000D02*
G75*
G02*
X97290000Y-120850000I-1200000J0D01*
G01*
X97290000Y-120850000D02*
G75*
G02*
X99690000Y-120850000I1200000J0D01*
G01*
%TO.C,J10*%
X148415000Y-81325000D02*
X148415000Y-89005000D01*
X148415000Y-81325000D02*
X151075000Y-81325000D01*
X148415000Y-89005000D02*
X151075000Y-89005000D01*
X149745000Y-78725000D02*
X151075000Y-78725000D01*
X151075000Y-78725000D02*
X151075000Y-80055000D01*
X151075000Y-81325000D02*
X151075000Y-89005000D01*
%TO.C,R5*%
X122465000Y-129510000D02*
X129005000Y-129510000D01*
X122465000Y-129840000D02*
X122465000Y-129510000D01*
X122465000Y-131920000D02*
X122465000Y-132250000D01*
X122465000Y-132250000D02*
X129005000Y-132250000D01*
X129005000Y-129510000D02*
X129005000Y-129840000D01*
X129005000Y-132250000D02*
X129005000Y-131920000D01*
%TO.C,5V*%
X102040000Y-83770000D02*
G75*
G02*
X99640000Y-83770000I-1200000J0D01*
G01*
X99640000Y-83770000D02*
G75*
G02*
X102040000Y-83770000I1200000J0D01*
G01*
%TO.C,R6*%
X122460000Y-124835000D02*
X129000000Y-124835000D01*
X122460000Y-125165000D02*
X122460000Y-124835000D01*
X122460000Y-127245000D02*
X122460000Y-127575000D01*
X122460000Y-127575000D02*
X129000000Y-127575000D01*
X129000000Y-124835000D02*
X129000000Y-125165000D01*
X129000000Y-127575000D02*
X129000000Y-127245000D01*
%TO.C,E1B*%
X106390000Y-83780000D02*
G75*
G02*
X103990000Y-83780000I-1200000J0D01*
G01*
X103990000Y-83780000D02*
G75*
G02*
X106390000Y-83780000I1200000J0D01*
G01*
%TO.C,J7*%
X115820000Y-137750000D02*
X117150000Y-137750000D01*
X115820000Y-139080000D02*
X115820000Y-137750000D01*
X118420000Y-137750000D02*
X126100000Y-137750000D01*
X118420000Y-140410000D02*
X118420000Y-137750000D01*
X118420000Y-140410000D02*
X126100000Y-140410000D01*
X126100000Y-140410000D02*
X126100000Y-137750000D01*
%TO.C,R7*%
X112185000Y-124835000D02*
X118725000Y-124835000D01*
X112185000Y-125165000D02*
X112185000Y-124835000D01*
X112185000Y-127245000D02*
X112185000Y-127575000D01*
X112185000Y-127575000D02*
X118725000Y-127575000D01*
X118725000Y-124835000D02*
X118725000Y-125165000D01*
X118725000Y-127575000D02*
X118725000Y-127245000D01*
%TO.C,U3*%
D12*
X116550000Y-92065000D02*
X116550000Y-120005000D01*
X149570000Y-92065000D02*
X149570000Y-120005000D01*
X114010000Y-92065000D02*
X152110000Y-92065000D01*
X152110000Y-120005000D01*
X114010000Y-120005000D01*
X114010000Y-92065000D01*
%TO.C,R10*%
D14*
X103580000Y-68470000D02*
X103580000Y-68800000D01*
X103580000Y-71210000D02*
X103580000Y-70880000D01*
X110120000Y-68470000D02*
X103580000Y-68470000D01*
X110120000Y-68800000D02*
X110120000Y-68470000D01*
X110120000Y-70880000D02*
X110120000Y-71210000D01*
X110120000Y-71210000D02*
X103580000Y-71210000D01*
%TO.C,SS*%
X96220000Y-120830000D02*
G75*
G02*
X93820000Y-120830000I-1200000J0D01*
G01*
X93820000Y-120830000D02*
G75*
G02*
X96220000Y-120830000I1200000J0D01*
G01*
%TO.C,TP_VS*%
X151250000Y-52140000D02*
G75*
G02*
X148850000Y-52140000I-1200000J0D01*
G01*
X148850000Y-52140000D02*
G75*
G02*
X151250000Y-52140000I1200000J0D01*
G01*
%TO.C,MISO*%
X89180000Y-120800000D02*
G75*
G02*
X86780000Y-120800000I-1200000J0D01*
G01*
X86780000Y-120800000D02*
G75*
G02*
X89180000Y-120800000I1200000J0D01*
G01*
%TO.C,R3*%
X90845000Y-124835000D02*
X97385000Y-124835000D01*
X90845000Y-125165000D02*
X90845000Y-124835000D01*
X90845000Y-127245000D02*
X90845000Y-127575000D01*
X90845000Y-127575000D02*
X97385000Y-127575000D01*
X97385000Y-124835000D02*
X97385000Y-125165000D01*
X97385000Y-127575000D02*
X97385000Y-127245000D01*
%TO.C,C2*%
X105050000Y-47430000D02*
X115210000Y-47430000D01*
X105050000Y-47470000D02*
X115210000Y-47470000D01*
X105051000Y-47350000D02*
X115209000Y-47350000D01*
X105051000Y-47390000D02*
X115209000Y-47390000D01*
X105053000Y-47310000D02*
X115207000Y-47310000D01*
X105054000Y-47270000D02*
X115206000Y-47270000D01*
X105056000Y-47230000D02*
X115204000Y-47230000D01*
X105058000Y-47190000D02*
X115202000Y-47190000D01*
X105060000Y-47150000D02*
X115200000Y-47150000D01*
X105063000Y-47110000D02*
X115197000Y-47110000D01*
X105066000Y-47070000D02*
X115194000Y-47070000D01*
X105069000Y-47030000D02*
X115191000Y-47030000D01*
X105073000Y-46990000D02*
X115187000Y-46990000D01*
X105076000Y-46950000D02*
X115184000Y-46950000D01*
X105081000Y-46910000D02*
X115179000Y-46910000D01*
X105085000Y-46870000D02*
X115175000Y-46870000D01*
X105090000Y-46830000D02*
X115170000Y-46830000D01*
X105095000Y-46790000D02*
X115165000Y-46790000D01*
X105101000Y-46750000D02*
X115159000Y-46750000D01*
X105107000Y-46710000D02*
X115153000Y-46710000D01*
X105113000Y-46670000D02*
X115147000Y-46670000D01*
X105119000Y-46630000D02*
X115141000Y-46630000D01*
X105126000Y-46590000D02*
X115134000Y-46590000D01*
X105133000Y-46550000D02*
X115127000Y-46550000D01*
X105141000Y-46510000D02*
X115119000Y-46510000D01*
X105149000Y-46470000D02*
X115111000Y-46470000D01*
X105157000Y-46430000D02*
X115103000Y-46430000D01*
X105165000Y-46390000D02*
X115095000Y-46390000D01*
X105174000Y-46350000D02*
X115086000Y-46350000D01*
X105183000Y-46310000D02*
X115077000Y-46310000D01*
X105193000Y-46270000D02*
X115067000Y-46270000D01*
X105202000Y-46230000D02*
X115058000Y-46230000D01*
X105213000Y-46190000D02*
X108890000Y-46190000D01*
X105223000Y-46150000D02*
X108890000Y-46150000D01*
X105234000Y-46110000D02*
X108890000Y-46110000D01*
X105245000Y-46070000D02*
X108890000Y-46070000D01*
X105257000Y-46030000D02*
X108890000Y-46030000D01*
X105269000Y-45990000D02*
X108890000Y-45990000D01*
X105281000Y-45950000D02*
X108890000Y-45950000D01*
X105293000Y-45910000D02*
X108890000Y-45910000D01*
X105306000Y-45870000D02*
X108890000Y-45870000D01*
X105320000Y-45830000D02*
X108890000Y-45830000D01*
X105333000Y-45790000D02*
X108890000Y-45790000D01*
X105348000Y-45750000D02*
X108890000Y-45750000D01*
X105362000Y-45710000D02*
X108890000Y-45710000D01*
X105377000Y-45670000D02*
X108890000Y-45670000D01*
X105392000Y-45630000D02*
X108890000Y-45630000D01*
X105408000Y-45590000D02*
X108890000Y-45590000D01*
X105424000Y-45550000D02*
X108890000Y-45550000D01*
X105440000Y-45510000D02*
X108890000Y-45510000D01*
X105457000Y-45470000D02*
X108890000Y-45470000D01*
X105474000Y-45430000D02*
X108890000Y-45430000D01*
X105492000Y-45390000D02*
X108890000Y-45390000D01*
X105510000Y-45350000D02*
X108890000Y-45350000D01*
X105528000Y-45310000D02*
X108890000Y-45310000D01*
X105547000Y-45270000D02*
X108890000Y-45270000D01*
X105566000Y-45230000D02*
X108890000Y-45230000D01*
X105586000Y-45190000D02*
X108890000Y-45190000D01*
X105606000Y-45150000D02*
X108890000Y-45150000D01*
X105626000Y-45110000D02*
X108890000Y-45110000D01*
X105647000Y-45070000D02*
X108890000Y-45070000D01*
X105669000Y-45030000D02*
X108890000Y-45030000D01*
X105691000Y-44990000D02*
X108890000Y-44990000D01*
X105713000Y-44950000D02*
X108890000Y-44950000D01*
X105736000Y-44910000D02*
X108890000Y-44910000D01*
X105759000Y-44870000D02*
X108890000Y-44870000D01*
X105783000Y-44830000D02*
X108890000Y-44830000D01*
X105807000Y-44790000D02*
X108890000Y-44790000D01*
X105832000Y-44750000D02*
X108890000Y-44750000D01*
X105858000Y-44710000D02*
X108890000Y-44710000D01*
X105883000Y-44670000D02*
X108890000Y-44670000D01*
X105910000Y-44630000D02*
X108890000Y-44630000D01*
X105937000Y-44590000D02*
X108890000Y-44590000D01*
X105964000Y-44550000D02*
X108890000Y-44550000D01*
X105992000Y-44510000D02*
X108890000Y-44510000D01*
X106021000Y-44470000D02*
X108890000Y-44470000D01*
X106050000Y-44430000D02*
X108890000Y-44430000D01*
X106080000Y-44390000D02*
X108890000Y-44390000D01*
X106110000Y-44350000D02*
X108890000Y-44350000D01*
X106142000Y-44310000D02*
X108890000Y-44310000D01*
X106173000Y-44270000D02*
X108890000Y-44270000D01*
X106206000Y-44230000D02*
X108890000Y-44230000D01*
X106239000Y-44190000D02*
X108890000Y-44190000D01*
X106272000Y-44150000D02*
X108890000Y-44150000D01*
X106307000Y-44110000D02*
X108890000Y-44110000D01*
X106342000Y-44070000D02*
X108890000Y-44070000D01*
X106378000Y-44030000D02*
X108890000Y-44030000D01*
X106414000Y-43990000D02*
X108890000Y-43990000D01*
X106452000Y-43950000D02*
X108890000Y-43950000D01*
X106490000Y-43910000D02*
X108890000Y-43910000D01*
X106529000Y-43870000D02*
X108890000Y-43870000D01*
X106569000Y-43830000D02*
X108890000Y-43830000D01*
X106610000Y-43790000D02*
X108890000Y-43790000D01*
X106652000Y-43750000D02*
X108890000Y-43750000D01*
X106695000Y-43710000D02*
X113565000Y-43710000D01*
X106739000Y-43670000D02*
X113521000Y-43670000D01*
X106755000Y-52449646D02*
X107755000Y-52449646D01*
X106783000Y-43630000D02*
X113477000Y-43630000D01*
X106829000Y-43590000D02*
X113431000Y-43590000D01*
X106876000Y-43550000D02*
X113384000Y-43550000D01*
X106925000Y-43510000D02*
X113335000Y-43510000D01*
X106974000Y-43470000D02*
X113286000Y-43470000D01*
X107025000Y-43430000D02*
X113235000Y-43430000D01*
X107077000Y-43390000D02*
X113183000Y-43390000D01*
X107130000Y-43350000D02*
X113130000Y-43350000D01*
X107185000Y-43310000D02*
X113075000Y-43310000D01*
X107242000Y-43270000D02*
X113018000Y-43270000D01*
X107255000Y-52949646D02*
X107255000Y-51949646D01*
X107300000Y-43230000D02*
X112960000Y-43230000D01*
X107360000Y-43190000D02*
X112900000Y-43190000D01*
X107422000Y-43150000D02*
X112838000Y-43150000D01*
X107486000Y-43110000D02*
X112774000Y-43110000D01*
X107552000Y-43070000D02*
X112708000Y-43070000D01*
X107620000Y-43030000D02*
X112640000Y-43030000D01*
X107691000Y-42990000D02*
X112569000Y-42990000D01*
X107765000Y-42950000D02*
X112495000Y-42950000D01*
X107842000Y-42910000D02*
X112418000Y-42910000D01*
X107922000Y-42870000D02*
X112338000Y-42870000D01*
X108006000Y-42830000D02*
X112254000Y-42830000D01*
X108093000Y-42790000D02*
X112167000Y-42790000D01*
X108186000Y-42750000D02*
X112074000Y-42750000D01*
X108284000Y-42710000D02*
X111976000Y-42710000D01*
X108388000Y-42670000D02*
X111872000Y-42670000D01*
X108500000Y-42630000D02*
X111760000Y-42630000D01*
X108621000Y-42590000D02*
X111639000Y-42590000D01*
X108753000Y-42550000D02*
X111507000Y-42550000D01*
X108900000Y-42510000D02*
X111360000Y-42510000D01*
X109068000Y-42470000D02*
X111192000Y-42470000D01*
X109268000Y-42430000D02*
X110992000Y-42430000D01*
X109531000Y-42390000D02*
X110729000Y-42390000D01*
X111370000Y-43750000D02*
X113608000Y-43750000D01*
X111370000Y-43790000D02*
X113650000Y-43790000D01*
X111370000Y-43830000D02*
X113691000Y-43830000D01*
X111370000Y-43870000D02*
X113731000Y-43870000D01*
X111370000Y-43910000D02*
X113770000Y-43910000D01*
X111370000Y-43950000D02*
X113808000Y-43950000D01*
X111370000Y-43990000D02*
X113846000Y-43990000D01*
X111370000Y-44030000D02*
X113882000Y-44030000D01*
X111370000Y-44070000D02*
X113918000Y-44070000D01*
X111370000Y-44110000D02*
X113953000Y-44110000D01*
X111370000Y-44150000D02*
X113988000Y-44150000D01*
X111370000Y-44190000D02*
X114021000Y-44190000D01*
X111370000Y-44230000D02*
X114054000Y-44230000D01*
X111370000Y-44270000D02*
X114087000Y-44270000D01*
X111370000Y-44310000D02*
X114118000Y-44310000D01*
X111370000Y-44350000D02*
X114150000Y-44350000D01*
X111370000Y-44390000D02*
X114180000Y-44390000D01*
X111370000Y-44430000D02*
X114210000Y-44430000D01*
X111370000Y-44470000D02*
X114239000Y-44470000D01*
X111370000Y-44510000D02*
X114268000Y-44510000D01*
X111370000Y-44550000D02*
X114296000Y-44550000D01*
X111370000Y-44590000D02*
X114323000Y-44590000D01*
X111370000Y-44630000D02*
X114350000Y-44630000D01*
X111370000Y-44670000D02*
X114377000Y-44670000D01*
X111370000Y-44710000D02*
X114402000Y-44710000D01*
X111370000Y-44750000D02*
X114428000Y-44750000D01*
X111370000Y-44790000D02*
X114453000Y-44790000D01*
X111370000Y-44830000D02*
X114477000Y-44830000D01*
X111370000Y-44870000D02*
X114501000Y-44870000D01*
X111370000Y-44910000D02*
X114524000Y-44910000D01*
X111370000Y-44950000D02*
X114547000Y-44950000D01*
X111370000Y-44990000D02*
X114569000Y-44990000D01*
X111370000Y-45030000D02*
X114591000Y-45030000D01*
X111370000Y-45070000D02*
X114613000Y-45070000D01*
X111370000Y-45110000D02*
X114634000Y-45110000D01*
X111370000Y-45150000D02*
X114654000Y-45150000D01*
X111370000Y-45190000D02*
X114674000Y-45190000D01*
X111370000Y-45230000D02*
X114694000Y-45230000D01*
X111370000Y-45270000D02*
X114713000Y-45270000D01*
X111370000Y-45310000D02*
X114732000Y-45310000D01*
X111370000Y-45350000D02*
X114750000Y-45350000D01*
X111370000Y-45390000D02*
X114768000Y-45390000D01*
X111370000Y-45430000D02*
X114786000Y-45430000D01*
X111370000Y-45470000D02*
X114803000Y-45470000D01*
X111370000Y-45510000D02*
X114820000Y-45510000D01*
X111370000Y-45550000D02*
X114836000Y-45550000D01*
X111370000Y-45590000D02*
X114852000Y-45590000D01*
X111370000Y-45630000D02*
X114868000Y-45630000D01*
X111370000Y-45670000D02*
X114883000Y-45670000D01*
X111370000Y-45710000D02*
X114898000Y-45710000D01*
X111370000Y-45750000D02*
X114912000Y-45750000D01*
X111370000Y-45790000D02*
X114927000Y-45790000D01*
X111370000Y-45830000D02*
X114940000Y-45830000D01*
X111370000Y-45870000D02*
X114954000Y-45870000D01*
X111370000Y-45910000D02*
X114967000Y-45910000D01*
X111370000Y-45950000D02*
X114979000Y-45950000D01*
X111370000Y-45990000D02*
X114991000Y-45990000D01*
X111370000Y-46030000D02*
X115003000Y-46030000D01*
X111370000Y-46070000D02*
X115015000Y-46070000D01*
X111370000Y-46110000D02*
X115026000Y-46110000D01*
X111370000Y-46150000D02*
X115037000Y-46150000D01*
X111370000Y-46190000D02*
X115047000Y-46190000D01*
X115250000Y-47470000D02*
G75*
G02*
X105010000Y-47470000I-5120000J0D01*
G01*
X105010000Y-47470000D02*
G75*
G02*
X115250000Y-47470000I5120000J0D01*
G01*
%TO.C,J8*%
X132770000Y-137750000D02*
X134100000Y-137750000D01*
X132770000Y-139080000D02*
X132770000Y-137750000D01*
X135370000Y-137750000D02*
X143050000Y-137750000D01*
X135370000Y-140410000D02*
X135370000Y-137750000D01*
X135370000Y-140410000D02*
X143050000Y-140410000D01*
X143050000Y-140410000D02*
X143050000Y-137750000D01*
%TO.C,E1A*%
X110740000Y-83790000D02*
G75*
G02*
X108340000Y-83790000I-1200000J0D01*
G01*
X108340000Y-83790000D02*
G75*
G02*
X110740000Y-83790000I1200000J0D01*
G01*
%TO.C,GND*%
X93460000Y-83740000D02*
G75*
G02*
X91060000Y-83740000I-1200000J0D01*
G01*
X91060000Y-83740000D02*
G75*
G02*
X93460000Y-83740000I1200000J0D01*
G01*
%TO.C,JP1*%
X98590000Y-88970000D02*
X98590000Y-91730000D01*
X101240000Y-88970000D02*
X98590000Y-88970000D01*
X101240000Y-88970000D02*
X101240000Y-91730000D01*
X101240000Y-91730000D02*
X98590000Y-91730000D01*
X102510000Y-88970000D02*
X103890000Y-88970000D01*
X103890000Y-88970000D02*
X103890000Y-90350000D01*
%TO.C,R11*%
X91790000Y-68480000D02*
X91790000Y-68810000D01*
X91790000Y-71220000D02*
X91790000Y-70890000D01*
X98330000Y-68480000D02*
X91790000Y-68480000D01*
X98330000Y-68810000D02*
X98330000Y-68480000D01*
X98330000Y-70890000D02*
X98330000Y-71220000D01*
X98330000Y-71220000D02*
X91790000Y-71220000D01*
%TO.C,D1*%
X99710000Y-53380000D02*
X99710000Y-61220000D01*
X99710000Y-61220000D02*
X100190000Y-61220000D01*
X100190000Y-53380000D02*
X99710000Y-53380000D01*
X103070000Y-53380000D02*
X103550000Y-53380000D01*
X103550000Y-53380000D02*
X103550000Y-61220000D01*
X103550000Y-54520000D02*
X99710000Y-54520000D01*
X103550000Y-54640000D02*
X99710000Y-54640000D01*
X103550000Y-54760000D02*
X99710000Y-54760000D01*
X103550000Y-61220000D02*
X103070000Y-61220000D01*
%TO.C,R12*%
X91790000Y-73690000D02*
X91790000Y-74020000D01*
X91790000Y-76430000D02*
X91790000Y-76100000D01*
X98330000Y-73690000D02*
X91790000Y-73690000D01*
X98330000Y-74020000D02*
X98330000Y-73690000D01*
X98330000Y-76100000D02*
X98330000Y-76430000D01*
X98330000Y-76430000D02*
X91790000Y-76430000D01*
%TD*%
M02*
