%TF.GenerationSoftware,KiCad,Pcbnew,10.0.3*%
%TF.CreationDate,2026-07-26T19:53:20+02:00*%
%TF.ProjectId,balance_byMiguel,62616c61-6e63-4655-9f62-794d69677565,1.0*%
%TF.SameCoordinates,Original*%
%TF.FileFunction,Soldermask,Top*%
%TF.FilePolarity,Negative*%
%FSLAX46Y46*%
G04 Gerber Fmt 4.6, Leading zero omitted, Abs format (unit mm)*
G04 Created by KiCad (PCBNEW 10.0.3) date 2026-07-26 19:53:20*
%MOMM*%
%LPD*%
G01*
G04 APERTURE LIST*
G04 Aperture macros list*
%AMRoundRect*
0 Rectangle with rounded corners*
0 $1 Rounding radius*
0 $2 $3 $4 $5 $6 $7 $8 $9 X,Y pos of 4 corners*
0 Add a 4 corners polygon primitive as box body*
4,1,4,$2,$3,$4,$5,$6,$7,$8,$9,$2,$3,0*
0 Add four circle primitives for the rounded corners*
1,1,$1+$1,$2,$3*
1,1,$1+$1,$4,$5*
1,1,$1+$1,$6,$7*
1,1,$1+$1,$8,$9*
0 Add four rect primitives between the rounded corners*
20,1,$1+$1,$2,$3,$4,$5,0*
20,1,$1+$1,$4,$5,$6,$7,0*
20,1,$1+$1,$6,$7,$8,$9,0*
20,1,$1+$1,$8,$9,$2,$3,0*%
G04 Aperture macros list end*
%ADD10R,1.700000X1.700000*%
%ADD11C,1.700000*%
%ADD12C,1.524000*%
%ADD13C,2.000000*%
%ADD14C,4.000000*%
%ADD15C,3.000000*%
%ADD16C,1.600000*%
%ADD17RoundRect,0.250000X-1.050000X1.050000X-1.050000X-1.050000X1.050000X-1.050000X1.050000X1.050000X0*%
%ADD18C,2.600000*%
%ADD19C,5.600000*%
%ADD20R,1.600000X1.524000*%
%ADD21RoundRect,0.250000X0.750000X-0.750000X0.750000X0.750000X-0.750000X0.750000X-0.750000X-0.750000X0*%
%ADD22RoundRect,0.250001X-0.949999X0.949999X-0.949999X-0.949999X0.949999X-0.949999X0.949999X0.949999X0*%
%ADD23C,2.400000*%
G04 APERTURE END LIST*
D10*
%TO.C,J9*%
X149745000Y-65660000D03*
D11*
X149745000Y-68200000D03*
X149745000Y-70740000D03*
X149745000Y-73280000D03*
%TD*%
D12*
%TO.C,U1*%
X108280000Y-98630000D03*
X105740000Y-98630000D03*
X103200000Y-98630000D03*
X100660000Y-98630000D03*
X95580000Y-98630000D03*
X98120000Y-98630000D03*
X90500000Y-113870000D03*
X90500000Y-98630000D03*
X93040000Y-113870000D03*
X95580000Y-113870000D03*
X98120000Y-113870000D03*
X100660000Y-113870000D03*
X103200000Y-113870000D03*
X105740000Y-113870000D03*
X108280000Y-113870000D03*
X93040000Y-98630000D03*
%TD*%
D13*
%TO.C,EN*%
X101960000Y-120870000D03*
%TD*%
%TO.C,MOSI*%
X91550000Y-120810000D03*
%TD*%
D14*
%TO.C,U4*%
X138265000Y-50930000D03*
X121115000Y-81430000D03*
D15*
X138965000Y-45830000D03*
X120415000Y-45830000D03*
X138965000Y-86755000D03*
X120315000Y-86805000D03*
%TD*%
D16*
%TO.C,R2*%
X90280000Y-130855000D03*
X97900000Y-130855000D03*
%TD*%
%TO.C,R9*%
X110660000Y-75090000D03*
X103040000Y-75090000D03*
%TD*%
D10*
%TO.C,J6*%
X100205000Y-139080000D03*
D11*
X102745000Y-139080000D03*
X105285000Y-139080000D03*
X107825000Y-139080000D03*
%TD*%
D16*
%TO.C,R8*%
X111650000Y-130880000D03*
X119270000Y-130880000D03*
%TD*%
D17*
%TO.C,J1*%
X92610000Y-53640000D03*
D18*
X92610000Y-58720000D03*
%TD*%
D16*
%TO.C,C1*%
X88700000Y-93310000D03*
X93700000Y-93310000D03*
%TD*%
%TO.C,R4*%
X100820000Y-126230000D03*
X108440000Y-126230000D03*
%TD*%
D13*
%TO.C,3V3*%
X96490000Y-83760000D03*
%TD*%
D16*
%TO.C,R1*%
X100820000Y-130880000D03*
X108440000Y-130880000D03*
%TD*%
D10*
%TO.C,J5*%
X138835000Y-126230000D03*
D11*
X141375000Y-126230000D03*
X143915000Y-126230000D03*
X146455000Y-126230000D03*
%TD*%
D13*
%TO.C,SCK*%
X98490000Y-120850000D03*
%TD*%
D10*
%TO.C,J10*%
X149745000Y-80055000D03*
D11*
X149745000Y-82595000D03*
X149745000Y-85135000D03*
X149745000Y-87675000D03*
%TD*%
D19*
%TO.C,H1*%
X89245000Y-140005000D03*
%TD*%
D16*
%TO.C,R5*%
X121925000Y-130880000D03*
X129545000Y-130880000D03*
%TD*%
D13*
%TO.C,5V*%
X100840000Y-83770000D03*
%TD*%
D16*
%TO.C,R6*%
X121920000Y-126205000D03*
X129540000Y-126205000D03*
%TD*%
D13*
%TO.C,E1B*%
X105190000Y-83780000D03*
%TD*%
D10*
%TO.C,J7*%
X117150000Y-139080000D03*
D11*
X119690000Y-139080000D03*
X122230000Y-139080000D03*
X124770000Y-139080000D03*
%TD*%
D16*
%TO.C,R7*%
X111645000Y-126205000D03*
X119265000Y-126205000D03*
%TD*%
D19*
%TO.C,H2*%
X150670000Y-140130000D03*
%TD*%
D20*
%TO.C,U3*%
X115280000Y-93335000D03*
D16*
X115280000Y-95875000D03*
X115280000Y-98415000D03*
X115280000Y-100955000D03*
X115280000Y-103495000D03*
X115280000Y-106035000D03*
X115280000Y-108575000D03*
X115280000Y-111115000D03*
X115280000Y-113655000D03*
X115280000Y-116195000D03*
X115280000Y-118735000D03*
X150840000Y-118735000D03*
X150840000Y-116195000D03*
X150840000Y-113655000D03*
X150840000Y-111115000D03*
X150840000Y-108575000D03*
X150840000Y-106035000D03*
X150840000Y-103495000D03*
X150840000Y-100955000D03*
X150840000Y-98415000D03*
X150840000Y-95875000D03*
X150840000Y-93335000D03*
%TD*%
D19*
%TO.C,H4*%
X88995000Y-44880000D03*
%TD*%
D16*
%TO.C,R10*%
X110660000Y-69840000D03*
X103040000Y-69840000D03*
%TD*%
D13*
%TO.C,SS*%
X95020000Y-120830000D03*
%TD*%
%TO.C,TP_VS*%
X150050000Y-52140000D03*
%TD*%
%TO.C,MISO*%
X87980000Y-120800000D03*
%TD*%
D16*
%TO.C,R3*%
X90305000Y-126205000D03*
X97925000Y-126205000D03*
%TD*%
D21*
%TO.C,C2*%
X110130000Y-49970000D03*
D13*
X110130000Y-44970000D03*
%TD*%
D10*
%TO.C,J8*%
X134100000Y-139080000D03*
D11*
X136640000Y-139080000D03*
X139180000Y-139080000D03*
X141720000Y-139080000D03*
%TD*%
D13*
%TO.C,E1A*%
X109540000Y-83790000D03*
%TD*%
D19*
%TO.C,H3*%
X150770000Y-44655000D03*
%TD*%
D13*
%TO.C,GND*%
X92260000Y-83740000D03*
%TD*%
D10*
%TO.C,JP1*%
X102510000Y-90350000D03*
D11*
X99970000Y-90350000D03*
%TD*%
D16*
%TO.C,R11*%
X98870000Y-69850000D03*
X91250000Y-69850000D03*
%TD*%
D22*
%TO.C,D1*%
X101630000Y-52220000D03*
D23*
X101630000Y-62380000D03*
%TD*%
D16*
%TO.C,R12*%
X98870000Y-75060000D03*
X91250000Y-75060000D03*
%TD*%
M02*
